<svg width="15" height="15" viewBox="0 0 15 15" fill="none" xmlns="http://www.w3.org/2000/svg">
<rect y="0.330566" width="15" height="14" rx="4" fill="#FAA400"/>
<path d="M2.96161 10.3306V4.03057H5.33761C6.31561 4.03057 7.09561 4.33357 7.67761 4.93957C8.25961 5.54557 8.55061 6.29257 8.55061 7.18057C8.55061 8.06857 8.25961 8.81557 7.67761 9.42157C7.10161 10.0276 6.32161 10.3306 5.33761 10.3306H2.96161ZM4.41961 9.10657H5.20261C5.79061 9.10657 6.24361 8.92057 6.56161 8.54857C6.88561 8.17057 7.04761 7.71457 7.04761 7.18057C7.04761 6.64657 6.88561 6.19357 6.56161 5.82157C6.24361 5.44357 5.79061 5.25457 5.20261 5.25457H4.41961V9.10657ZM10.3496 10.3306V6.46057H9.05363V5.31757C9.63563 5.31757 10.0286 5.23357 10.2326 5.06557C10.4366 4.89757 10.5386 4.61257 10.5386 4.21057H11.7986V10.3306H10.3496Z" fill="white"/>
</svg>
