<svg width="26" height="27" viewBox="0 0 26 27" fill="none" xmlns="http://www.w3.org/2000/svg">
<path d="M1 7.33057C1 4.01686 3.68629 1.33057 7 1.33057H19C22.3137 1.33057 25 4.01686 25 7.33057V19.3306C25 22.6443 22.3137 25.3306 19 25.3306H7C3.68629 25.3306 1 22.6443 1 19.3306V7.33057Z" fill="#4D4D50"/>
<path d="M5.5 14.3306L11.0763 19.2372L20.5 7.63462M7 25.3306H19C22.3137 25.3306 25 22.6443 25 19.3306V7.33057C25 4.01686 22.3137 1.33057 19 1.33057H7C3.68629 1.33057 1 4.01686 1 7.33057V19.3306C1 22.6443 3.68629 25.3306 7 25.3306Z" stroke="white" stroke-width="2" stroke-linecap="round"/>
</svg>
