<svg width="238" height="238" viewBox="0 0 238 238" fill="none" xmlns="http://www.w3.org/2000/svg">
<g clip-path="url(#clip0_1_1801)">
<mask id="mask0_1_1801" style="mask-type:luminance" maskUnits="userSpaceOnUse" x="0" y="98" width="120" height="119">
<path d="M21.1951 98.0157L119.047 118.775L98.2879 216.626L0.436157 195.868L21.1951 98.0157Z" fill="white"/>
</mask>
<g mask="url(#mask0_1_1801)">
<path d="M21.1951 98.0157L119.047 118.775L98.2879 216.626L0.436157 195.868L21.1951 98.0157Z" fill="url(#paint0_linear_1_1801)"/>
</g>
<mask id="mask1_1_1801" style="mask-type:luminance" maskUnits="userSpaceOnUse" x="98" y="118" width="119" height="120">
<path d="M119.047 118.775L216.898 139.533L196.139 237.385L98.2877 216.626L119.047 118.775Z" fill="white"/>
</mask>
<g mask="url(#mask1_1_1801)">
<path d="M119.047 118.775L216.898 139.533L196.139 237.385L98.2877 216.626L119.047 118.775Z" fill="url(#paint1_radial_1_1801)"/>
</g>
<mask id="mask2_1_1801" style="mask-type:luminance" maskUnits="userSpaceOnUse" x="21" y="0" width="217" height="140">
<path d="M21.1912 98.033L216.973 139.567L237.732 41.7156L41.95 0.181212L21.1912 98.033Z" fill="white"/>
</mask>
<g mask="url(#mask2_1_1801)">
<path d="M21.1912 98.033L216.973 139.567L237.732 41.7156L41.95 0.181212L21.1912 98.033Z" fill="url(#paint2_linear_1_1801)"/>
</g>
</g>
<defs>
<linearGradient id="paint0_linear_1_1801" x1="57.3226" y1="45.7607" x2="61.6101" y2="243.506" gradientUnits="userSpaceOnUse">
<stop stop-color="#FEFEFE"/>
<stop offset="0.270489" stop-color="#F9F8F7"/>
<stop offset="1" stop-color="#EAE3CF"/>
</linearGradient>
<radialGradient id="paint1_radial_1_1801" cx="0" cy="0" r="1" gradientUnits="userSpaceOnUse" gradientTransform="translate(116.911 310.965) rotate(-75.0424) scale(235.029 235.029)">
<stop stop-color="#302F28"/>
<stop offset="0.403945" stop-color="#302F28"/>
<stop offset="0.566376" stop-color="#282724"/>
<stop offset="0.6887" stop-color="#272623"/>
<stop offset="0.890914" stop-color="#242321"/>
<stop offset="1" stop-color="#242321"/>
</radialGradient>
<linearGradient id="paint2_linear_1_1801" x1="110.482" y1="-15.1158" x2="187.492" y2="330.247" gradientUnits="userSpaceOnUse">
<stop stop-color="#FCE000"/>
<stop offset="0.47222" stop-color="#FAAA00"/>
<stop offset="1" stop-color="#FCE000"/>
</linearGradient>
<clipPath id="clip0_1_1801">
<rect x="41.9504" y="0.181274" width="200.139" height="200.041" rx="32.0222" transform="rotate(11.9775 41.9504 0.181274)" fill="white"/>
</clipPath>
</defs>
</svg>
