<svg width="119" height="100" viewBox="0 0 119 100" fill="none" xmlns="http://www.w3.org/2000/svg">
<path d="M96.4632 81.7691C91.8637 85.3074 87.1906 86.7224 82.4439 86.0141C77.7557 85.2584 73.584 82.6283 69.9287 78.1237C64.9917 72.0396 62.6497 65.208 62.903 57.6288C56.1385 57.7818 50.62 55.2257 46.3476 49.9606C41.458 43.935 41.3868 37.9289 46.134 31.9422C46.251 31.8473 47.3167 31.128 49.3312 29.7844C56.7929 24.9908 63.6605 23.5899 69.9339 25.5818C73.3538 26.6876 76.0132 28.4105 77.912 30.7505C80.3331 33.7341 81.1751 37.2227 80.4381 41.2166C80.4745 41.3811 79.1944 45.9611 76.5978 54.9568C76.9445 55.7427 77.0941 56.1064 77.0467 56.0479C76.7877 61.1092 78.3672 65.7458 81.7852 69.9579C84.2537 72.9999 86.5973 74.1544 88.816 73.4212C90.0368 73.0127 91.2615 72.3099 92.49 71.313C93.8355 70.2212 96.5839 66.9723 100.735 61.5662C105.19 55.8169 106.292 48.5672 104.043 39.817C102.435 33.6509 99.8749 28.4034 96.362 24.0743C91.4725 18.0488 83.877 14.607 73.5756 13.7491C66.5704 13.1272 60.0781 13.4959 54.0985 14.8553C42.421 17.4427 33.5109 21.2287 27.3683 26.2132C20.4067 31.8623 16.3766 39.4501 15.278 48.9765C14.5103 55.3238 16.8323 61.832 22.2441 68.5011C24.6176 71.4262 27.9229 74.6624 32.1599 78.2099C38.7162 83.6591 46.1964 87.4369 54.6003 89.5435C55.6811 90.995 55.8955 93.0526 55.2433 95.7162C53.5324 96.7165 50.9754 97.8697 47.5723 99.1759C45.5622 99.4487 42.5165 98.8639 38.4354 97.4216C34.8731 96.1403 31.9577 94.8192 29.6891 93.4584C22.2332 88.9332 15.9892 83.57 10.9573 77.369C5.83034 71.0509 2.64065 64.131 1.38819 56.6094C0.357744 50.557 0.722673 45.5067 2.48298 41.4587C6.15368 32.9498 11.8501 25.5622 19.5722 19.2959C35.1919 6.62103 54.6393 0.39679 77.9143 0.623211C80.5051 0.946414 84.17 1.75633 88.9091 3.05295C94.4805 5.61453 97.54 7.35229 98.0876 8.26624C100.718 9.23631 103.695 11.7689 107.018 15.8639C113.094 23.352 116.72 31.2278 117.895 39.4912C118.539 44.1109 118.116 49.2086 116.625 54.7843C115.193 60.3126 113.059 64.8574 110.225 68.4188C107.438 72.0386 104.981 74.809 102.853 76.7299C102.443 77.0622 100.313 78.7419 96.4632 81.7691ZM69.0578 41.7193C69.0952 40.3307 68.7104 39.1391 67.9034 38.1446C62.8642 37.6737 59.2518 37.6458 57.0662 38.0611C57.1932 39.4133 57.6603 40.5867 58.4673 41.5812C59.6066 42.9852 61.0952 43.8632 62.9332 44.2152C64.8772 44.5782 66.5219 44.2137 67.8674 43.1219C68.3354 42.7421 68.7322 42.2746 69.0578 41.7193Z" fill="#FFDE40"/>
</svg>
