<svg width="411" height="432" viewBox="0 0 411 432" fill="none" xmlns="http://www.w3.org/2000/svg">
<rect x="195.013" width="305.275" height="305.275" rx="152.638" transform="rotate(45.0401 195.013 0)" fill="white"/>
<mask id="mask0_1_2191" style="mask-type:alpha" maskUnits="userSpaceOnUse" x="78" y="98" width="234" height="234">
<rect x="194.978" y="50.6672" width="232.875" height="232.875" rx="116.437" transform="rotate(45.0401 194.978 50.6672)" fill="#D9D9D9"/>
</mask>
<g mask="url(#mask0_1_2191)">
<rect x="194.978" y="50.6672" width="232.875" height="232.875" rx="116.437" transform="rotate(45.0401 194.978 50.6672)" fill="#FFDE40"/>
<path d="M205.836 314.789L309.958 255.605C319.11 245.048 330.806 217.319 304.381 190.857C277.956 164.395 246.628 167.953 234.267 173.039L143.058 216.325L79.2093 194.754L74.5715 199.385L78.8508 206.372L81.6086 210.875L140.378 306.835L144.848 314.133L151.366 307.624L205.836 314.789Z" fill="#8A5022"/>
<path d="M205.836 314.789L151.366 307.624L144.848 314.133L150.015 314.978L192.646 321.954L197.814 322.8L205.836 314.789Z" fill="#8A5022"/>
<path d="M309.958 255.605L205.836 314.789L197.814 322.8L207.456 323.18L316.214 261.87C323.364 249.308 331.007 217.519 304.381 190.857C330.806 217.319 319.11 245.048 309.958 255.605Z" fill="#8A5022"/>
<path d="M78.8508 206.372L44.102 241.073L47.7304 244.706L81.6086 210.875L78.8508 206.372Z" fill="#8A5022"/>
<path d="M74.5715 199.385L38.4716 235.434L44.102 241.073L78.8508 206.372L74.5715 199.385Z" fill="#8A5022"/>
<path d="M144.848 314.133L140.378 306.835L125.054 322.138L130.934 328.027L144.848 314.133Z" fill="#8A5022"/>
<path d="M144.848 314.133L130.934 328.027L133.937 331.034L150.015 314.978L144.848 314.133Z" fill="#8A5022"/>
<path d="M161.714 358.849L197.814 322.8L192.646 321.954L158.711 355.842L161.714 358.849Z" fill="#8A5022"/>
<path d="M207.456 323.18L197.814 322.8L161.714 358.849L166.718 363.861L207.456 323.18Z" fill="#8A5022"/>
<path d="M205.836 314.789L309.958 255.605C319.11 245.048 330.806 217.319 304.381 190.857M205.836 314.789L151.366 307.624M205.836 314.789L197.814 322.8M205.836 314.789L143.058 216.325M151.366 307.624L144.848 314.133M151.366 307.624L79.2093 194.754M144.848 314.133L140.378 306.835M144.848 314.133L130.934 328.027M144.848 314.133L150.015 314.978M74.5715 199.385L79.2093 194.754M74.5715 199.385L38.4716 235.434L44.102 241.073M74.5715 199.385L78.8508 206.372M79.2093 194.754L143.058 216.325M143.058 216.325L234.267 173.039C246.628 167.953 277.956 164.395 304.381 190.857M304.381 190.857C331.007 217.519 323.364 249.308 316.214 261.87L207.456 323.18M197.814 322.8L207.456 323.18M197.814 322.8L161.714 358.849M197.814 322.8L192.646 321.954M207.456 323.18L166.718 363.861L161.714 358.849M140.378 306.835L125.054 322.138L130.934 328.027M140.378 306.835L81.6086 210.875M130.934 328.027L133.937 331.034L150.015 314.978M150.015 314.978L192.646 321.954M161.714 358.849L158.711 355.842L192.646 321.954M44.102 241.073L78.8508 206.372M44.102 241.073L47.7304 244.706L81.6086 210.875M78.8508 206.372L81.6086 210.875" stroke="#21201F" stroke-width="0.521751" stroke-linecap="round"/>
<path fill-rule="evenodd" clip-rule="evenodd" d="M151.266 175.065L151.248 175.062C151.254 175.063 151.26 175.064 151.266 175.065Z" fill="white"/>
<path d="M145.521 211.856C146.185 210.282 148.558 206.388 152.737 203.408C156.266 200.891 159.228 197.012 161.738 193.725C162.944 192.147 164.044 190.706 165.053 189.618C165.644 188.684 165.912 186.275 164.433 182.288C162.977 181.447 160.912 183.099 158.988 184.638C157.786 185.598 156.64 186.515 155.733 186.753C153.385 187.369 150.31 174.968 151.248 175.062L149.153 174.691L144.79 191.718C145.908 193.086 147.67 196.443 145.779 198.928C143.888 201.413 139.021 204.932 136.823 206.381L143.041 203.153C142.874 204.562 141.994 207.776 139.805 209.366C137.616 210.956 137.287 211.632 137.396 211.771C140.503 211.634 143.318 211.677 145.521 211.856Z" fill="white"/>
<path d="M158.478 171.838C156.406 172.997 152.062 175.265 151.266 175.065L151.248 175.062C150.31 174.968 153.385 187.369 155.733 186.753C156.64 186.515 157.786 185.598 158.988 184.638C160.912 183.099 162.977 181.447 164.433 182.288C163.42 179.556 161.588 176.084 158.478 171.838Z" fill="white"/>
<path d="M227.807 217.379C231.701 196.996 226.05 184.769 222.737 181.203C213.533 188.407 190.875 201.742 173.873 197.455C174.29 194.389 174.651 187.983 172.762 186.888C171.229 186.68 167.541 186.935 165.053 189.618C164.044 190.706 162.944 192.147 161.738 193.725C159.228 197.012 156.266 200.891 152.737 203.408C148.558 206.388 146.185 210.282 145.521 211.856L154.346 212.235C154.802 211.696 156.038 210.346 157.332 209.253C158.625 208.16 163.009 208.47 165.039 208.761C167.129 207.509 170.48 206.811 173.49 209.016C176.154 210.968 178.551 215.191 179.572 223.314C182.003 242.657 175.996 247.979 172.563 251.021C172.157 251.38 171.787 251.708 171.471 252.024C169.082 254.409 165.503 253.346 164.012 252.516C162.81 252.64 159.96 252.687 158.17 251.891C156.381 251.094 155.686 248.989 155.563 248.035L149.597 247.037L148.725 249.398C150.05 249.814 153.099 250.943 154.689 252.137C155.911 253.054 155.818 253.783 155.709 254.641C155.641 255.18 155.566 255.769 155.805 256.488C156.301 257.98 162.142 260.429 165 261.467C164.644 262.106 166.664 264.128 171.335 267.81C175.562 271.143 184.589 274.323 189.736 275.851C190.276 276.012 190.773 276.154 191.217 276.276C191.553 276.547 192.087 276.892 192.81 277.257C194.522 278.121 197.293 279.101 200.989 279.487C201.715 279.563 202.477 279.616 203.273 279.64C210.935 279.878 216.542 272.849 220.594 267.77L220.597 267.766C220.883 267.408 221.161 267.06 221.431 266.725C224.854 262.478 225.172 250.624 225.329 244.783C225.36 243.619 225.385 242.693 225.427 242.115C225.488 241.268 225.372 240.877 225.232 240.404C224.796 238.932 224.124 236.662 227.807 217.379Z" fill="white"/>
<path d="M222.737 181.203C223.733 180.209 223.322 175.817 222.992 173.745C216.869 179.859 213.239 180.859 207.973 182.31C206.178 182.805 204.192 183.352 201.852 184.173C196.328 186.109 186.102 186.206 179.321 186.27C174.806 186.313 171.819 186.341 172.762 186.888C174.651 187.983 174.29 194.389 173.873 197.455C190.875 201.742 213.533 188.407 222.737 181.203Z" fill="white"/>
<path d="M155.563 248.035C155.686 248.989 156.381 251.094 158.17 251.891C159.96 252.687 162.81 252.64 164.012 252.516C165.503 253.346 169.082 254.409 171.471 252.024C171.787 251.708 172.157 251.38 172.563 251.021C175.996 247.979 182.003 242.657 179.572 223.314C178.551 215.191 176.154 210.968 173.49 209.016C170.48 206.811 167.129 207.509 165.039 208.761C163.009 208.47 158.625 208.16 157.332 209.253C156.038 210.346 154.802 211.696 154.346 212.235C155.713 212.774 158.646 213.804 159.442 213.605C160.436 213.357 167.639 223.555 165.767 232.38C164.27 239.439 161.241 246.009 159.913 248.411L155.563 248.035Z" fill="white"/>
<path d="M145.779 198.928C147.67 196.443 145.908 193.086 144.79 191.718C144.21 192.132 143.247 193.308 144.042 194.701C145.035 196.442 139.186 205.512 124.272 201.773C112.341 198.782 109.17 188.285 109.075 183.411C109.465 182.663 110.151 181.399 111.131 179.657L108.875 178.394C106.778 179.925 103.904 183.903 105.059 189.657C103.758 191.619 101.976 196.314 105.255 199.399C106.113 200.206 106.905 201.112 107.746 202.075C110.922 205.711 114.8 210.152 125.619 213.098C129.601 212.352 133.705 211.934 137.396 211.771C137.287 211.632 137.616 210.956 139.805 209.366C141.994 207.776 142.874 204.562 143.041 203.153L136.823 206.381C139.021 204.932 143.888 201.413 145.779 198.928Z" fill="white"/>
<path d="M105.255 199.399C105.504 200.507 106.016 202.14 106.863 204.004C108.549 207.715 110.99 215.84 125.619 213.098C114.8 210.152 110.922 205.711 107.746 202.075C106.905 201.112 106.113 200.206 105.255 199.399Z" fill="white"/>
<path d="M204.813 121.849C202.999 122.364 200.833 124.581 200.833 124.581L213.756 130.804C213.756 130.804 214.348 128.948 213.688 126.584C213.029 124.22 208.804 120.714 204.813 121.849Z" fill="#FFBCA7"/>
<path d="M198.784 130.098C198.658 132.211 202.882 136.44 206.86 136.443C208.308 136.444 209.641 135.654 210.749 134.615L203.962 131.138L199.051 128.623C198.909 129.154 198.81 129.661 198.784 130.098Z" fill="#FFBCA7"/>
<path d="M221.791 117.061C209.989 107.233 194.576 106.228 188.854 110.948L192.637 112.642C195.976 113.58 203.479 116.184 206.778 119.09C210.078 121.996 218.608 125.628 222.46 127.081L219.101 130.435C218.645 131.305 217.751 133.069 218.546 133.467C219.342 133.865 222.524 133.801 224.016 133.719C224.389 132.683 225.485 130.662 226.877 130.862C228.617 131.112 228.74 133.225 228.49 134.468C228.291 135.462 229.196 135.419 229.674 135.273C229.181 128.516 227.157 121.53 221.791 117.061Z" fill="#8A5022"/>
<path d="M78.9887 250.223C74.3236 238.386 69.3437 237.579 67.4368 238.655C63.1701 237.202 53.2677 236.308 47.7923 244.36L78.473 275.083C80.9259 273.55 86.0418 271.078 89.4437 271.646C86.7424 269.656 83.8619 262.588 78.9887 250.223Z" fill="#8A5022"/>
<path d="M97.3665 276.339L91.03 272.233C90.499 272.232 89.9748 272.037 89.4437 271.646C86.0418 271.078 80.9259 273.55 78.473 275.083L120.457 317.126L122.395 316.414C119.261 316.17 108.218 292.818 102.833 280.569L100.594 281.81L97.7375 278.95L97.3665 276.339Z" fill="#8A5022"/>
<path d="M154.689 252.137C153.099 250.943 150.05 249.814 148.725 249.398L149.597 247.037C144.46 245.045 133.64 241.557 131.451 243.545C130.011 244.851 127.85 244.61 125.438 244.34C123.264 244.097 120.886 243.832 118.646 244.655C117.499 245.077 116.433 245.506 115.454 245.899C114.218 246.397 113.122 246.838 112.18 247.137C106.208 255.503 93.6156 272.234 91.03 272.233L97.3665 276.339L97.7375 278.95L100.594 281.81L102.833 280.569C108.218 292.818 119.261 316.17 122.395 316.414L122.82 316.258C125.208 313.873 135.511 300.438 140.363 294.019L146.082 293.028C145.296 291.494 144.146 288.452 145.837 288.553C147.95 288.678 165.617 301.096 178.721 297.698C186.244 295.748 192.864 289.762 197.132 284.711L189.971 281.496L186.864 280.624C182.472 279.295 171.826 275.319 164.372 270.043C156.918 264.768 155.555 258.809 155.805 256.488C155.566 255.769 155.641 255.18 155.709 254.641C155.818 253.783 155.911 253.054 154.689 252.137Z" fill="#FB482D"/>
<path d="M103.366 232.587C101.501 232.213 101.009 226.246 110.337 218.918C113.959 216.073 119.652 214.216 125.619 213.098C110.99 215.84 108.549 207.715 106.863 204.004C102.39 203.668 82.3731 212.312 67.4368 238.655C69.3437 237.579 74.3236 238.386 78.9887 250.223C83.8619 262.588 86.7424 269.656 89.4437 271.646C90.0311 271.744 90.5674 271.933 91.03 272.233C93.6156 272.234 106.208 255.503 112.18 247.137C110.796 247.576 109.745 247.708 109.073 247.259C107.88 246.463 108.206 243.405 109.948 239.926C109.657 240.164 109.365 240.47 109.066 240.783C107.963 241.941 106.761 243.202 105.099 241.538C102.491 238.926 104.649 234.121 106.35 231.346C105.977 231.885 104.857 232.887 103.366 232.587Z" fill="#FB482D"/>
<path d="M191.217 276.276C190.773 276.154 190.276 276.012 189.736 275.851L186.864 280.624L189.971 281.496L192.81 277.257C192.087 276.892 191.553 276.547 191.217 276.276Z" fill="#FB482D"/>
<path d="M149.597 247.037L155.563 248.035L159.913 248.411C161.241 246.009 164.27 239.439 165.767 232.38C167.639 223.555 160.436 213.357 159.442 213.605C158.646 213.804 155.713 212.774 154.346 212.235L145.521 211.856C143.318 211.677 140.503 211.634 137.396 211.771C133.705 211.934 129.601 212.352 125.619 213.098C119.652 214.216 113.959 216.073 110.337 218.918C101.009 226.246 101.501 232.213 103.366 232.587C104.857 232.887 105.977 231.885 106.35 231.346C104.649 234.121 102.491 238.926 105.099 241.538C106.761 243.202 107.963 241.941 109.066 240.783C109.365 240.47 109.657 240.164 109.948 239.926C108.206 243.405 107.88 246.463 109.073 247.259C109.745 247.708 110.796 247.576 112.18 247.137C113.122 246.838 114.218 246.397 115.454 245.899C116.433 245.506 117.499 245.077 118.646 244.655C120.886 243.832 123.264 244.097 125.438 244.34C127.85 244.61 130.011 244.851 131.451 243.545C133.64 241.557 144.46 245.045 149.597 247.037Z" fill="#FFB3A1"/>
<path d="M151.266 175.065C152.062 175.265 156.406 172.997 158.478 171.838L161.09 169.726C161.213 171.342 163.824 171.22 167.057 170.228C170.289 169.235 172.033 164.513 171.911 161.405C171.813 158.919 168.806 157.301 167.315 156.803C167.826 156.4 168.512 155.453 168.524 154.105C168.531 153.374 168.34 152.526 167.816 151.582C167.349 150.74 166.723 150.104 166.041 149.628C164.549 148.588 162.791 148.319 161.852 148.346C162.639 148.14 163.742 147.105 161.855 144.617C159.967 142.13 156.429 141.423 154.896 141.381C147.022 143.033 129.432 149.319 122.065 161.248C116.975 169.488 113.32 175.766 111.131 179.657C110.151 181.399 109.465 182.663 109.075 183.411C109.17 188.285 112.341 198.782 124.272 201.773C139.186 205.512 145.035 196.442 144.042 194.701C143.247 193.308 144.21 192.132 144.79 191.718L149.153 174.691L151.248 175.062C151.254 175.063 151.26 175.064 151.266 175.065Z" fill="#FFB3A1"/>
<path d="M171.335 267.81C166.664 264.128 164.644 262.106 165 261.467C162.142 260.429 156.301 257.98 155.805 256.488C155.555 258.809 156.918 264.768 164.372 270.043C171.826 275.319 182.472 279.295 186.864 280.624L189.736 275.851C184.589 274.323 175.562 271.143 171.335 267.81Z" fill="black"/>
<path d="M213.756 130.804L200.833 124.581C200.719 124.808 200.402 125.021 200.254 125.35C199.843 126.266 199.35 127.5 199.051 128.623L203.962 131.138L210.749 134.615C212.074 133.37 213.259 131.842 213.756 130.804Z" fill="white"/>
<path d="M186.98 123.999C188.845 123.876 194.063 126.614 194.684 127.236C194.979 127.531 195.611 126.644 196.215 125.562C196.218 125.556 196.222 125.55 196.225 125.544C195.577 126.288 189.446 122.736 186.609 120.891L184.083 119.439C183.904 119.701 183.749 119.942 183.626 120.143C183.338 121.117 183.161 123.465 184.758 125.064C185.306 124.549 186.074 124.059 186.98 123.999Z" fill="#FFBCA7"/>
<path d="M192.637 112.642L190.771 115.003C191.393 115.031 197.922 117.58 197.263 123.391C198.573 123.829 200.833 124.581 200.833 124.581C200.833 124.581 202.999 122.364 204.813 121.849C208.804 120.714 213.029 124.22 213.688 126.584C214.348 128.948 213.756 130.804 213.756 130.804L219.101 130.435L222.46 127.081C218.608 125.628 210.078 121.996 206.778 119.09C203.479 116.184 195.976 113.58 192.637 112.642Z" fill="#FFBCA7"/>
<path d="M222.992 173.745L227.979 153.859C228.658 151.149 230.266 143.375 229.674 135.273C229.196 135.419 228.291 135.462 228.49 134.468C228.74 133.225 228.617 131.112 226.877 130.862C225.485 130.662 224.389 132.683 224.016 133.719C222.524 133.801 219.342 133.865 218.546 133.467C217.751 133.069 218.645 131.305 219.101 130.435L213.756 130.804C213.259 131.842 212.074 133.37 210.749 134.615C209.641 135.654 208.308 136.444 206.86 136.443C202.882 136.44 198.658 132.211 198.784 130.098C198.81 129.661 198.909 129.154 199.051 128.623C199.35 127.5 199.843 126.266 200.254 125.35C200.402 125.021 200.719 124.808 200.833 124.581C200.833 124.581 198.573 123.829 197.263 123.391C196.897 124.695 196.628 124.821 196.215 125.562C195.611 126.644 194.979 127.531 194.684 127.236C194.063 126.614 188.845 123.876 186.98 123.999C186.074 124.059 185.306 124.549 184.758 125.064C183.161 123.465 183.338 121.117 183.626 120.143C173.81 115.786 166.67 122.692 164.23 126.346C161.841 129.924 157.012 137.86 154.896 141.381C156.429 141.423 159.967 142.13 161.855 144.617C163.742 147.105 162.639 148.14 161.852 148.346C162.791 148.319 164.549 148.588 166.041 149.628C166.723 150.104 167.349 150.74 167.816 151.582C168.34 152.526 168.531 153.374 168.524 154.105C168.512 155.453 167.826 156.4 167.315 156.803C168.806 157.301 171.813 158.919 171.911 161.405C172.033 164.513 170.289 169.235 167.057 170.228C163.824 171.22 161.213 171.342 161.09 169.726L158.478 171.838C161.588 176.084 163.42 179.556 164.433 182.288C165.912 186.275 165.644 188.684 165.053 189.618C167.541 186.935 171.229 186.68 172.762 186.888C171.819 186.341 174.806 186.313 179.321 186.27C186.102 186.206 196.328 186.109 201.852 184.173C204.192 183.352 206.178 182.805 207.973 182.31C213.239 180.859 216.869 179.859 222.992 173.745Z" fill="#FFBCA7"/>
<path d="M190.771 115.003C189.996 114.967 188.28 114.453 186.985 116.541C189.562 118.541 195.225 122.712 197.263 123.391C197.922 117.58 191.393 115.031 190.771 115.003Z" fill="#FFBCA7"/>
<path d="M186.609 120.891C189.446 122.736 195.577 126.288 196.225 125.544L196.215 125.562C196.628 124.821 196.897 124.695 197.263 123.391C195.225 122.712 189.562 118.541 186.985 116.541C186.079 116.785 184.859 118.302 184.083 119.439L186.609 120.891Z" fill="white"/>
<path d="M200.989 279.487C197.293 279.101 194.522 278.121 192.81 277.257L189.971 281.496L197.132 284.711C198.812 282.724 200.127 280.882 200.989 279.487Z" fill="black"/>
<path d="M222.992 173.745C224.238 168.773 226.981 157.836 227.979 153.859M222.992 173.745C223.322 175.817 223.733 180.209 222.737 181.203M222.992 173.745L227.979 153.859M222.992 173.745C216.869 179.859 213.239 180.859 207.973 182.31C206.178 182.805 204.192 183.352 201.852 184.173C196.328 186.109 186.102 186.206 179.321 186.27C174.806 186.313 171.819 186.341 172.762 186.888M227.979 153.859C228.658 151.149 230.266 143.375 229.674 135.273M222.737 181.203C226.05 184.769 231.701 196.996 227.807 217.379C224.124 236.662 224.796 238.932 225.232 240.404C225.372 240.877 225.488 241.268 225.427 242.115C225.385 242.693 225.36 243.619 225.329 244.783C225.172 250.624 224.854 262.478 221.431 266.725C221.161 267.06 220.883 267.408 220.597 267.766M222.737 181.203C213.533 188.407 190.875 201.742 173.873 197.455C174.29 194.389 174.651 187.983 172.762 186.888M165 261.467C164.644 262.106 166.664 264.128 171.335 267.81C175.562 271.143 184.589 274.323 189.736 275.851M165 261.467C165.622 260.348 169.028 260.723 170.221 261.719M165 261.467C162.142 260.429 156.301 257.98 155.805 256.488M155.805 256.488C155.566 255.769 155.641 255.18 155.709 254.641C155.818 253.783 155.911 253.054 154.689 252.137C153.099 250.943 150.05 249.814 148.725 249.398L149.597 247.037M155.805 256.488C155.555 258.809 156.918 264.768 164.372 270.043C171.826 275.319 182.472 279.295 186.864 280.624M149.597 247.037L155.563 248.035M149.597 247.037C144.46 245.045 133.64 241.557 131.451 243.545C130.011 244.851 127.85 244.61 125.438 244.34C123.264 244.097 120.886 243.832 118.646 244.655C117.499 245.077 116.433 245.506 115.454 245.899C114.218 246.397 113.122 246.838 112.18 247.137M155.563 248.035C155.686 248.989 156.381 251.094 158.17 251.891C159.96 252.687 162.81 252.64 164.012 252.516M155.563 248.035L159.913 248.411C161.241 246.009 164.27 239.439 165.767 232.38C167.639 223.555 160.436 213.357 159.442 213.605C158.646 213.804 155.713 212.774 154.346 212.235M164.012 252.516L168.366 248.914M164.012 252.516C165.503 253.346 169.082 254.409 171.471 252.024C171.787 251.708 172.157 251.38 172.563 251.021C175.996 247.979 182.003 242.657 179.572 223.314C178.551 215.191 176.154 210.968 173.49 209.016M165.039 208.761L169.261 214.73M165.039 208.761C163.009 208.47 158.625 208.16 157.332 209.253C156.038 210.346 154.802 211.696 154.346 212.235M165.039 208.761C167.129 207.509 170.48 206.811 173.49 209.016M154.346 212.235L145.521 211.856M173.49 209.016C185.014 203.554 209.154 193.127 213.528 195.119M172.762 186.888C171.229 186.68 167.541 186.935 165.053 189.618M165.053 189.618C165.644 188.684 165.912 186.275 164.433 182.288M165.053 189.618C164.044 190.706 162.944 192.147 161.738 193.725C159.228 197.012 156.266 200.891 152.737 203.408C148.558 206.388 146.185 210.282 145.521 211.856M145.521 211.856C143.318 211.677 140.503 211.634 137.396 211.771M106.35 231.346C105.977 231.885 104.857 232.887 103.366 232.587C101.501 232.213 101.009 226.246 110.337 218.918C113.959 216.073 119.652 214.216 125.619 213.098M106.35 231.346C104.649 234.121 102.491 238.926 105.099 241.538C106.761 243.202 107.963 241.941 109.066 240.783C109.365 240.47 109.657 240.164 109.948 239.926M106.35 231.346C107.76 229.275 111.128 225.184 113.316 225.384M109.948 239.926C108.206 243.405 107.88 246.463 109.073 247.259C109.745 247.708 110.796 247.576 112.18 247.137M109.948 239.926C111.856 237.855 116.144 233.739 118.033 233.84M158.478 171.838C156.406 172.997 152.062 175.265 151.266 175.065M158.478 171.838C161.588 176.084 163.42 179.556 164.433 182.288M158.478 171.838L161.09 169.726M151.266 175.065C151.26 175.064 151.254 175.063 151.248 175.062M151.266 175.065L151.248 175.062M164.433 182.288C162.977 181.447 160.912 183.099 158.988 184.638C157.786 185.598 156.64 186.515 155.733 186.753C153.385 187.369 150.31 174.968 151.248 175.062M144.79 191.718L149.153 174.691L151.248 175.062M144.79 191.718C145.908 193.086 147.67 196.443 145.779 198.928C143.888 201.413 139.021 204.932 136.823 206.381L143.041 203.153C142.874 204.562 141.994 207.776 139.805 209.366C137.616 210.956 137.287 211.632 137.396 211.771M144.79 191.718C144.21 192.132 143.247 193.308 144.042 194.701C145.035 196.442 139.186 205.512 124.272 201.773C112.341 198.782 109.17 188.285 109.075 183.411C109.465 182.663 110.151 181.399 111.131 179.657M137.396 211.771C133.705 211.934 129.601 212.352 125.619 213.098M192.637 112.642L188.854 110.948C194.576 106.228 209.989 107.233 221.791 117.061C227.157 121.53 229.181 128.516 229.674 135.273M192.637 112.642L190.771 115.003M192.637 112.642C195.976 113.58 203.479 116.184 206.778 119.09C210.078 121.996 218.608 125.628 222.46 127.081L219.101 130.435M190.771 115.003C189.996 114.967 188.28 114.453 186.985 116.541M190.771 115.003C191.393 115.031 197.922 117.58 197.263 123.391M186.985 116.541C186.079 116.785 184.859 118.302 184.083 119.439M186.985 116.541C189.562 118.541 195.225 122.712 197.263 123.391M183.626 120.143C173.81 115.786 166.67 122.692 164.23 126.346C161.841 129.924 157.012 137.86 154.896 141.381M183.626 120.143C183.749 119.942 183.904 119.701 184.083 119.439M183.626 120.143C183.338 121.117 183.161 123.465 184.758 125.064M154.896 141.381C156.429 141.423 159.967 142.13 161.855 144.617C163.742 147.105 162.639 148.14 161.852 148.346C162.791 148.319 164.549 148.588 166.041 149.628M154.896 141.381C147.022 143.033 129.432 149.319 122.065 161.248C116.975 169.488 113.32 175.766 111.131 179.657M161.09 169.726C161.213 171.342 163.824 171.22 167.057 170.228C170.289 169.235 172.033 164.513 171.911 161.405C171.813 158.919 168.806 157.301 167.315 156.803C167.826 156.4 168.512 155.453 168.524 154.105M161.09 169.726C160.967 168.11 165.444 165.876 166.811 166.498M111.131 179.657L108.875 178.394C106.778 179.925 103.904 183.903 105.059 189.657M107.619 195.796C106.233 193.578 105.434 191.524 105.059 189.657M105.059 189.657C103.758 191.619 101.976 196.314 105.255 199.399M105.255 199.399C105.504 200.507 106.016 202.14 106.863 204.004M105.255 199.399C106.113 200.206 106.905 201.112 107.746 202.075C110.922 205.711 114.8 210.152 125.619 213.098M125.619 213.098C110.99 215.84 108.549 207.715 106.863 204.004M106.863 204.004C102.39 203.668 82.3731 212.312 67.4368 238.655M67.4368 238.655C69.3437 237.579 74.3236 238.386 78.9887 250.223C83.8619 262.588 86.7424 269.656 89.4437 271.646M67.4368 238.655C63.1701 237.202 53.2677 236.308 47.7923 244.36L78.473 275.083M220.594 267.77C216.542 272.849 210.935 279.878 203.273 279.64C202.477 279.616 201.715 279.563 200.989 279.487M220.594 267.77L220.597 267.766M220.594 267.77C220.595 267.769 220.596 267.767 220.597 267.766M197.263 123.391C198.573 123.829 200.833 124.581 200.833 124.581M197.263 123.391C196.897 124.695 196.628 124.821 196.215 125.562M200.833 124.581C200.833 124.581 202.999 122.364 204.813 121.849C208.804 120.714 213.029 124.22 213.688 126.584C214.348 128.948 213.756 130.804 213.756 130.804M200.833 124.581L213.756 130.804M200.833 124.581C200.719 124.808 200.402 125.021 200.254 125.35C199.843 126.266 199.35 127.5 199.051 128.623M213.756 130.804C213.259 131.842 212.074 133.37 210.749 134.615M213.756 130.804L219.101 130.435M199.051 128.623C198.909 129.154 198.81 129.661 198.784 130.098C198.658 132.211 202.882 136.44 206.86 136.443C208.308 136.444 209.641 135.654 210.749 134.615M199.051 128.623L203.962 131.138L210.749 134.615M196.225 125.544C195.577 126.288 189.446 122.736 186.609 120.891L184.083 119.439M196.225 125.544C196.222 125.55 196.218 125.556 196.215 125.562M196.225 125.544L196.215 125.562M219.101 130.435C218.645 131.305 217.751 133.069 218.546 133.467C219.342 133.865 222.524 133.801 224.016 133.719C224.389 132.683 225.485 130.662 226.877 130.862C228.617 131.112 228.74 133.225 228.49 134.468C228.291 135.462 229.196 135.419 229.674 135.273M193.808 135.812C193.435 136.102 191.595 136.283 187.221 134.689C182.846 133.095 183.248 128.223 183.995 125.986C184.142 125.742 184.404 125.398 184.758 125.064M179.888 132.323L179.389 134.809M179.389 134.809C183.863 136.635 193.431 140.909 195.915 143.396M179.389 134.809L175.536 134.433L175.281 142.388C172.233 142.369 166.116 143.79 166.041 149.628M166.041 149.628C166.723 150.104 167.349 150.74 167.816 151.582C168.34 152.526 168.531 153.374 168.524 154.105M168.524 154.105C170.11 155.42 174.251 157.18 178.132 153.702C178.172 156.313 179.369 161.659 183.844 162.159C188.318 162.659 191.181 158.393 192.052 156.197M91.03 272.233C93.6156 272.234 106.208 255.503 112.18 247.137M91.03 272.233L97.3665 276.339L97.7375 278.95L100.594 281.81L102.833 280.569C108.218 292.818 119.261 316.17 122.395 316.414M91.03 272.233C90.5674 271.933 90.0311 271.744 89.4437 271.646M91.03 272.233C90.499 272.232 89.9748 272.037 89.4437 271.646M122.82 316.258C125.208 313.873 135.511 300.438 140.363 294.019L146.082 293.028C145.296 291.494 144.146 288.452 145.837 288.553C147.95 288.678 165.617 301.096 178.721 297.698C186.244 295.748 192.864 289.762 197.132 284.711M122.82 316.258L122.395 316.414M122.82 316.258C122.701 316.376 122.559 316.427 122.395 316.414M200.989 279.487C197.293 279.101 194.522 278.121 192.81 277.257M200.989 279.487C200.127 280.882 198.812 282.724 197.132 284.711M186.864 280.624L189.736 275.851M186.864 280.624L189.971 281.496M189.736 275.851C190.276 276.012 190.773 276.154 191.217 276.276C191.553 276.547 192.087 276.892 192.81 277.257M189.971 281.496L192.81 277.257M189.971 281.496L197.132 284.711M78.473 275.083L120.457 317.126L122.395 316.414M78.473 275.083C80.9259 273.55 86.0418 271.078 89.4437 271.646M184.758 125.064C185.306 124.549 186.074 124.059 186.98 123.999C188.845 123.876 194.063 126.614 194.684 127.236C194.979 127.531 195.611 126.644 196.215 125.562" stroke="black" stroke-width="0.260876" stroke-linecap="round"/>
<path d="M186.29 119.397C185.581 119.021 185.16 119.587 185.038 119.918L186.758 120.91C186.898 120.562 186.999 119.773 186.29 119.397Z" fill="black" stroke="black" stroke-width="0.521751" stroke-linecap="round"/>
<path d="M202.018 128.749C201.309 128.373 200.888 128.939 200.766 129.269L202.486 130.261C202.625 129.914 202.727 129.125 202.018 128.749Z" fill="black" stroke="black" stroke-width="0.521751" stroke-linecap="round"/>
</g>
<path d="M115.083 117.819C114.949 117.935 114.811 118.042 114.67 118.141C114.533 118.244 114.4 118.348 114.271 118.452C113.975 118.345 113.71 118.23 113.476 118.107C113.239 117.98 112.984 117.83 112.714 117.656C112.646 117.699 112.484 117.827 112.23 118.039C111.979 118.247 111.682 118.497 111.336 118.787C110.991 119.077 110.645 119.372 110.299 119.67C109.949 119.964 109.64 120.226 109.372 120.458C109.104 120.681 108.925 120.832 108.834 120.91C108.944 121.222 109.032 121.485 109.097 121.701C109.167 121.913 109.267 122.195 109.399 122.549C109.315 122.644 109.222 122.743 109.122 122.845C109.025 122.943 108.906 123.053 108.763 123.177C108.707 123.225 108.572 123.326 108.358 123.481C108.148 123.631 107.894 123.809 107.595 124.013C107.297 124.218 106.989 124.43 106.673 124.65C106.358 124.869 106.065 125.072 105.796 125.259C105.528 125.437 105.319 125.58 105.169 125.686C105.046 125.211 104.688 123.921 104.095 121.816C103.498 119.706 102.668 116.818 101.603 113.151C102.227 112.553 102.896 111.886 103.61 111.149C104.326 110.405 105.103 109.671 105.942 108.947C106.146 108.772 106.352 108.605 106.563 108.446C106.777 108.284 106.999 108.157 107.229 108.064C107.248 108.078 107.437 108.175 107.796 108.356C108.16 108.532 108.637 108.766 109.227 109.057C109.821 109.344 110.483 109.666 111.214 110.024C111.941 110.378 112.686 110.743 113.447 111.119C114.21 111.488 114.943 111.844 115.646 112.187C116.346 112.527 116.962 112.826 117.493 113.084C117.82 113.262 118.106 113.396 118.35 113.487C118.595 113.57 118.819 113.66 119.023 113.756C118.282 114.523 117.674 115.156 117.199 115.656C116.726 116.147 116.351 116.534 116.074 116.818C115.798 117.101 115.595 117.311 115.463 117.447C115.331 117.583 115.24 117.673 115.188 117.718C115.144 117.763 115.109 117.797 115.083 117.819ZM107.754 117.689L109.812 115.916C109.239 115.558 108.656 115.197 108.063 114.833C107.475 114.465 106.852 114.052 106.193 113.595C106.617 114.594 106.943 115.418 107.17 116.066C107.402 116.711 107.596 117.252 107.754 117.689Z" fill="black"/>
<path d="M137.578 103.511L135.691 103.171C135.237 103.084 134.725 102.98 134.154 102.86C133.586 102.732 133.015 102.606 132.442 102.481C131.871 102.348 131.354 102.224 130.891 102.11C130.425 101.99 130.073 101.892 129.835 101.816C129.997 102.118 130.184 102.478 130.397 102.895C130.613 103.305 130.821 103.708 131.023 104.106C131.225 104.503 131.398 104.842 131.541 105.122C131.681 105.397 131.762 105.554 131.784 105.594L131.801 105.624C131.712 105.687 131.51 105.829 131.195 106.05C130.878 106.267 130.502 106.525 130.068 106.826C129.639 107.124 129.198 107.429 128.744 107.741C128.29 108.053 127.871 108.333 127.485 108.58C127.108 108.83 126.82 109.01 126.62 109.122C126.468 108.932 126.32 108.73 126.175 108.516C126.027 108.298 125.883 108.064 125.744 107.815L123.233 102.977C122.825 102.151 122.455 101.406 122.123 100.741C121.794 100.068 121.488 99.4794 121.207 98.9756C121.107 98.796 121.019 98.6619 120.944 98.5732C121.014 98.4755 121.172 98.3252 121.418 98.1223C121.662 97.9144 121.958 97.6774 122.307 97.4111C122.655 97.1448 123.022 96.8752 123.406 96.6022C123.787 96.3242 124.153 96.0712 124.503 95.8432C124.855 95.6074 125.154 95.4214 125.398 95.2851C125.523 95.2155 125.646 95.1498 125.769 95.0881C125.889 95.0213 126.008 94.9546 126.128 94.8878C126.28 95.0778 126.425 95.2848 126.563 95.5087C126.706 95.7298 126.851 95.9726 126.998 96.237C127.25 96.7702 127.491 97.2669 127.721 97.727C127.957 98.1843 128.189 98.6366 128.419 99.084L129.338 93.4314L129.507 92.5915L132.654 92.0432L135.934 91.3814L135.926 91.3664C135.934 91.3686 135.941 91.3708 135.949 91.373C135.962 91.3725 135.968 91.3722 135.968 91.3722L135.934 91.3814L135.963 91.4338L135.572 92.9664L134.29 97.5268L141.343 98.6357L138.146 102.665L137.578 103.511Z" fill="black"/>
<path d="M153.791 96.137C153.625 96.1991 153.459 96.2522 153.292 96.2962C153.128 96.3457 152.967 96.3967 152.81 96.4495C152.569 96.2469 152.361 96.0476 152.183 95.8517C152.004 95.6504 151.818 95.4214 151.624 95.1646C151.545 95.182 151.35 95.2461 151.038 95.357C150.731 95.4658 150.365 95.5967 149.94 95.7497C149.516 95.9026 149.09 96.0593 148.662 96.2196C148.232 96.3745 147.851 96.5141 147.52 96.6383C147.191 96.7552 146.971 96.8347 146.859 96.8768C146.855 97.2077 146.846 97.4854 146.832 97.71C146.824 97.9326 146.821 98.2328 146.822 98.6105C146.71 98.6706 146.59 98.7311 146.46 98.7919C146.336 98.8507 146.185 98.9131 146.009 98.9792C145.939 99.0053 145.777 99.0537 145.523 99.1245C145.275 99.1933 144.975 99.272 144.624 99.3608C144.273 99.4496 143.911 99.5424 143.539 99.6393C143.166 99.7361 142.822 99.8255 142.505 99.9077C142.191 99.9824 141.946 100.044 141.769 100.092C141.818 99.6039 141.928 98.2697 142.099 96.0891C142.268 93.9032 142.487 90.9058 142.756 87.0968C143.547 86.7514 144.406 86.3566 145.331 85.9124C146.26 85.4608 147.243 85.0406 148.28 84.6519C148.532 84.5577 148.784 84.4726 149.036 84.3964C149.293 84.3183 149.545 84.2756 149.793 84.2683C149.806 84.2877 149.95 84.4442 150.225 84.7377C150.505 85.0293 150.871 85.4135 151.324 85.8902C151.783 86.365 152.293 86.8966 152.855 87.4851C153.415 88.0682 153.987 88.668 154.572 89.2845C155.16 89.8937 155.725 90.4812 156.266 91.0469C156.805 91.6072 157.28 92.1004 157.69 92.5264C157.935 92.8065 158.156 93.0316 158.354 93.2014C158.555 93.3639 158.735 93.5254 158.892 93.6859C157.932 94.1495 157.142 94.5337 156.525 94.8383C155.91 95.1356 155.424 95.3694 155.067 95.5397C154.71 95.7101 154.447 95.8364 154.276 95.9185C154.106 96.0007 153.988 96.0538 153.924 96.0778C153.867 96.1052 153.823 96.1249 153.791 96.137ZM146.959 93.4815L149.502 92.5288C149.089 91.9945 148.667 91.4542 148.236 90.9079C147.811 90.3596 147.369 89.7569 146.909 89.0996C146.962 90.1839 146.982 91.0696 146.972 91.7568C146.966 92.442 146.962 93.0169 146.959 93.4815Z" fill="black"/>
<path d="M173.53 91.4559L171.829 90.57C171.422 90.3521 170.963 90.1011 170.454 89.817C169.95 89.5262 169.442 89.2359 168.932 88.9462C168.426 88.6498 167.969 88.378 167.561 88.131C167.152 87.8785 166.845 87.6803 166.64 87.5367C166.705 87.8733 166.777 88.2725 166.857 88.7343C166.94 89.1894 167.02 89.6367 167.095 90.0763C167.169 90.5158 167.234 90.8904 167.287 91.2002C167.339 91.5044 167.37 91.6788 167.379 91.7235L167.386 91.7571C167.283 91.7906 167.047 91.8662 166.681 91.984C166.314 92.0962 165.878 92.2315 165.374 92.3898C164.876 92.5469 164.364 92.707 163.838 92.87C163.312 93.033 162.829 93.1755 162.387 93.2974C161.953 93.4236 161.624 93.5103 161.4 93.5572C161.312 93.3307 161.23 93.094 161.155 92.8472C161.078 92.5947 161.011 92.3288 160.952 92.0493L159.991 86.6833C159.847 85.774 159.715 84.9525 159.596 84.2188C159.482 83.4784 159.365 82.8259 159.246 82.2613C159.204 82.0601 159.16 81.9059 159.114 81.7988C159.21 81.7262 159.405 81.6297 159.701 81.5092C159.996 81.3832 160.349 81.2448 160.761 81.0941C161.173 80.9433 161.602 80.7947 162.05 80.6481C162.497 80.4959 162.921 80.363 163.323 80.2494C163.73 80.129 164.07 80.04 164.344 79.9825C164.484 79.9531 164.621 79.9271 164.757 79.9045C164.891 79.8764 165.025 79.8482 165.159 79.82C165.248 80.0466 165.324 80.2872 165.39 80.542C165.46 80.7956 165.527 81.0705 165.589 81.3668C165.671 81.9507 165.753 82.4966 165.837 83.0043C165.926 83.5109 166.013 84.0119 166.1 84.5073L168.657 79.383L169.068 78.6314L172.236 79.0427L175.564 79.3854L175.561 79.3686C175.568 79.373 175.574 79.3774 175.581 79.3818C175.593 79.3851 175.6 79.3867 175.6 79.3867L175.564 79.3854L175.577 79.444L174.748 80.7912L172.168 84.7647L178.574 87.919L174.324 90.8165L173.53 91.4559Z" fill="black"/>
<path d="M195.144 89.3379C194.224 89.3506 193.309 89.2976 192.4 89.1788C191.49 89.0657 190.63 88.8691 189.821 88.589C189.012 88.3032 188.292 87.919 187.663 87.4365C187.034 86.9482 186.537 86.3467 186.173 85.632C185.809 84.9116 185.62 84.0574 185.606 83.0694C185.593 82.1385 185.748 81.3281 186.069 80.6382C186.397 79.9425 186.851 79.3507 187.433 78.8629C188.014 78.3693 188.686 77.963 189.447 77.644C190.208 77.3193 191.021 77.0653 191.887 76.882C192.758 76.6986 193.639 76.5636 194.529 76.477C194.985 76.4364 195.436 76.413 195.881 76.4069C196.167 76.4029 196.447 76.4076 196.721 76.421C197.001 76.4285 197.273 76.4448 197.536 76.4697L197.59 80.376C197.247 80.3351 196.884 80.303 196.501 80.2797C196.117 80.2565 195.715 80.2477 195.292 80.2536C194.698 80.2618 194.165 80.3549 193.694 80.5327C193.222 80.7106 192.852 80.9928 192.583 81.3792C192.32 81.7599 192.193 82.27 192.201 82.9096C192.211 83.6178 192.35 84.1785 192.619 84.5918C192.893 85.005 193.263 85.2998 193.728 85.4761C194.199 85.6467 194.728 85.7365 195.317 85.7455C195.596 85.7416 195.956 85.7052 196.395 85.6363C196.839 85.5673 197.261 85.4929 197.66 85.4132L197.712 89.1739C197.25 89.2317 196.796 89.2722 196.351 89.2955C195.912 89.3187 195.509 89.3329 195.144 89.3379Z" fill="black"/>
<path d="M212.135 90.4735C211.309 90.361 210.462 90.1852 209.596 89.9462C208.735 89.7079 207.916 89.3946 207.138 89.0064C206.361 88.6181 205.68 88.142 205.093 87.578C204.513 87.0148 204.078 86.3533 203.79 85.5935C203.508 84.8288 203.434 83.9512 203.569 82.9608C203.695 82.0327 203.984 81.2477 204.434 80.6058C204.886 79.9582 205.442 79.4287 206.103 79.0172C206.765 78.6001 207.478 78.2792 208.24 78.0544C209.004 77.824 209.766 77.6655 210.527 77.5789C211.288 77.4923 211.994 77.4558 212.643 77.4693C213.299 77.4779 213.839 77.511 214.264 77.5688C215.164 77.6913 216.07 77.8724 216.983 78.1119C217.895 78.3514 218.758 78.6648 219.57 79.052C220.382 79.4336 221.091 79.9047 221.694 80.4653C222.298 81.026 222.747 81.6894 223.04 82.4557C223.335 83.2163 223.414 84.0946 223.278 85.0906C223.13 86.1772 222.794 87.0797 222.27 87.798C221.745 88.5163 221.094 89.0877 220.316 89.512C219.538 89.9307 218.685 90.2296 217.755 90.4085C216.827 90.5819 215.879 90.6661 214.911 90.6611C213.949 90.657 213.024 90.5944 212.135 90.4735ZM213.012 87.0824C213.995 87.1874 214.79 87.0189 215.398 86.5771C216.006 86.1297 216.385 85.3598 216.534 84.2675C216.629 83.5658 216.577 82.9995 216.376 82.5687C216.182 82.1329 215.872 81.8026 215.447 81.5776C215.023 81.347 214.514 81.1912 213.92 81.1103C212.964 80.9801 212.17 81.1343 211.54 81.5731C210.909 82.0118 210.525 82.7377 210.387 83.7507C210.242 84.8147 210.41 85.6128 210.891 86.1452C211.379 86.6727 212.085 86.9851 213.012 87.0824Z" fill="black"/>
<path d="M229.368 93.947C228.463 93.6847 227.599 93.3928 226.777 93.0712C225.952 92.7551 225.311 92.4562 224.851 92.1744L225.752 89.1262C226.106 89.2586 226.447 89.3842 226.776 89.5031C227.104 89.622 227.416 89.7243 227.712 89.8102C228.31 89.9834 228.812 90.0574 229.218 90.0323C229.624 90.0071 229.881 89.8052 229.991 89.4267C230.066 89.1689 230.049 88.9083 229.941 88.6451C229.838 88.3835 229.576 88.1915 229.153 88.0691L227.343 87.5446L228.12 85.2009L229.453 85.5871C230.018 85.7508 230.421 85.7456 230.662 85.5716C230.91 85.3936 231.073 85.1675 231.153 84.8932C231.275 84.4708 231.149 84.1369 230.774 83.8915C230.406 83.6422 229.932 83.4333 229.35 83.2648C229.059 83.1806 228.752 83.1006 228.43 83.0249C228.107 82.9492 227.79 82.8723 227.48 82.7942L228.197 80.3173C228.889 80.4344 229.581 80.5696 230.274 80.7228C230.967 80.876 231.637 81.0464 232.284 81.2339C234.369 81.8379 235.91 82.543 236.907 83.3493C237.912 84.1517 238.243 85.1426 237.901 86.3221C237.738 86.8872 237.499 87.3205 237.186 87.6222C236.878 87.9255 236.532 88.1254 236.147 88.2221C235.769 88.3148 235.393 88.3307 235.018 88.2697C235.668 88.571 236.152 89.0145 236.47 89.6002C236.795 90.1819 236.837 90.887 236.597 91.7154C236.448 92.2311 236.207 92.7025 235.876 93.1296C235.545 93.5513 235.098 93.8827 234.535 94.1238C233.972 94.3649 233.266 94.4815 232.418 94.4737C231.57 94.4659 230.553 94.2903 229.368 93.947Z" fill="black"/>
<path d="M236.345 99.5487L239.628 93.6372L239.874 93.1845L240.017 93.1184C240.128 93.1506 240.33 93.2245 240.623 93.3401C240.923 93.4529 241.27 93.5872 241.663 93.743C242.057 93.8988 242.458 94.0645 242.868 94.2402L247.705 87.5532L248.088 86.9465L248.231 86.8805L253.161 89.0803L260.384 92.4011C260.372 92.427 260.299 92.5662 260.164 92.8185C260.035 93.0732 259.866 93.3982 259.659 93.7934C259.455 94.1834 259.235 94.6008 258.999 95.0456C258.768 95.4927 258.542 95.9231 258.321 96.3367C258.107 96.7475 257.92 97.105 257.762 97.4093C257.61 97.7107 257.512 97.9107 257.467 98.0093C257.441 98.0664 257.412 98.1222 257.38 98.1769C257.357 98.2288 257.31 98.3237 257.24 98.4614C257.173 98.5939 257.066 98.8057 256.92 99.0967C256.776 99.3826 256.572 99.7918 256.308 100.324C256.713 100.51 257.092 100.685 257.445 100.847L254.114 107.538L248.628 104.95L250.307 101.545L243.893 98.596L241.784 101.87L236.345 99.5487ZM251.143 91.8491L247.89 96.4639C248.476 96.7335 249.052 96.9983 249.618 97.2583C250.189 97.5207 250.752 97.7795 251.307 98.0348C251.567 97.5509 251.837 97.0527 252.117 96.54C252.397 96.0274 252.662 95.5395 252.912 95.0764C253.171 94.6105 253.394 94.207 253.582 93.8661C253.77 93.5251 253.902 93.287 253.976 93.1516L251.143 91.8491Z" fill="black"/>
<path d="M268.639 112.603C268.492 112.504 268.352 112.399 268.22 112.289C268.084 112.184 267.95 112.083 267.815 111.985C267.841 111.672 267.882 111.386 267.939 111.128C267.999 110.866 268.078 110.581 268.175 110.274C268.115 110.22 267.949 110.098 267.678 109.908C267.411 109.721 267.092 109.499 266.722 109.242C266.351 108.984 265.976 108.728 265.597 108.472C265.222 108.212 264.887 107.983 264.594 107.784C264.308 107.585 264.116 107.451 264.016 107.384C263.744 107.573 263.513 107.727 263.322 107.846C263.136 107.968 262.89 108.14 262.583 108.36C262.469 108.304 262.35 108.24 262.225 108.17C262.105 108.103 261.967 108.016 261.811 107.911C261.749 107.869 261.616 107.766 261.411 107.6C261.211 107.437 260.973 107.238 260.697 107.004C260.421 106.769 260.136 106.529 259.841 106.281C259.546 106.034 259.273 105.805 259.023 105.595C258.78 105.382 258.588 105.218 258.446 105.102C258.872 104.859 260.022 104.175 261.898 103.05C263.777 101.92 266.346 100.36 269.605 98.3705C270.346 98.8152 271.165 99.2857 272.064 99.782C272.97 100.277 273.882 100.834 274.801 101.454C275.023 101.604 275.239 101.76 275.447 101.921C275.66 102.086 275.841 102.266 275.99 102.464C275.982 102.486 275.938 102.694 275.858 103.088C275.783 103.485 275.683 104.006 275.557 104.652C275.436 105.301 275.299 106.025 275.145 106.824C274.995 107.618 274.838 108.432 274.675 109.266C274.519 110.099 274.368 110.899 274.221 111.668C274.077 112.433 273.951 113.105 273.841 113.686C273.755 114.048 273.7 114.359 273.677 114.619C273.661 114.877 273.633 115.117 273.594 115.338C272.659 114.824 271.888 114.404 271.282 114.077C270.684 113.749 270.211 113.489 269.866 113.297C269.52 113.105 269.264 112.963 269.098 112.872C268.932 112.781 268.821 112.716 268.764 112.677C268.709 112.647 268.667 112.622 268.639 112.603ZM266.841 105.497L269.092 107.017C269.287 106.37 269.483 105.713 269.678 105.046C269.879 104.382 270.113 103.672 270.382 102.916C269.529 103.587 268.819 104.118 268.253 104.508C267.692 104.9 267.221 105.23 266.841 105.497Z" fill="black"/>
<path d="M277.786 119.718L277.754 119.689C277.87 119.563 277.993 119.428 278.124 119.284C278.259 119.145 278.433 118.967 278.645 118.751C278.858 118.535 279.138 118.253 279.486 117.906L281.895 115.419C282.367 114.936 282.766 114.528 283.095 114.194C283.427 113.855 283.794 113.487 284.196 113.088L280.741 109.935C280.803 109.875 280.928 109.76 281.114 109.59C281.304 109.416 281.521 109.216 281.766 108.99C282.014 108.769 282.259 108.552 282.5 108.338C282.745 108.129 282.952 107.958 283.119 107.825C283.624 108.255 284.209 108.762 284.875 109.346C285.544 109.926 286.254 110.546 287.003 111.207C287.761 111.868 288.526 112.539 289.297 113.219C290.072 113.904 290.82 114.567 291.54 115.209C292.265 115.855 292.925 116.446 293.519 116.98C293.701 117.146 293.88 117.314 294.058 117.484C294.235 117.653 294.4 117.812 294.552 117.958C294.366 118.12 294.105 118.338 293.77 118.613C293.438 118.882 293.095 119.153 292.739 119.424C292.388 119.69 292.082 119.898 291.822 120.048L288.525 117.039L287.239 118.371C286.942 118.671 286.588 119.029 286.179 119.444C285.773 119.855 285.353 120.276 284.92 120.708C284.491 121.144 284.092 121.553 283.721 121.933C283.35 122.314 283.047 122.625 282.811 122.866C282.58 123.103 282.462 123.224 282.458 123.228C282.387 123.171 282.196 123.032 281.887 122.812C281.582 122.587 281.22 122.319 280.801 122.006C280.387 121.698 279.968 121.385 279.546 121.069C279.119 120.757 278.744 120.477 278.422 120.229C278.103 119.984 277.891 119.814 277.786 119.718Z" fill="black"/>
<path d="M301.934 138.628C300.882 139.506 299.696 139.783 298.375 139.458C297.058 139.129 295.644 138.078 294.132 136.304L288.501 129.711L289.211 129.118C289.351 129.001 289.518 128.865 289.71 128.712C289.905 128.564 290.131 128.397 290.387 128.213C290.639 128.025 290.852 127.862 291.027 127.723C291.21 127.586 291.355 127.475 291.464 127.392L294.89 124.664L298.266 122.077L301.556 125.882C301.67 126.017 301.793 126.16 301.925 126.31C302.062 126.456 302.208 126.613 302.364 126.781L299.238 129.147L301.733 131.986C302.634 133.064 303.154 134.185 303.293 135.349C303.361 135.947 303.282 136.534 303.056 137.11C302.834 137.682 302.46 138.188 301.934 138.628ZM298.192 134.028C298.583 133.702 298.8 133.339 298.844 132.937C298.896 132.536 298.763 132.145 298.444 131.764L297.433 130.554L294.789 132.574C294.861 132.677 294.964 132.814 295.099 132.985C295.234 133.155 295.402 133.361 295.603 133.602C295.999 134.075 296.43 134.347 296.899 134.417C297.371 134.484 297.802 134.354 298.192 134.028Z" fill="black"/>
<path d="M307.415 157.492L308.559 156.871C308.73 156.778 309.034 156.626 309.471 156.414C309.912 156.208 310.411 155.973 310.97 155.708C311.531 155.449 312.092 155.19 312.653 154.931C313.222 154.674 313.728 154.445 314.171 154.243C314.614 154.042 314.925 153.902 315.104 153.825L312.921 149.804L305.582 153.164L303.187 149.2L303.105 149.05L302.619 148.046C303.07 147.801 303.578 147.532 304.14 147.24C304.711 146.95 305.267 146.67 305.81 146.402C305.866 146.372 305.935 146.337 306.018 146.299C306.101 146.26 306.17 146.226 306.225 146.196L310.143 144.255C310.563 144.059 311.005 143.855 311.468 143.643C311.936 143.427 312.499 143.184 313.157 142.911L313.625 142.696L313.779 142.729C313.862 142.833 313.999 143.038 314.191 143.344C314.386 143.654 314.605 144.016 314.849 144.43C315.1 144.845 315.351 145.265 315.6 145.688C315.853 146.117 316.079 146.504 316.28 146.85C316.483 147.201 316.631 147.462 316.724 147.633C317.321 148.732 317.844 149.696 318.293 150.524C318.746 151.357 319.161 152.123 319.54 152.82C319.927 153.52 320.308 154.217 320.684 154.91C321.06 155.602 321.47 156.358 321.914 157.176C321.889 157.19 321.747 157.257 321.488 157.378C321.231 157.504 320.902 157.664 320.5 157.856C320.102 158.046 319.676 158.248 319.22 158.463C318.768 158.682 318.329 158.892 317.904 159.09C317.486 159.29 317.123 159.465 316.813 159.613C316.512 159.764 316.313 159.865 316.218 159.917C316.158 159.95 316.096 159.98 316.033 160.008C315.973 160.04 315.857 160.097 315.686 160.177C315.518 160.262 315.249 160.395 314.879 160.576C314.512 160.762 313.997 161.022 313.334 161.356C312.673 161.695 311.811 162.137 310.748 162.682L308.699 159.553C308.5 159.246 308.273 158.894 308.02 158.499C307.769 158.109 307.567 157.773 307.415 157.492Z" fill="black"/>
<path d="M311.923 166.005C311.808 165.694 311.746 165.495 311.738 165.407C311.892 165.362 312.042 165.315 312.189 165.267C312.336 165.219 312.477 165.173 312.613 165.128L314.003 164.641C314.329 164.532 314.776 164.382 315.344 164.19C315.912 163.998 316.54 163.783 317.226 163.548C317.919 163.315 318.62 163.077 319.327 162.833C320.04 162.587 320.704 162.357 321.319 162.141C321.94 161.929 322.457 161.753 322.868 161.613C323.596 162.854 324.299 164.202 324.977 165.656C325.656 167.11 326.251 168.528 326.763 169.909C327.079 170.761 327.323 171.611 327.498 172.46C327.674 173.315 327.73 174.123 327.665 174.884C327.601 175.65 327.372 176.323 326.978 176.901C326.585 177.485 325.976 177.93 325.151 178.236C324.332 178.539 323.585 178.587 322.911 178.38C322.243 178.171 321.639 177.782 321.1 177.215C320.561 176.647 320.081 175.969 319.661 175.18C319.243 174.397 318.876 173.577 318.558 172.72C318.431 172.377 318.294 171.999 318.147 171.584C318.007 171.173 317.877 170.798 317.757 170.459C317.645 170.123 317.565 169.89 317.517 169.762L314.016 170.867C313.927 170.674 313.791 170.374 313.61 169.967C313.43 169.564 313.231 169.117 313.013 168.626C312.801 168.137 312.597 167.659 312.399 167.19C312.201 166.721 312.042 166.326 311.923 166.005ZM320.797 170.575C321.111 171.421 321.453 171.992 321.824 172.287C322.203 172.585 322.595 172.659 323.002 172.508C323.329 172.387 323.538 172.219 323.628 172.003C323.724 171.784 323.748 171.544 323.699 171.282C323.658 171.023 323.591 170.768 323.498 170.516C323.466 170.43 323.401 170.272 323.303 170.04C323.205 169.808 323.094 169.557 322.969 169.286C322.847 169.021 322.731 168.784 322.623 168.574C322.517 168.37 322.44 168.243 322.391 168.194C321.787 168.357 321.302 168.5 320.933 168.624C320.571 168.747 320.36 168.819 320.301 168.84C320.445 169.494 320.611 170.072 320.797 170.575Z" fill="black"/>
<path d="M318.987 189.989C318.819 189.172 318.703 188.315 318.641 187.419C318.579 186.527 318.603 185.651 318.711 184.789C318.819 183.927 319.041 183.125 319.379 182.385C319.717 181.651 320.196 181.021 320.817 180.497C321.445 179.976 322.248 179.615 323.227 179.413C324.144 179.224 324.981 179.236 325.736 179.447C326.496 179.658 327.181 180.007 327.789 180.494C328.402 180.979 328.941 181.545 329.407 182.189C329.878 182.833 330.28 183.499 330.615 184.188C330.949 184.877 331.218 185.531 331.421 186.148C331.631 186.769 331.779 187.29 331.866 187.709C332.049 188.599 332.18 189.514 332.257 190.454C332.334 191.395 332.325 192.312 332.23 193.206C332.14 194.1 331.931 194.924 331.603 195.68C331.274 196.436 330.798 197.08 330.173 197.611C329.553 198.141 328.751 198.508 327.766 198.711C326.692 198.932 325.729 198.915 324.878 198.659C324.026 198.403 323.271 197.979 322.612 197.386C321.959 196.791 321.393 196.086 320.916 195.268C320.444 194.45 320.049 193.584 319.732 192.67C319.417 191.761 319.168 190.867 318.987 189.989ZM322.477 189.689C322.704 190.651 323.127 191.345 323.746 191.772C324.37 192.197 325.222 192.298 326.302 192.076C326.995 191.933 327.512 191.695 327.852 191.363C328.198 191.035 328.407 190.633 328.478 190.157C328.555 189.681 328.532 189.149 328.411 188.562C328.216 187.616 327.807 186.919 327.184 186.47C326.561 186.022 325.749 185.9 324.747 186.107C323.696 186.324 322.999 186.747 322.656 187.378C322.321 188.013 322.261 188.783 322.477 189.689Z" fill="black"/>
<path d="M322.049 216.973C322.019 216.294 321.989 215.686 321.96 215.15C321.931 214.619 321.905 214.086 321.882 213.55C321.853 213.013 321.82 212.398 321.783 211.702C321.762 211.308 321.742 210.837 321.724 210.289C321.706 209.747 321.689 209.17 321.674 208.559C321.652 207.954 321.638 207.36 321.629 206.777C321.615 206.2 321.604 205.671 321.595 205.191C321.581 204.717 321.572 204.337 321.568 204.052C321.564 203.771 321.563 203.631 321.563 203.631L321.427 201.914C321.427 201.914 321.596 201.914 321.933 201.913C322.276 201.911 322.734 201.91 323.306 201.907C323.878 201.905 324.521 201.902 325.236 201.898C325.956 201.893 326.699 201.888 327.466 201.881C328.238 201.879 328.984 201.876 329.704 201.872C330.431 201.867 331.088 201.86 331.677 201.851C332.266 201.848 332.74 201.845 333.1 201.843C333.466 201.841 333.664 201.839 333.692 201.837C333.708 202.025 333.719 202.173 333.725 202.281C333.736 202.389 333.745 202.506 333.752 202.632C333.765 202.757 333.783 202.939 333.807 203.178L334.104 208.679L334.571 214.814C334.586 215.082 334.595 215.364 334.6 215.662C334.61 215.958 334.594 216.237 334.55 216.497L331.392 216.315C331.227 215.168 331.103 213.874 331.02 212.431C330.936 210.994 330.85 209.543 330.759 208.078C330.576 208.065 330.367 208.059 330.132 208.06C329.898 208.067 329.629 208.065 329.325 208.052C329.377 208.799 329.421 209.52 329.459 210.216C329.502 210.911 329.538 211.519 329.566 212.038C329.571 212.14 329.574 212.246 329.574 212.355C329.58 212.463 329.586 212.574 329.592 212.688C329.598 212.802 329.607 212.916 329.619 213.03C329.631 213.144 329.648 213.257 329.672 213.37L329.603 213.374C329.461 213.382 329.217 213.378 328.873 213.362C328.529 213.346 328.167 213.32 327.788 213.283C327.414 213.252 327.103 213.208 326.854 213.153C326.848 213.136 326.831 212.983 326.804 212.693C326.782 212.402 326.75 211.846 326.705 211.025C326.695 210.825 326.683 210.606 326.67 210.366C326.663 210.132 326.652 209.878 326.637 209.604C326.624 209.353 326.61 209.102 326.597 208.851C326.583 208.6 326.567 208.347 326.547 208.09L324.771 208.092L325.255 217.074C324.673 217.106 324.202 217.12 323.842 217.116C323.487 217.118 323.204 217.111 322.991 217.093C322.779 217.076 322.603 217.054 322.464 217.027C322.326 217.006 322.188 216.988 322.049 216.973Z" fill="black"/>
<path d="M320.497 230.656L321.834 229.281C322.159 228.954 322.532 228.587 322.95 228.181C323.373 227.781 323.797 227.378 324.221 226.973C324.651 226.573 325.042 226.214 325.396 225.894C325.755 225.575 326.033 225.337 326.23 225.182C325.889 225.148 325.486 225.102 325.02 225.045C324.56 224.995 324.109 224.943 323.667 224.888C323.224 224.833 322.847 224.787 322.535 224.749C322.228 224.712 322.053 224.691 322.007 224.688L321.973 224.685C321.971 224.576 321.966 224.329 321.958 223.944C321.956 223.56 321.952 223.104 321.945 222.576C321.937 222.054 321.931 221.517 321.926 220.966C321.921 220.416 321.923 219.912 321.933 219.454C321.937 219.001 321.949 218.661 321.968 218.434C322.21 218.414 322.461 218.404 322.719 218.403C322.982 218.402 323.257 218.414 323.541 218.438L328.957 219.059C329.869 219.182 330.694 219.291 331.431 219.388C332.173 219.491 332.832 219.567 333.407 219.615C333.611 219.633 333.772 219.635 333.888 219.621C333.93 219.734 333.966 219.949 333.996 220.267C334.032 220.585 334.064 220.963 334.09 221.401C334.116 221.839 334.135 222.293 334.146 222.764C334.164 223.236 334.169 223.681 334.163 224.098C334.161 224.523 334.149 224.874 334.125 225.153C334.113 225.295 334.098 225.434 334.081 225.57C334.07 225.707 334.058 225.844 334.047 225.98C333.804 226 333.552 226.004 333.289 225.994C333.026 225.988 332.743 225.973 332.442 225.948C331.859 225.858 331.312 225.781 330.802 225.715C330.291 225.654 329.786 225.594 329.287 225.535L333.461 229.456L334.062 230.066L332.758 232.982L331.474 236.072L331.491 236.073C331.485 236.078 331.479 236.084 331.473 236.089C331.466 236.1 331.463 236.105 331.463 236.105L331.474 236.072L331.414 236.067L330.362 234.886L327.297 231.274L322.436 236.503L320.881 231.6L320.497 230.656Z" fill="black"/>
<path d="M319.371 240.667L319.38 240.625C319.547 240.664 319.726 240.705 319.915 240.749C320.103 240.798 320.343 240.862 320.635 240.941C320.928 241.021 321.311 241.127 321.784 241.259L325.134 242.138C325.785 242.311 326.337 242.459 326.79 242.581C327.248 242.705 327.749 242.844 328.294 242.999L329.345 238.441C329.428 238.465 329.589 238.517 329.828 238.596C330.074 238.676 330.354 238.767 330.671 238.87C330.986 238.977 331.295 239.084 331.599 239.189C331.902 239.3 332.152 239.396 332.351 239.477C332.224 240.128 332.069 240.886 331.887 241.753C331.71 242.621 331.518 243.543 331.31 244.521C331.106 245.506 330.897 246.501 330.682 247.507C330.467 248.518 330.256 249.495 330.05 250.438C329.843 251.387 329.652 252.251 329.478 253.032C329.423 253.271 329.365 253.51 329.304 253.748C329.243 253.986 329.186 254.207 329.133 254.412C328.9 254.329 328.582 254.208 328.179 254.051C327.781 253.894 327.377 253.728 326.966 253.551C326.561 253.376 326.23 253.211 325.972 253.058L326.976 248.709L325.184 248.243C324.776 248.131 324.291 247.998 323.729 247.845C323.172 247.693 322.599 247.535 322.01 247.369C321.419 247.21 320.867 247.062 320.353 246.926C319.84 246.789 319.42 246.678 319.094 246.591C318.774 246.505 318.611 246.462 318.606 246.461C318.621 246.37 318.648 246.136 318.688 245.759C318.734 245.383 318.79 244.935 318.857 244.417C318.923 243.905 318.989 243.387 319.058 242.863C319.12 242.339 319.18 241.875 319.238 241.472C319.294 241.075 319.339 240.806 319.371 240.667Z" fill="black"/>
<path d="M310.951 266.453L314.018 259.482C314.028 259.486 314.094 259.521 314.215 259.587C314.336 259.652 314.473 259.724 314.625 259.803C314.781 259.89 314.919 259.966 315.04 260.031C315.166 260.099 315.232 260.134 315.237 260.136C315.784 260.425 316.355 260.731 316.949 261.053C317.544 261.375 318.215 261.744 318.963 262.158C319.716 262.574 320.589 263.059 321.582 263.611C322.577 264.171 323.748 264.829 325.094 265.586C324.786 266.362 324.44 267.217 324.056 268.153C323.675 269.096 323.274 270.077 322.854 271.096C322.431 272.12 322.006 273.141 321.581 274.158C321.155 275.175 320.744 276.142 320.349 277.06C320.251 277.285 320.15 277.509 320.046 277.732C319.943 277.955 319.846 278.162 319.756 278.353C319.542 278.229 319.252 278.052 318.884 277.823C318.522 277.596 318.156 277.358 317.785 277.108C317.419 276.861 317.124 276.638 316.899 276.44L319.775 269.862L318.677 269.251C318.08 270.786 317.515 272.044 316.98 273.025C316.448 274.014 315.947 274.781 315.479 275.324C315.009 275.873 314.568 276.253 314.157 276.466C313.746 276.679 313.366 276.778 313.018 276.763C312.667 276.753 312.345 276.684 312.052 276.556C311.523 276.325 311.05 276.052 310.632 275.739C310.214 275.425 309.881 275.027 309.631 274.544C309.386 274.063 309.255 273.463 309.239 272.745C309.222 272.028 309.348 271.154 309.618 270.125C309.887 269.095 310.331 267.872 310.951 266.453ZM313.828 266.505C313.516 267.216 313.282 267.887 313.126 268.517C312.967 269.151 312.92 269.692 312.987 270.139C313.053 270.586 313.267 270.888 313.628 271.046C313.665 271.062 313.717 271.078 313.784 271.095C314.098 271.176 314.379 271.131 314.629 270.96C314.884 270.791 315.139 270.456 315.394 269.957C315.653 269.466 315.946 268.774 316.273 267.882C315.726 267.581 315.263 267.319 314.886 267.098C314.507 266.883 314.154 266.685 313.828 266.505Z" fill="black"/>
<path d="M299.425 288.039C299.782 287.46 300.099 286.941 300.377 286.482C300.652 286.028 300.931 285.572 301.214 285.116C301.492 284.657 301.811 284.129 302.172 283.533C302.376 283.196 302.625 282.795 302.919 282.332C303.21 281.874 303.52 281.388 303.852 280.874C304.175 280.362 304.497 279.863 304.818 279.376C305.132 278.891 305.42 278.448 305.683 278.047C305.938 277.647 306.145 277.328 306.302 277.09C306.457 276.856 306.534 276.739 306.534 276.739L307.389 275.244C307.389 275.244 307.529 275.338 307.808 275.528C308.093 275.72 308.472 275.976 308.946 276.296C309.419 276.616 309.953 276.976 310.546 277.375C311.144 277.777 311.761 278.19 312.398 278.616C313.037 279.049 313.656 279.467 314.254 279.869C314.856 280.274 315.404 280.638 315.895 280.963C316.384 281.292 316.777 281.557 317.076 281.758C317.38 281.962 317.544 282.071 317.569 282.086C317.476 282.25 317.402 282.378 317.345 282.471C317.294 282.567 317.236 282.669 317.171 282.776C317.111 282.887 317.023 283.047 316.909 283.259L314.057 287.972L310.989 293.305C310.85 293.535 310.699 293.774 310.535 294.022C310.376 294.273 310.206 294.494 310.024 294.684L307.516 292.756C308.025 291.715 308.652 290.575 309.395 289.336C310.136 288.102 310.881 286.854 311.631 285.592C311.487 285.478 311.317 285.355 311.123 285.224C310.925 285.098 310.704 284.945 310.46 284.763C310.083 285.41 309.713 286.031 309.353 286.627C308.997 287.226 308.684 287.748 308.415 288.192C308.362 288.28 308.305 288.369 308.244 288.459C308.187 288.552 308.13 288.647 308.071 288.745C308.012 288.843 307.955 288.942 307.901 289.043C307.846 289.143 307.797 289.247 307.752 289.354L307.694 289.318C307.572 289.244 307.373 289.104 307.097 288.897C306.822 288.69 306.538 288.465 306.245 288.221C305.954 287.985 305.721 287.774 305.546 287.588C305.55 287.57 305.623 287.434 305.764 287.179C305.91 286.927 306.196 286.449 306.622 285.745C306.725 285.574 306.839 285.386 306.963 285.181C307.089 284.983 307.223 284.767 307.365 284.533C307.495 284.318 307.626 284.103 307.756 283.888C307.886 283.673 308.015 283.454 308.143 283.231L306.675 282.232L302.017 289.928C301.519 289.626 301.121 289.373 300.825 289.167C300.531 288.969 300.301 288.803 300.135 288.669C299.969 288.535 299.836 288.418 299.737 288.318C299.634 288.222 299.53 288.129 299.425 288.039Z" fill="black"/>
<path d="M295.107 293.279C295.696 292.543 296.296 291.856 296.907 291.219C297.514 290.578 298.036 290.099 298.472 289.782L300.944 291.78C300.687 292.057 300.44 292.324 300.205 292.582C299.969 292.84 299.755 293.089 299.563 293.33C299.174 293.817 298.914 294.252 298.782 294.637C298.65 295.021 298.738 295.336 299.046 295.582C299.256 295.75 299.503 295.834 299.787 295.835C300.068 295.84 300.346 295.671 300.621 295.328L301.797 293.855L303.666 295.469L302.799 296.554C302.432 297.013 302.283 297.387 302.352 297.676C302.421 297.973 302.568 298.211 302.791 298.389C303.134 298.664 303.491 298.675 303.861 298.422C304.232 298.178 304.607 297.819 304.985 297.346C305.174 297.11 305.365 296.857 305.558 296.587C305.752 296.318 305.944 296.054 306.135 295.797L308.149 297.408C307.777 298.002 307.387 298.59 306.98 299.172C306.574 299.753 306.16 300.307 305.74 300.834C304.384 302.529 303.144 303.684 302.017 304.297C300.892 304.918 299.85 304.845 298.89 304.079C298.431 303.711 298.122 303.325 297.963 302.92C297.8 302.52 297.748 302.124 297.806 301.731C297.864 301.347 297.993 300.993 298.193 300.67C297.666 301.155 297.071 301.433 296.409 301.503C295.747 301.581 295.079 301.35 294.405 300.812C293.986 300.477 293.642 300.074 293.375 299.604C293.111 299.138 292.976 298.598 292.968 297.985C292.961 297.373 293.123 296.676 293.455 295.895C293.786 295.115 294.337 294.242 295.107 293.279Z" fill="black"/>
<path d="M276.472 312.529C277.169 311.929 277.904 311.382 278.678 310.888C279.447 310.39 280.233 309.989 281.033 309.684C281.837 309.383 282.635 309.215 283.427 309.181C284.223 309.151 284.99 309.293 285.728 309.607C286.47 309.925 287.163 310.458 287.808 311.207C288.416 311.912 288.819 312.632 289.015 313.368C289.211 314.111 289.243 314.857 289.111 315.604C288.982 316.356 288.728 317.098 288.35 317.832C287.975 318.569 287.515 319.287 286.97 319.983C286.42 320.683 285.831 321.353 285.205 321.991C284.881 322.315 284.551 322.622 284.213 322.913C283.997 323.1 283.779 323.276 283.56 323.442C283.341 323.616 283.122 323.778 282.905 323.928L280.354 320.969C280.644 320.78 280.942 320.571 281.251 320.343C281.559 320.115 281.874 319.863 282.194 319.587C282.644 319.199 282.992 318.785 283.24 318.346C283.487 317.907 283.589 317.453 283.547 316.984C283.504 316.523 283.274 316.05 282.856 315.566C282.394 315.029 281.927 314.689 281.456 314.545C280.98 314.404 280.508 314.416 280.038 314.579C279.568 314.751 279.104 315.022 278.647 315.393C278.435 315.576 278.183 315.835 277.891 316.17C277.595 316.508 277.319 316.836 277.065 317.153L274.609 314.304C274.926 313.963 275.248 313.641 275.574 313.337C275.896 313.037 276.195 312.768 276.472 312.529Z" fill="black"/>
<path d="M267.411 319.743L267.447 319.72C267.54 319.864 267.64 320.017 267.746 320.18C267.847 320.345 267.976 320.558 268.131 320.818C268.287 321.078 268.489 321.42 268.738 321.844L270.54 324.801C270.889 325.378 271.184 325.868 271.425 326.27C271.669 326.676 271.934 327.124 272.218 327.614L276.138 325.061C276.18 325.136 276.26 325.285 276.378 325.508C276.499 325.736 276.638 325.997 276.795 326.29C276.947 326.586 277.096 326.878 277.242 327.165C277.383 327.454 277.497 327.697 277.583 327.893C277.041 328.274 276.403 328.713 275.67 329.21C274.941 329.712 274.162 330.243 273.334 330.803C272.504 331.371 271.663 331.942 270.81 332.517C269.953 333.096 269.124 333.653 268.321 334.189C267.513 334.729 266.776 335.219 266.109 335.66C265.903 335.794 265.696 335.926 265.487 336.055C265.278 336.184 265.084 336.304 264.903 336.414C264.793 336.193 264.648 335.886 264.467 335.492C264.289 335.104 264.113 334.704 263.94 334.291C263.77 333.884 263.646 333.536 263.567 333.247L267.307 330.811L266.341 329.232C266.124 328.869 265.867 328.437 265.568 327.936C265.273 327.44 264.97 326.928 264.661 326.4C264.346 325.876 264.051 325.386 263.776 324.932C263.5 324.477 263.276 324.106 263.101 323.817C262.93 323.533 262.843 323.389 262.84 323.384C262.913 323.33 263.096 323.18 263.386 322.936C263.681 322.697 264.031 322.414 264.439 322.087C264.842 321.764 265.249 321.437 265.661 321.107C266.071 320.773 266.436 320.481 266.757 320.231C267.073 319.984 267.291 319.821 267.411 319.743Z" fill="black"/>
<path d="M247.494 330.8C248.255 330.458 249.066 330.16 249.928 329.904C250.785 329.651 251.646 329.484 252.511 329.402C253.376 329.321 254.206 329.364 255.002 329.533C255.792 329.704 256.511 330.036 257.157 330.528C257.801 331.028 258.328 331.734 258.737 332.645C259.121 333.5 259.291 334.319 259.248 335.102C259.208 335.89 259.016 336.634 258.672 337.333C258.331 338.037 257.896 338.686 257.368 339.28C256.842 339.879 256.279 340.417 255.678 340.893C255.078 341.369 254.499 341.773 253.941 342.105C253.379 342.445 252.903 342.702 252.513 342.878C251.684 343.25 250.819 343.575 249.918 343.855C249.017 344.134 248.119 344.324 247.225 344.425C246.334 344.531 245.483 344.506 244.674 344.349C243.865 344.193 243.134 343.867 242.479 343.372C241.827 342.882 241.296 342.179 240.884 341.262C240.435 340.261 240.243 339.318 240.308 338.431C240.373 337.544 240.624 336.714 241.06 335.943C241.498 335.176 242.064 334.471 242.758 333.828C243.455 333.189 244.215 332.616 245.039 332.109C245.858 331.603 246.676 331.167 247.494 330.8ZM248.543 334.142C247.654 334.572 247.068 335.136 246.786 335.832C246.506 336.534 246.592 337.388 247.043 338.393C247.333 339.039 247.677 339.492 248.076 339.752C248.471 340.019 248.908 340.135 249.388 340.102C249.87 340.073 250.384 339.936 250.931 339.69C251.812 339.295 252.404 338.744 252.707 338.039C253.01 337.333 252.952 336.514 252.533 335.581C252.093 334.601 251.528 334.013 250.839 333.815C250.146 333.626 249.381 333.734 248.543 334.142Z" fill="black"/>
<path d="M235.95 335.836C236.269 335.747 236.473 335.701 236.561 335.7C236.593 335.857 236.628 336.011 236.664 336.161C236.7 336.311 236.734 336.455 236.767 336.594L237.14 338.02C237.222 338.353 237.335 338.811 237.48 339.393C237.626 339.975 237.788 340.618 237.967 341.321C238.143 342.031 238.323 342.749 238.508 343.474C238.695 344.204 238.871 344.885 239.036 345.515C239.196 346.152 239.33 346.681 239.436 347.102C238.14 347.726 236.74 348.317 235.235 348.875C233.731 349.433 232.269 349.911 230.85 350.309C229.976 350.554 229.108 350.729 228.248 350.833C227.382 350.939 226.572 350.929 225.819 350.802C225.06 350.677 224.408 350.394 223.864 349.953C223.314 349.514 222.92 348.871 222.683 348.024C222.447 347.183 222.46 346.435 222.721 345.78C222.984 345.131 223.42 344.561 224.03 344.07C224.64 343.579 225.355 343.156 226.175 342.801C226.99 342.449 227.837 342.149 228.717 341.902C229.069 341.804 229.457 341.698 229.882 341.585C230.303 341.478 230.688 341.38 231.036 341.288C231.38 341.203 231.618 341.143 231.75 341.106L230.934 337.526C231.133 337.453 231.443 337.342 231.864 337.194C232.28 337.048 232.741 336.886 233.249 336.708C233.753 336.538 234.247 336.373 234.73 336.213C235.213 336.054 235.62 335.928 235.95 335.836ZM230.672 344.308C229.803 344.552 229.207 344.846 228.882 345.192C228.554 345.545 228.449 345.931 228.566 346.349C228.66 346.684 228.811 346.906 229.019 347.014C229.229 347.127 229.466 347.17 229.732 347.143C229.993 347.123 230.253 347.077 230.511 347.005C230.599 346.98 230.763 346.928 231.002 346.849C231.241 346.771 231.5 346.68 231.78 346.578C232.054 346.477 232.3 346.382 232.518 346.291C232.73 346.202 232.863 346.135 232.916 346.091C232.803 345.476 232.699 344.98 232.605 344.603C232.513 344.231 232.459 344.015 232.442 343.955C231.779 344.046 231.189 344.163 230.672 344.308Z" fill="black"/>
<path d="M214.234 340.684C215.376 340.75 216.302 340.794 217.012 340.815C217.717 340.837 218.274 340.849 218.683 340.85C219.087 340.858 219.406 340.859 219.641 340.853C219.871 340.847 220.081 340.85 220.273 340.861C220.254 341.082 220.254 341.312 220.272 341.552C220.29 341.791 220.314 342.036 220.345 342.285L220.346 342.294L220.609 344.212C220.699 344.897 220.798 345.622 220.904 346.386C221.004 347.15 221.093 347.85 221.172 348.485C221.224 348.91 221.289 349.385 221.365 349.911C221.442 350.443 221.515 350.871 221.584 351.196C221.618 351.468 221.641 351.724 221.653 351.965C221.66 352.205 221.665 352.432 221.668 352.645C221.453 352.671 221.237 352.695 221.021 352.716C220.806 352.743 220.593 352.766 220.382 352.786L216.658 353.031C216.585 352.867 216.532 352.687 216.496 352.49C216.454 352.294 216.413 352.08 216.373 351.849L215.911 348.108C215.687 348.44 215.415 348.845 215.094 349.322C214.768 349.8 214.429 350.296 214.078 350.812C213.723 351.333 213.387 351.827 213.07 352.292C212.748 352.757 212.48 353.15 212.266 353.47C212.047 353.791 211.913 353.986 211.864 354.055L204.307 354.307L203.977 351.637C203.766 350.305 203.553 348.953 203.337 347.581C203.116 346.21 202.906 344.909 202.708 343.679C202.676 343.419 202.66 343.17 202.659 342.934C202.653 342.699 202.654 342.472 202.661 342.252C203.245 342.18 203.856 342.142 204.495 342.138C205.133 342.134 205.746 342.138 206.335 342.152C206.918 342.166 207.427 342.161 207.861 342.136L207.873 342.23C207.88 342.292 207.897 342.402 207.922 342.56C207.942 342.725 207.98 342.982 208.035 343.332C208.085 343.688 208.156 344.172 208.249 344.782C208.336 345.398 208.454 346.186 208.601 347.146L214.234 340.684Z" fill="black"/>
<path d="M192.606 341.974L200.22 342.163C200.22 342.174 200.212 342.248 200.198 342.385C200.183 342.522 200.168 342.676 200.153 342.847C200.132 343.023 200.114 343.18 200.1 343.317C200.085 343.459 200.078 343.533 200.077 343.539C200.018 344.155 199.952 344.799 199.88 345.471C199.807 346.144 199.722 346.905 199.623 347.754C199.524 348.608 199.407 349.6 199.273 350.728C199.133 351.862 198.969 353.195 198.78 354.727C197.946 354.737 197.023 354.742 196.012 354.742C194.995 354.748 193.935 354.75 192.832 354.748C191.724 354.746 190.619 354.741 189.516 354.733C188.414 354.725 187.363 354.713 186.364 354.696C186.118 354.691 185.873 354.683 185.627 354.671C185.382 354.66 185.154 354.649 184.942 354.639C184.976 354.394 185.03 354.058 185.102 353.631C185.175 353.21 185.256 352.781 185.345 352.343C185.435 351.91 185.529 351.553 185.627 351.269L192.804 351.431L192.952 350.183C191.306 350.214 189.928 350.169 188.816 350.047C187.699 349.93 186.8 349.759 186.12 349.532C185.434 349.305 184.914 349.042 184.561 348.743C184.208 348.444 183.972 348.13 183.854 347.802C183.73 347.473 183.671 347.149 183.678 346.829C183.691 346.252 183.764 345.711 183.895 345.206C184.026 344.7 184.268 344.24 184.62 343.825C184.972 343.416 185.477 343.068 186.135 342.78C186.793 342.492 187.649 342.277 188.703 342.135C189.757 341.993 191.058 341.939 192.606 341.974ZM193.651 344.654C192.874 344.637 192.165 344.675 191.523 344.769C190.875 344.863 190.358 345.026 189.97 345.257C189.582 345.488 189.383 345.801 189.374 346.195C189.373 346.235 189.378 346.289 189.388 346.358C189.432 346.679 189.581 346.922 189.834 347.088C190.087 347.259 190.493 347.368 191.052 347.415C191.605 347.467 192.356 347.476 193.305 347.44C193.377 346.819 193.443 346.292 193.504 345.859C193.559 345.426 193.608 345.025 193.651 344.654Z" fill="black"/>
<path d="M173.597 340.203C174.418 340.348 175.257 340.558 176.114 340.831C176.964 341.104 177.77 341.45 178.531 341.869C179.292 342.288 179.954 342.791 180.517 343.378C181.074 343.965 181.482 344.643 181.74 345.414C181.991 346.189 182.029 347.069 181.855 348.053C181.691 348.975 181.372 349.748 180.896 350.372C180.419 351 179.842 351.507 179.164 351.892C178.486 352.282 177.761 352.574 176.99 352.768C176.218 352.968 175.45 353.095 174.686 353.151C173.922 353.207 173.216 353.215 172.567 353.176C171.912 353.141 171.374 353.086 170.952 353.011C170.058 352.853 169.16 352.635 168.257 352.359C167.355 352.083 166.506 351.736 165.71 351.316C164.913 350.902 164.225 350.403 163.644 349.819C163.063 349.234 162.641 348.553 162.379 347.776C162.116 347.004 162.072 346.123 162.247 345.133C162.439 344.054 162.811 343.165 163.363 342.469C163.916 341.772 164.59 341.227 165.385 340.835C166.178 340.448 167.043 340.183 167.979 340.042C168.914 339.906 169.864 339.86 170.831 339.904C171.792 339.946 172.714 340.046 173.597 340.203ZM172.585 343.556C171.607 343.411 170.806 343.548 170.181 343.965C169.555 344.387 169.146 345.141 168.953 346.227C168.829 346.924 168.859 347.492 169.043 347.931C169.219 348.374 169.515 348.716 169.931 348.958C170.345 349.206 170.847 349.382 171.438 349.486C172.388 349.655 173.187 349.533 173.835 349.12C174.482 348.707 174.895 347.997 175.074 346.99C175.261 345.933 175.125 345.129 174.666 344.577C174.201 344.031 173.507 343.69 172.585 343.556Z" fill="black"/>
<path d="M160.725 337.734C161.038 337.84 161.232 337.918 161.306 337.967C161.244 338.115 161.185 338.261 161.131 338.405C161.076 338.55 161.023 338.688 160.972 338.822L160.475 340.209C160.354 340.53 160.189 340.972 159.981 341.535C159.772 342.097 159.544 342.719 159.295 343.401C159.039 344.086 158.783 344.78 158.527 345.483C158.269 346.192 158.03 346.853 157.81 347.466C157.583 348.083 157.395 348.595 157.245 349.002C155.823 348.786 154.333 348.484 152.776 348.095C151.219 347.707 149.743 347.277 148.347 346.804C147.487 346.513 146.672 346.168 145.903 345.769C145.128 345.368 144.465 344.902 143.915 344.372C143.36 343.84 142.981 343.239 142.78 342.568C142.574 341.895 142.612 341.142 142.894 340.309C143.174 339.481 143.607 338.871 144.192 338.478C144.775 338.091 145.457 337.866 146.238 337.805C147.018 337.744 147.847 337.798 148.724 337.968C149.596 338.137 150.464 338.367 151.33 338.66C151.676 338.778 152.057 338.909 152.471 339.056C152.879 339.206 153.252 339.341 153.591 339.462C153.923 339.586 154.154 339.671 154.284 339.714L155.63 336.299C155.835 336.35 156.154 336.434 156.585 336.55C157.011 336.664 157.483 336.791 158.003 336.93C158.515 337.074 159.016 337.216 159.504 337.357C159.993 337.499 160.4 337.624 160.725 337.734ZM151.587 341.75C150.732 341.461 150.073 341.367 149.61 341.47C149.14 341.576 148.835 341.835 148.696 342.246C148.584 342.576 148.584 342.844 148.695 343.051C148.804 343.263 148.976 343.432 149.21 343.56C149.437 343.691 149.678 343.799 149.932 343.885C150.019 343.915 150.183 343.964 150.424 344.034C150.666 344.104 150.931 344.176 151.22 344.249C151.503 344.321 151.76 344.381 151.991 344.429C152.217 344.475 152.364 344.495 152.433 344.488C152.686 343.916 152.881 343.449 153.016 343.084C153.15 342.726 153.227 342.516 153.247 342.457C152.648 342.158 152.095 341.922 151.587 341.75Z" fill="black"/>
<path d="M149.748 330.288L146.201 336.045L145.935 336.487L145.789 336.546C145.679 336.509 145.481 336.426 145.194 336.297C144.899 336.171 144.559 336.021 144.173 335.848C143.787 335.674 143.393 335.491 142.992 335.297L137.857 341.758L137.448 342.347L137.301 342.407L132.477 339.987L125.41 336.343C125.423 336.318 125.503 336.182 125.649 335.936C125.79 335.687 125.973 335.37 126.197 334.985C126.419 334.604 126.658 334.197 126.914 333.764C127.164 333.327 127.409 332.908 127.65 332.505C127.882 332.104 128.084 331.755 128.256 331.458C128.421 331.164 128.528 330.969 128.578 330.872C128.607 330.816 128.638 330.762 128.672 330.709C128.698 330.658 128.749 330.565 128.825 330.431C128.898 330.302 129.014 330.095 129.173 329.811C129.33 329.532 129.552 329.132 129.84 328.612C129.444 328.408 129.073 328.217 128.728 328.039L132.357 321.505L137.721 324.338L135.89 327.664L142.165 330.899L144.419 327.724L149.748 330.288ZM134.617 337.312L138.075 332.849C137.502 332.553 136.938 332.262 136.385 331.977C135.826 331.689 135.276 331.405 134.732 331.125C134.451 331.597 134.158 332.082 133.856 332.582C133.553 333.081 133.267 333.556 132.995 334.008C132.716 334.462 132.475 334.855 132.272 335.187C132.068 335.519 131.926 335.751 131.846 335.883L134.617 337.312Z" fill="black"/>
<path d="M117.57 315.577C117.712 315.683 117.847 315.794 117.974 315.91C118.105 316.021 118.235 316.129 118.364 316.232C118.324 316.544 118.27 316.828 118.201 317.083C118.129 317.342 118.038 317.623 117.927 317.925C117.984 317.982 118.144 318.111 118.406 318.314C118.664 318.513 118.972 318.749 119.331 319.023C119.689 319.297 120.052 319.57 120.419 319.843C120.782 320.121 121.105 320.365 121.389 320.576C121.666 320.789 121.852 320.931 121.948 321.003C122.228 320.827 122.467 320.684 122.663 320.573C122.854 320.46 123.108 320.3 123.425 320.094C123.536 320.155 123.652 320.224 123.774 320.3C123.89 320.373 124.024 320.465 124.176 320.578C124.235 320.622 124.364 320.732 124.561 320.907C124.753 321.079 124.982 321.288 125.247 321.535C125.511 321.782 125.785 322.036 126.069 322.296C126.352 322.557 126.614 322.798 126.854 323.02C127.087 323.243 127.272 323.416 127.408 323.539C126.971 323.762 125.79 324.392 123.865 325.43C121.936 326.472 119.298 327.912 115.951 329.75C115.232 329.272 114.435 328.764 113.56 328.227C112.677 327.692 111.792 327.093 110.903 326.431C110.687 326.271 110.479 326.106 110.279 325.935C110.074 325.761 109.901 325.572 109.761 325.368C109.77 325.346 109.823 325.141 109.921 324.751C110.015 324.357 110.139 323.841 110.294 323.202C110.445 322.559 110.615 321.843 110.805 321.051C110.992 320.265 111.186 319.459 111.387 318.633C111.581 317.809 111.769 317.016 111.951 316.254C112.13 315.498 112.287 314.832 112.423 314.256C112.526 313.899 112.595 313.59 112.63 313.332C112.658 313.075 112.696 312.837 112.746 312.617C113.656 313.173 114.407 313.629 114.997 313.983C115.58 314.338 116.04 314.62 116.376 314.828C116.713 315.035 116.962 315.189 117.124 315.287C117.285 315.386 117.393 315.456 117.448 315.497C117.502 315.53 117.543 315.557 117.57 315.577ZM119.04 322.758L116.861 321.137C116.636 321.774 116.411 322.421 116.185 323.079C115.954 323.733 115.687 324.431 115.384 325.174C116.267 324.542 117 324.045 117.583 323.682C118.162 323.315 118.648 323.007 119.04 322.758Z" fill="black"/>
<path d="M105.724 310.227L105.462 312.348C104.248 312.056 103.218 311.992 102.374 312.157C101.521 312.321 100.911 312.596 100.544 312.98C100.287 313.248 100.165 313.546 100.176 313.873C100.18 314.2 100.338 314.513 100.652 314.813C100.891 315.042 101.165 315.194 101.474 315.267C101.783 315.341 102.042 315.269 102.251 315.05C102.353 314.943 102.432 314.828 102.485 314.705C102.531 314.583 102.568 314.508 102.595 314.479L105.022 315.945L105.624 316.332C105.592 316.514 105.518 316.724 105.402 316.961C105.282 317.194 105.161 317.374 105.039 317.502C104.593 317.969 104.123 318.282 103.63 318.443C103.133 318.607 102.633 318.659 102.131 318.598C101.62 318.536 101.124 318.398 100.643 318.183C100.157 317.971 99.7072 317.719 99.2926 317.425C98.8779 317.132 98.5158 316.837 98.2062 316.541C97.5002 315.866 96.9875 315.158 96.6679 314.418C96.3441 313.674 96.2367 312.939 96.3457 312.214C96.4506 311.492 96.7972 310.824 97.3853 310.209C97.8629 309.709 98.4387 309.359 99.1129 309.158C99.7831 308.961 100.5 308.884 101.265 308.928C102.025 308.967 102.792 309.104 103.565 309.337C104.329 309.57 105.049 309.867 105.724 310.227ZM109.013 308.014C109.058 308.058 109.059 308.102 109.016 308.148L107.156 310.068C106.826 309.752 106.549 309.488 106.326 309.275C106.095 309.062 105.875 308.855 105.664 308.653C105.45 308.456 105.204 308.225 104.927 307.961L106.821 305.955L107.193 306.31C107.424 306.531 107.628 306.723 107.806 306.884C107.979 307.042 108.156 307.208 108.338 307.381C108.52 307.547 108.744 307.758 109.013 308.014Z" fill="black"/>
</svg>
