<svg width="414" height="414" viewBox="0 0 414 414" fill="none" xmlns="http://www.w3.org/2000/svg">
<g clip-path="url(#clip0_1_2109)">
<rect x="118.094" width="317.933" height="317.933" rx="34.9175" transform="rotate(21.8047 118.094 0)" fill="white"/>
<rect x="118.094" width="158.967" height="317.933" transform="rotate(21.8047 118.094 0)" fill="#E6BA01"/>
<path d="M122.903 274.289L83.489 254.541L62.4472 258.505L51.275 317.931L84.8187 331.351L122.903 274.289Z" fill="#D2A701"/>
<path d="M83.9082 257.362C93.2095 250.471 101.52 233.603 104.685 224.772L138.049 244.114C138.18 243.638 138.264 243.242 138.314 242.919C137.948 241.541 138.567 241.275 138.314 242.919C138.442 243.403 138.691 244.024 139.143 244.748L138.049 244.114C138.033 244.172 138.017 244.231 137.999 244.291C136.167 250.642 129.282 258.343 128.011 262.625L116.079 273.107C99.9169 276.369 87.8975 263.97 83.9082 257.362Z" fill="#B65900"/>
<path d="M142.815 244.449C148.901 248.21 160.547 257.822 158.442 266.177C156.338 274.533 154.312 281.475 153.562 283.902C151.834 284.169 148.134 285.312 147.158 287.752C149.801 291.83 155.162 300.24 155.467 301.246C155.772 302.252 142.124 335.336 135.261 351.752L80.3717 329.793C82.3415 324.685 87.051 313.318 90.1313 308.714C93.9816 302.958 101.377 289.998 101.72 289.693C102.064 289.388 113.881 275.323 114.796 273.036C115.711 270.749 119.256 266.861 122.42 265.031C122.494 264.989 122.564 264.949 122.63 264.911C124.434 262.109 127.722 257.516 129.32 257.179C130.388 254.511 133.148 248.496 135.649 245.782L139.08 241.628L142.815 244.449Z" fill="#D2200E"/>
<path d="M69.8788 286.904C70.9464 282.024 79.6257 265.304 83.8319 257.553L79.5245 256.714L67.3644 261.135L69.8788 286.904Z" fill="#600E00"/>
<path d="M-6.32076 288.919C-7.41874 291.664 -10.1837 292.68 -11.4289 292.845L56.0396 319.837C59.8518 312.887 67.8882 297.073 69.5353 289.419C71.1825 281.765 70.121 268.797 69.3844 263.27C69.8291 262.342 72.6628 260.159 80.439 258.849C90.1594 257.21 99.5379 234.873 103.655 231.214C106.949 228.287 104.316 225.14 102.588 223.933C100.466 223.526 95.2159 223.018 91.1905 224.237C86.1587 225.762 69.5383 238.569 64.964 238.95C61.3046 239.255 52.8931 238.542 49.1448 238.148L51.546 243.752C42.5501 241.922 20.5546 258.769 16.4757 262.886C12.3968 267.002 6.41181 272.567 2.10426 275.045C-2.20329 277.522 -4.94829 285.489 -6.32076 288.919Z" fill="#D2200E"/>
<path d="M40.0695 293.992C38.3312 295.242 34.0334 305.211 32.1017 310.039L7.32518 300.127C14.2787 288.051 39.9818 271.184 51.9642 264.26C45.316 270.267 41.8234 285.187 40.9082 291.895L40.0695 293.992Z" fill="url(#paint0_linear_1_2109)"/>
<path d="M108.265 244.174C98.4659 239.195 105.007 220.082 109.502 211.148L112.76 204.732C120.507 190.895 135.962 192.402 142.721 194.886C149.132 199.583 159.978 212.42 152.072 226.194C144.167 239.968 135.184 246.342 131.681 247.808C127.958 248.671 118.063 249.152 108.265 244.174Z" fill="#D16803"/>
<path d="M119.939 219.82C119.774 220.049 119.683 221.387 120.968 221.116C122.417 220.811 124.018 222.336 123.979 222.984C123.941 223.632 124.818 225.309 126.724 223.861C128.63 222.413 128.973 225.424 130.688 226.11" stroke="black" stroke-width="0.294383"/>
<path d="M113.619 227.862C116.376 227.786 123.133 229.059 128.103 234.762C120.427 232.397 116.501 230.605 113.619 227.862Z" fill="#DB580C"/>
<path d="M117.412 205.434C121.037 205.379 124.913 205.989 127.259 206.795C127.741 206.961 128.246 206.52 128.006 206.07C125.118 200.643 114.525 205.477 117.412 205.434Z" fill="#672701"/>
<path d="M135.551 216.652C135.785 217.642 137.382 220.295 141.899 222.985C139.943 221.432 135.935 217.991 135.551 216.652Z" stroke="black" stroke-width="0.294383"/>
<path fill-rule="evenodd" clip-rule="evenodd" d="M108.863 213.222C109.98 211.345 117.687 199.116 122.235 196.861C126.917 194.539 132.246 193.358 140.99 196.847C141.015 196.857 141.039 196.87 141.06 196.886C147.829 202.033 153.072 209.865 152.539 212.3C152.112 214.252 147.837 227.37 145.753 233.685L146.877 233.964C148.929 231.369 151.019 228.332 153.04 224.812C160.945 211.038 150.099 198.201 143.688 193.504C136.929 191.021 121.474 189.513 113.727 203.35L110.47 209.766C109.952 210.795 109.407 211.96 108.863 213.222Z" fill="#945303"/>
<path d="M145.251 219.596C143.315 216.531 140.686 213.618 138.729 212.094C138.327 211.781 138.421 211.117 138.928 211.072C145.052 210.525 146.792 222.038 145.251 219.596Z" fill="#672701"/>
<path d="M116.125 221.323C113.512 221.27 110.468 225.131 109.273 227.068C109.619 225.094 111.024 220.893 113.877 219.883C116.73 218.873 116.564 220.422 116.125 221.323Z" fill="url(#paint1_radial_1_2109)" fill-opacity="0.5"/>
<path d="M133.81 229.024C134.962 231.395 132.712 235.939 131.443 237.914C133.105 236.7 136.36 233.504 136.079 230.43C135.799 227.357 134.449 228.212 133.81 229.024Z" fill="url(#paint2_radial_1_2109)" fill-opacity="0.5"/>
<path fill-rule="evenodd" clip-rule="evenodd" d="M104.497 224.137C102.333 232.369 102.061 241.029 108.197 244.147C117.996 249.125 127.891 248.644 131.614 247.781C133.336 247.061 136.382 245.154 139.973 241.765L139.914 241.519C137.487 242.612 131.909 244.507 129.012 243.348L134.273 234.62L126.916 224.823C126.129 224.95 124.34 224.853 123.486 223.45L111.822 222.763L106.446 231.225L104.497 224.137Z" fill="#2C0C01"/>
<path d="M111.962 233.66L108.494 231.83L110.171 226.531C112.687 226.138 118.572 225.648 121.988 226.837C125.403 228.027 128.519 232.619 129.649 234.766L125.837 242.085L121.644 240.407L122.368 236.939L118.29 233.317L113.716 231.487L111.962 233.66Z" fill="#D16803"/>
<path d="M121.495 228.623C117.439 226.824 114.545 227.39 113.604 227.898C121.045 228.753 126.031 232.575 127.593 234.379C127.25 233.21 125.55 230.423 121.495 228.623Z" fill="#DB580C"/>
<path d="M113.32 227.503C113.516 227.801 114.125 228.418 114.997 228.503C116.288 228.58 119.226 228.976 120.652 229.942C121.756 230.329 124.188 231.39 125.087 232.54C125.986 233.69 127.009 234.187 127.407 234.292" stroke="black" stroke-width="0.294383"/>
<path d="M148.945 233.785C148.854 231.803 146.824 231.536 145.82 231.65L140.025 238.397C139.365 239.68 138.539 242.445 140.521 243.238C142.503 244.031 144.574 241.764 145.362 240.532C146.594 239.109 149.037 235.767 148.945 233.785Z" fill="#D16803"/>
<path d="M105.758 212.97C106.643 211.201 108.439 211.979 109.227 212.589C108.312 212.223 105.847 219.933 104.728 223.833C104.233 224.151 103.082 224.413 102.441 222.918C101.641 221.051 104.653 215.18 105.758 212.97Z" fill="#D16803"/>
<path d="M133.36 205.043C129.853 200.987 122.598 201.548 119.409 202.336C117.608 196.336 128.228 193.554 139.45 196.452C150.672 199.349 153.668 212.31 151.304 216.007C150.758 215.715 147.029 213.872 145.901 211.829C144.491 209.275 138.582 205.806 136.41 206.263C134.671 206.629 133.652 205.602 133.36 205.043Z" fill="url(#paint3_linear_1_2109)" fill-opacity="0.52"/>
<path d="M58.0254 257.399L52.3464 244.514L44.1888 248.326L51.0873 264.794L58.0254 257.399Z" fill="url(#paint4_linear_1_2109)"/>
<circle cx="58.6552" cy="244.128" r="1.43693" transform="rotate(3.62831 58.6552 244.128)" fill="#F97F23"/>
<circle cx="62.6426" cy="252.608" r="1.43693" transform="rotate(3.62831 62.6426 252.608)" fill="#F97F23"/>
<path d="M126.587 210.877C124.37 213.082 117.294 210.872 114.033 209.492C114.388 206.224 119.526 203.506 123.538 204.201C127.55 204.897 129.358 208.121 126.587 210.877Z" fill="url(#paint5_radial_1_2109)" fill-opacity="0.5"/>
<path d="M135.433 214.845C134.933 217.931 140.853 222.393 143.875 224.239C146.324 222.046 145.538 216.286 142.634 213.432C139.731 210.578 136.057 210.987 135.433 214.845Z" fill="url(#paint6_radial_1_2109)" fill-opacity="0.5"/>
<path d="M125.498 211.431C124.583 211.876 121.518 212.316 116.578 210.516C119.018 211.05 124.217 211.98 125.498 211.431Z" stroke="black" stroke-width="0.294383"/>
<path d="M135.865 245.206C142.329 249.384 141.963 256.857 140.972 260.072C141.238 259.958 141.833 260.682 142.077 264.494C142.321 268.306 146.396 271.749 148.404 272.995C151.098 269.945 156.135 262.734 154.733 258.281C153.33 253.829 143.069 246.54 138.114 243.452L135.865 245.206Z" fill="url(#paint7_linear_1_2109)"/>
<path d="M76.0352 239.184C69.8138 247.661 65.1576 259.005 63.6072 263.617C75.4407 236.691 81.6007 237.431 83.2014 241.167C89.026 241.197 99.2244 234.09 103.596 230.533C100.241 228.97 83.8121 228.587 76.0352 239.184Z" fill="url(#paint8_linear_1_2109)"/>
<path d="M115.262 272.366C117.397 267.914 132.01 255.925 139.049 250.487C143.166 251.25 142.25 271.224 130.51 271.833C118.769 272.442 106.799 289.099 105.541 289.48C104.283 289.862 112.593 277.931 115.262 272.366Z" fill="url(#paint9_linear_1_2109)"/>
<path d="M121.072 294.34C120.894 290.731 120.539 283.293 120.539 282.408L119.776 277.682L115.239 300.629L135.632 305.471L138.606 298.038L121.072 294.34Z" fill="url(#paint10_linear_1_2109)"/>
<path d="M131.931 340.913L122.212 321.548C115.491 319.375 101.636 315.395 99.9892 316.858C97.9307 318.688 98.7693 318.802 97.3587 321.776C95.9481 324.749 97.32 331.267 97.3581 331.724C97.3886 332.09 97.3961 335.13 97.396 336.604L134.867 351.595L131.931 340.913Z" fill="#C11401"/>
<path d="M100.038 329.332C96.411 324.648 98.1533 318.831 99.4778 316.508C103.287 309.949 121.888 317.39 122.376 319.725C122.865 322.06 116.762 331.981 115.328 333.785C113.895 335.589 108.782 337.109 106.819 337.275C104.856 337.441 104.572 335.187 100.038 329.332Z" fill="url(#paint11_radial_1_2109)"/>
<path d="M118.897 333.022C117.829 335.248 114.818 337.507 113.446 338.358C111.509 337.583 109.138 335.774 108.033 332.457C107.304 330.27 105.683 328.103 103.878 326.35C100.28 323.849 99.8892 317.532 100.144 314.685C99.3176 314.723 97.6582 314.266 97.6278 312.131C97.5975 309.997 99.8007 309.463 100.906 309.463C99.1986 307.542 99.4833 305.283 99.8392 304.393C99.4709 301.077 99.611 294.795 103.118 296.198C106.625 297.601 106.917 302.729 106.624 305.118L113.104 307.71C117.018 306.402 125.897 303.366 130.106 301.689C134.314 300.012 135.442 302.718 135.48 304.281C132.774 304.967 122.405 312.095 121.947 313.238C121.49 314.382 123.853 316.212 124.082 317.851C124.31 319.49 121.947 322.082 122.862 323.111C123.777 324.14 120.231 330.239 118.897 333.022Z" fill="#D57100"/>
<path d="M100.563 303.601C101.448 302.717 104.82 304.199 106.395 305.05C106.51 298.684 103.079 297.312 102.165 297.388C101.25 297.464 100.754 300.361 100.487 301.581C100.274 302.557 100.449 303.334 100.563 303.601Z" fill="url(#paint12_radial_1_2109)"/>
<path d="M119.355 310.235L114.21 308.176L127.437 305.509L119.355 310.235Z" fill="url(#paint13_linear_1_2109)"/>
<path d="M100.868 309.471L101.444 307.254L101.311 305.047L104.301 307.769L116.581 315.085C115.737 314.589 113.424 313.519 110.931 313.211C108.438 312.904 101.613 310.91 98.8856 310.005L100.868 309.471Z" fill="url(#paint14_linear_1_2109)" fill-opacity="0.5"/>
<path d="M119.381 324.429L111.346 323.664L113.265 322.625L111.735 321.016C113.088 320.986 117.396 323.279 119.381 324.429Z" fill="url(#paint15_linear_1_2109)"/>
<path d="M109.139 320.298C109.761 321.136 110.58 322.996 108.872 323.728C107.372 324.371 106.369 326.669 105.933 328.132C106.033 328.334 106.012 328.478 105.816 328.552C105.849 328.422 105.888 328.281 105.933 328.132C105.646 327.554 104.371 326.505 103.383 325.291C102.315 323.979 102.938 319.586 103.383 317.553L109.139 320.298Z" fill="url(#paint16_linear_1_2109)"/>
<path d="M128.769 334.784C134.411 323.776 145.606 316.831 150.498 314.735L129.874 336.995L128.769 334.784Z" fill="url(#paint17_linear_1_2109)"/>
<g clip-path="url(#clip1_1_2109)">
<path d="M154.388 176.958L114.404 160.961L137.173 108.063L153.44 111.57L154.388 176.958Z" fill="#D7A503"/>
<path d="M134.877 169.152C132.396 158.564 140.255 126.394 144.495 111.633L139.74 89.5412L136.225 85.3364L137.742 81.5455C140.487 80.1787 146.668 77.121 149.425 75.8253C152.872 74.2058 156.871 49.22 157.905 47.6347C158.732 46.3665 159.192 42.4193 159.318 40.6043C162.523 40.4207 170.147 40.4188 174.999 41.8804C181.065 43.7073 186.717 44.5693 195.952 59.4581C203.341 71.3691 197.537 81.1472 193.711 84.5474C197.192 85.3403 216.283 112.568 215.353 115.394C214.608 117.654 215.617 120.563 216.214 121.735L219.626 127.697L217.73 128.938L221.072 143.068C220.44 147.146 219.755 157.253 222.071 165.056C224.386 172.859 222.897 183.31 221.863 187.561C223.792 189.932 223.057 199.232 222.448 203.586L190.535 191.419L187.985 175.806L185.538 189.419L134.877 169.152Z" fill="#D2200E"/>
<path d="M104.822 151.132C103.363 151.188 101.245 154.098 100.293 155.316L119.608 163.044C123.052 158.092 131.672 141.367 140.111 116.282C148.551 91.197 137.426 85.7601 130.808 86.1773C128.887 78.2134 120.728 68.4869 116.889 64.6191L114.273 66.1709L107.355 69.9989L109.415 76.819L105.521 85.0549L100.633 89.2952C98.8992 91.7996 94.214 97.3604 89.3407 99.568C84.4674 101.776 82.9487 105.405 82.7986 106.944L109.787 135.73C103.243 146.103 106.646 151.062 104.822 151.132Z" fill="#D2200E"/>
<path d="M171.989 63.3509C174.283 59.1697 169.613 53.1051 166.991 50.5955C191.549 47.4736 186.904 56.1719 185.715 57.6879C184.526 59.204 169.121 68.5774 171.989 63.3509Z" fill="url(#paint18_linear_1_2109)" fill-opacity="0.5"/>
<path fill-rule="evenodd" clip-rule="evenodd" d="M104.643 129.265L140.249 89.6236L85.8235 101.416C83.8826 103.271 83.1641 105.248 83.0638 106.281L104.643 129.265Z" fill="#BC0B01"/>
<path d="M183.739 164.495C166.309 146.8 175.566 119.951 182.372 108.738C178.944 112.501 171.956 124.134 171.429 140.567C170.903 157 164.121 173.317 160.722 179.492L185.588 189.44L183.739 164.495Z" fill="url(#paint19_radial_1_2109)" fill-opacity="0.5"/>
<path d="M118.247 90.4628L107.123 70.2446L116.673 64.8838L130.696 86.8605L118.247 90.4628Z" fill="url(#paint20_linear_1_2109)"/>
<path d="M125.077 83.6349C126.072 88.3526 133.105 90.2466 136.498 90.6039C137.856 90.8123 139.663 90.5306 140.397 90.3637C153.867 82.6041 159.015 51.4703 160.588 41.9596L160.606 41.8505C162.156 32.4713 152.771 22.9166 145.008 20.8108C137.245 18.7051 123.653 26.667 118.445 34.1831C114.278 40.1959 114.986 49.332 115.86 53.1485C115.723 54.16 115.723 56.2934 116.827 56.7351C117.931 57.1768 117.908 59.0343 117.759 59.9079C115.517 65.0109 118.934 70.9776 120.625 72.254C122.315 73.5303 123.834 77.7378 125.077 83.6349Z" fill="#BE5B01"/>
<path fill-rule="evenodd" clip-rule="evenodd" d="M134.049 38.8225C135.953 38.0537 140.018 37.1772 141.037 39.8212C142.056 42.4652 141.851 46.2704 141.622 47.8425L152.5 49.5988L159.836 47.2769C160.31 44.7371 160.667 42.5832 160.926 41.0168L160.944 40.9078C162.494 31.5441 153.131 22.0076 145.385 19.9072C137.639 17.8068 124.075 25.7583 118.876 33.2629C117.901 34.6707 117.193 36.25 116.692 37.8921C117.11 38.0786 117.49 38.2571 117.691 38.3545C119.009 39.4237 123.804 40.8183 134.049 38.8225Z" fill="#945303"/>
<path d="M121.68 58.4536C120.537 62.3303 118.604 70.2246 120.011 70.7878C121.771 71.4918 122.806 68.9054 124.81 69.5074C126.815 70.1093 128.085 71.0174 128.392 69.74" stroke="black" stroke-opacity="0.5" stroke-width="0.294383"/>
<path d="M126.708 59.0595C130.488 55.6625 135.647 56.5484 138.401 57.0609L137.744 57.1908C135.657 56.356 129.659 58.4072 126.708 59.0595Z" fill="black" fill-opacity="0.5"/>
<path d="M118.471 58.5975C117.431 58.3398 116.219 56.5765 115.743 55.7271C118.607 58.2567 121.468 57.2268 120.99 58.4196C120.609 59.3737 118.834 59.7309 117.994 59.7902L118.471 58.5975Z" fill="black" fill-opacity="0.5"/>
<path d="M130.594 59.0083C131.424 59.8154 134.171 60.8467 138.522 58.5152" stroke="black" stroke-opacity="0.5" stroke-width="0.294383" stroke-linecap="round"/>
<mask id="mask0_1_2109" style="mask-type:alpha" maskUnits="userSpaceOnUse" x="115" y="20" width="46" height="71">
<path d="M125.07 83.6626C126.061 88.3721 133.079 90.2613 136.464 90.6173C137.819 90.8249 139.622 90.5433 140.355 90.3765C153.798 82.627 158.942 51.5446 160.513 42.0495L160.531 41.9405C162.081 32.5768 152.717 23.0403 144.972 20.9399C137.226 18.8395 123.662 26.7911 118.463 34.2956C114.304 40.2992 115.008 49.4198 115.88 53.2296C115.742 54.2395 115.742 56.3693 116.844 56.81C117.945 57.2507 117.922 59.1051 117.773 59.9772C115.535 65.0721 118.943 71.028 120.63 72.3018C122.316 73.5757 123.831 77.7757 125.07 83.6626Z" fill="#BE5B01"/>
</mask>
<g mask="url(#mask0_1_2109)">
<path d="M124.861 73.6836C124.09 73.2154 123.186 74.5442 122.83 75.2671L123.208 79.8113L124.723 86.0081L130.024 93.7198L145.206 95.201L150.921 80.9146L154.399 70.7247L138.252 80.6384C138.666 77.609 137.208 75.4286 136.428 74.7171C135.613 74.9236 133.715 75.3091 132.641 75.1988C131.299 75.061 128.166 73.4084 127.546 73.9592C126.927 74.51 125.825 74.2689 124.861 73.6836Z" fill="#2C0C01"/>
</g>
<path d="M156.831 97.7379C153.95 98.4986 149.498 101.979 147.631 103.624L145.885 89.3724L148.371 76.615C147.489 71.9437 146.25 62.2931 148.353 61.0617C150.456 59.8303 151.55 63.4701 151.834 65.444C152.246 64.4131 153.248 61.306 153.954 57.1242C154.661 52.9425 155.298 51.4169 155.528 51.1768C158.41 50.4161 158.613 54.5368 158.355 56.6923C158.792 54.7944 160.045 50.7912 160.616 49.0268C162.103 47.8277 162.728 48.2772 163.773 49.6917C164.817 51.1061 163.066 55.9862 162.14 58.8045C161.399 61.0592 161.45 63.046 161.568 63.7576C162.198 62.349 163.596 58.9886 164.144 56.8158C164.827 54.0998 165.895 51.9357 167.771 53.2843C169.647 54.6328 166.554 62.3642 165.019 69.7225C163.792 75.6092 166.07 83.0313 167.363 86.0066L166.101 82.1139C166.661 80.2118 168.269 75.4872 170.226 71.8053C172.671 67.203 177.327 70.6603 175.085 73.7493C172.842 76.8383 172.961 81.0712 169.311 88.1812C165.661 95.2913 160.433 96.787 156.831 97.7379Z" fill="#D66F01"/>
<path d="M148.777 103.622L152.459 101.907C154.525 102.734 154.493 106.307 154.219 107.991C138.679 118.045 105.754 137.974 98.3731 137.252C89.1469 136.351 82.9055 122.497 81.8299 111.706C80.9695 103.073 90.7603 101.199 95.7633 101.341L145.323 88.293C145.988 93.8191 147.903 100.815 148.777 103.622Z" fill="#D2200E"/>
<path d="M138.797 25.8884C140.326 31.1231 135.253 36.9448 132.526 39.2013L133.738 40.0767C140.42 36.1672 139.895 28.9889 138.797 25.8884Z" fill="#BE5B01"/>
<path d="M123.152 53.7715C123.113 53.9911 123.072 54.2358 123.033 54.4965C122.901 56.8528 125.755 56.9697 127.885 56.6167C128.284 56.4299 128.612 56.3415 128.817 56.4234C128.533 56.4948 128.218 56.5615 127.885 56.6167C126.569 57.232 124.478 58.9151 123.466 59.1014C122.534 59.2728 122.741 56.4418 123.033 54.4965C123.045 54.2751 123.084 54.034 123.152 53.7715Z" fill="#9A3D00" fill-opacity="0.2"/>
<path d="M121.229 57.0501C120.386 56.7127 120.169 53.9272 120.165 52.5767C120.606 57.996 121.989 55.4907 122.625 53.5607C122.587 54.4707 121.679 56.2662 121.229 57.0501Z" fill="#9A3D00" fill-opacity="0.2"/>
<path d="M126.793 80.6865L126.026 77.3804C125.975 77.1566 126.189 76.956 126.414 77.0022C128.765 77.4852 133.303 76.8968 135.626 76.478C135.77 76.452 135.911 76.5345 135.959 76.6728L136.812 79.1612C136.848 79.2657 136.824 79.3821 136.741 79.4549C135.023 80.9596 129.744 81.0624 127.059 80.9128C126.93 80.9056 126.822 80.8131 126.793 80.6865Z" fill="#BE5B01"/>
<circle cx="113.033" cy="75.3902" r="1.43693" transform="rotate(3.62831 113.033 75.3902)" fill="#F97F23" fill-opacity="0.5"/>
<circle cx="117.02" cy="83.8707" r="1.43693" transform="rotate(3.62831 117.02 83.8707)" fill="#F97F23" fill-opacity="0.5"/>
</g>
<rect x="63.0954" y="137.475" width="158.967" height="5.26131" transform="rotate(21.8047 63.0954 137.475)" fill="#EEEEEE"/>
<path d="M151.374 202.92C152.62 206.463 150.363 206.638 149.078 206.282L150.8 207.922C153.14 206.829 152.158 204.132 151.374 202.92Z" fill="#D06703"/>
<path d="M195.178 280.087L191.278 289.834L189.843 289.26L194.26 278.22L202.224 281.406L197.808 292.446L196.372 291.872L200.272 282.125L195.178 280.087ZM203.379 294.894C202.222 294.432 201.447 293.701 201.054 292.702C200.665 291.693 200.689 290.641 201.127 289.548C201.564 288.454 202.27 287.681 203.244 287.229C204.217 286.777 205.282 286.783 206.439 287.245C207.585 287.704 208.353 288.438 208.741 289.447C209.145 290.45 209.13 291.493 208.697 292.576C208.26 293.67 207.547 294.446 206.558 294.904C205.585 295.356 204.525 295.353 203.379 294.894ZM202.379 292.226C202.627 292.886 203.124 293.366 203.871 293.664C204.617 293.963 205.303 293.957 205.928 293.645C206.556 293.324 207.022 292.784 207.325 292.027C207.624 291.281 207.654 290.58 207.417 289.923C207.183 289.257 206.693 288.774 205.947 288.475C205.2 288.177 204.507 288.186 203.868 288.504C203.243 288.815 202.78 289.349 202.477 290.106C202.178 290.853 202.146 291.559 202.379 292.226ZM216.836 291.624L216.325 292.902L214.085 292.006L211.687 297.999L210.315 297.45L212.713 291.457L210.489 290.567L211 289.29L216.836 291.624ZM222.615 293.717C223.656 294.133 224.359 294.829 224.725 295.805C225.095 296.77 225.053 297.821 224.599 298.956C224.153 300.071 223.451 300.851 222.492 301.297C221.533 301.743 220.528 301.755 219.476 301.335C218.919 301.112 218.456 300.774 218.088 300.322C217.731 299.874 217.527 299.378 217.476 298.833L215.621 303.47L214.249 302.921L218.502 292.291L219.874 292.84L219.363 294.117C219.775 293.758 220.27 293.541 220.849 293.468C221.438 293.398 222.026 293.481 222.615 293.717ZM219.779 300.029C220.483 300.31 221.158 300.3 221.804 299.997C222.45 299.694 222.924 299.164 223.227 298.407C223.53 297.65 223.552 296.94 223.293 296.275C223.039 295.6 222.559 295.122 221.855 294.84C221.129 294.55 220.439 294.554 219.782 294.852C219.137 295.155 218.66 295.69 218.353 296.458C218.051 297.215 218.028 297.926 218.287 298.59C218.556 299.259 219.053 299.738 219.779 300.029ZM227.848 304.684C226.723 304.234 225.983 303.523 225.627 302.551C225.283 301.584 225.333 300.543 225.779 299.428C226.221 298.324 226.913 297.54 227.855 297.075C228.807 296.615 229.836 296.606 230.94 297.047C231.507 297.274 231.965 297.61 232.312 298.054C232.659 298.497 232.857 298.991 232.908 299.536L233.419 298.259L234.775 298.801L231.867 306.072L230.51 305.529L231.021 304.252C230.613 304.601 230.118 304.817 229.536 304.902C228.957 304.975 228.395 304.903 227.848 304.684ZM228.529 303.529C229.297 303.836 229.995 303.829 230.624 303.507C231.267 303.179 231.734 302.653 232.025 301.927C232.319 301.191 232.344 300.488 232.1 299.817C231.871 299.14 231.373 298.648 230.605 298.34C229.869 298.046 229.182 298.058 228.542 298.375C227.907 298.682 227.438 299.214 227.135 299.971C226.832 300.728 226.805 301.437 227.053 302.097C227.301 302.758 227.793 303.235 228.529 303.529ZM242.28 301.804L241.769 303.081L239.529 302.185L237.131 308.178L235.759 307.629L238.157 301.636L235.933 300.746L236.444 299.469L242.28 301.804ZM248.179 306.707L242.643 309.706L242.409 310.29L241.037 309.741L243.946 302.47L245.318 303.019L243.261 308.161L248.81 305.13L249.056 304.514L250.428 305.063L247.519 312.334L246.147 311.785L248.179 306.707ZM257.928 308.064L257.417 309.341L255.177 308.445L252.78 314.439L251.408 313.89L253.805 307.897L251.582 307.007L252.093 305.729L257.928 308.064ZM259.594 308.73L260.966 309.279L259.951 311.819L261.843 312.576C262.611 312.883 263.135 313.355 263.417 313.992C263.699 314.629 263.705 315.285 263.436 315.957C263.175 316.609 262.705 317.068 262.026 317.333C261.357 317.602 260.66 317.591 259.934 317.301L256.685 316.001L259.594 308.73ZM259.515 312.907L258.499 315.446L260.218 316.134C260.618 316.294 260.98 316.304 261.303 316.165C261.632 316.016 261.869 315.758 262.016 315.39C262.168 315.011 262.174 314.66 262.035 314.336C261.911 314.006 261.655 313.763 261.266 313.607L259.515 312.907ZM277.274 318.713L276.757 320.006L275.085 319.337L273.697 322.807L272.277 322.239L273.666 318.769L269.344 317.04L272.247 309.785L273.682 310.36L271.297 316.321L274.183 317.476L275.451 314.306L276.871 314.874L275.602 318.044L277.274 318.713ZM285.354 327.471L286.433 324.774C285.75 324.866 285.035 324.763 284.288 324.464C282.459 323.733 281.876 322.536 282.541 320.875L283.563 318.32L284.92 318.862L283.96 321.26C283.561 322.258 283.924 322.983 285.049 323.433C285.764 323.719 286.383 323.772 286.907 323.591L288.263 320.2L289.635 320.749L286.727 328.02L285.354 327.471ZM292.028 330.36C290.903 329.91 290.163 329.199 289.807 328.228C289.462 327.26 289.513 326.219 289.959 325.105C290.4 324.001 291.092 323.216 292.035 322.752C292.987 322.291 294.016 322.282 295.12 322.723C295.687 322.951 296.145 323.286 296.492 323.73C296.839 324.173 297.037 324.668 297.088 325.212L297.599 323.935L298.955 324.477L296.046 331.748L294.69 331.206L295.201 329.928C294.793 330.277 294.298 330.494 293.715 330.578C293.137 330.651 292.575 330.579 292.028 330.36ZM292.709 329.206C293.477 329.513 294.175 329.505 294.804 329.184C295.447 328.856 295.914 328.329 296.204 327.603C296.499 326.867 296.524 326.164 296.28 325.493C296.051 324.816 295.553 324.324 294.785 324.017C294.049 323.722 293.361 323.734 292.722 324.051C292.087 324.358 291.618 324.89 291.315 325.647C291.012 326.404 290.985 327.113 291.233 327.773C291.481 328.434 291.973 328.911 292.709 329.206ZM301.362 334.094C300.258 333.653 299.519 332.954 299.144 332C298.774 331.034 298.818 329.979 299.277 328.833C299.735 327.687 300.429 326.897 301.359 326.464C302.293 326.02 303.312 326.019 304.416 326.461C305.393 326.852 306.083 327.415 306.485 328.148C306.891 328.872 306.972 329.661 306.728 330.514L305.355 329.965C305.557 328.912 305.08 328.154 303.923 327.691C303.219 327.409 302.574 327.42 301.99 327.722C301.409 328.015 300.957 328.566 300.633 329.375C300.309 330.185 300.255 330.901 300.469 331.523C300.688 332.135 301.149 332.582 301.854 332.864C303 333.323 303.862 333.119 304.441 332.252L305.813 332.801C305.405 333.577 304.804 334.087 304.011 334.331C303.223 334.564 302.34 334.485 301.362 334.094ZM309.663 337.415C308.538 336.965 307.798 336.254 307.442 335.283C307.098 334.315 307.148 333.274 307.594 332.16C308.036 331.056 308.728 330.272 309.67 329.807C310.622 329.346 311.651 329.337 312.755 329.779C313.323 330.006 313.78 330.341 314.127 330.785C314.474 331.229 314.672 331.723 314.723 332.268L315.234 330.99L316.59 331.533L313.682 338.803L312.325 338.261L312.836 336.983C312.428 337.332 311.933 337.549 311.351 337.633C310.772 337.707 310.21 337.634 309.663 337.415ZM310.344 336.261C311.112 336.568 311.81 336.561 312.439 336.239C313.082 335.911 313.549 335.384 313.84 334.659C314.134 333.923 314.159 333.219 313.915 332.548C313.686 331.871 313.188 331.379 312.42 331.072C311.684 330.778 310.997 330.789 310.357 331.107C309.722 331.414 309.253 331.946 308.95 332.703C308.648 333.46 308.62 334.168 308.868 334.829C309.116 335.489 309.608 335.966 310.344 336.261Z" fill="black"/>
<path d="M257.574 119.042L253.674 128.789L252.239 128.214L256.656 117.174L264.62 120.361L260.204 131.401L258.768 130.827L262.668 121.08L257.574 119.042ZM265.775 133.849C264.618 133.386 263.843 132.656 263.45 131.657C263.061 130.647 263.085 129.596 263.523 128.502C263.96 127.409 264.666 126.636 265.64 126.184C266.613 125.732 267.678 125.737 268.835 126.2C269.981 126.658 270.749 127.392 271.137 128.402C271.541 129.405 271.526 130.448 271.093 131.531C270.656 132.624 269.943 133.4 268.954 133.859C267.981 134.311 266.921 134.308 265.775 133.849ZM264.775 131.18C265.023 131.841 265.52 132.32 266.267 132.619C267.013 132.918 267.699 132.911 268.324 132.6C268.952 132.278 269.418 131.739 269.721 130.982C270.02 130.235 270.05 129.534 269.813 128.878C269.579 128.211 269.089 127.729 268.343 127.43C267.596 127.131 266.903 127.141 266.264 127.458C265.639 127.77 265.176 128.304 264.873 129.061C264.574 129.807 264.542 130.514 264.775 131.18ZM274.457 137.323C273.353 136.881 272.614 136.183 272.24 135.228C271.87 134.263 271.914 133.207 272.373 132.061C272.831 130.915 273.525 130.125 274.455 129.692C275.388 129.249 276.407 129.248 277.511 129.689C278.489 130.08 279.179 130.643 279.58 131.377C279.986 132.1 280.067 132.889 279.823 133.743L278.451 133.194C278.653 132.14 278.176 131.382 277.019 130.919C276.315 130.638 275.67 130.648 275.085 130.951C274.505 131.243 274.053 131.794 273.729 132.604C273.405 133.413 273.35 134.129 273.565 134.752C273.783 135.364 274.245 135.811 274.949 136.093C276.096 136.551 276.958 136.347 277.536 135.481L278.908 136.03C278.5 136.806 277.9 137.316 277.107 137.559C276.318 137.793 275.435 137.714 274.457 137.323ZM287.518 133.894L287.007 135.171L284.767 134.275L282.37 140.269L280.998 139.72L283.395 133.726L281.171 132.837L281.683 131.559L287.518 133.894ZM288.981 143.133C287.856 142.683 287.116 141.972 286.76 141.001C286.416 140.033 286.466 138.992 286.912 137.878C287.354 136.774 288.046 135.989 288.988 135.525C289.94 135.064 290.969 135.055 292.073 135.497C292.641 135.724 293.098 136.059 293.445 136.503C293.792 136.947 293.99 137.441 294.041 137.985L294.552 136.708L295.908 137.251L293 144.521L291.643 143.979L292.154 142.701C291.746 143.05 291.251 143.267 290.669 143.351C290.09 143.424 289.528 143.352 288.981 143.133ZM289.662 141.979C290.43 142.286 291.128 142.278 291.757 141.957C292.4 141.629 292.867 141.102 293.158 140.376C293.452 139.64 293.477 138.937 293.233 138.266C293.004 137.589 292.506 137.097 291.738 136.79C291.002 136.495 290.315 136.507 289.675 136.824C289.04 137.131 288.571 137.663 288.268 138.42C287.966 139.177 287.938 139.886 288.186 140.546C288.434 141.207 288.926 141.684 289.662 141.979ZM298.271 138.196L301.694 139.565C302.514 139.893 303.022 140.316 303.217 140.833C303.413 141.351 303.41 141.862 303.208 142.366C303.039 142.787 302.737 143.087 302.299 143.265C301.872 143.448 301.417 143.473 300.933 143.341C301.409 143.555 301.749 143.893 301.955 144.353C302.172 144.818 302.179 145.303 301.977 145.808C301.775 146.312 301.393 146.69 300.829 146.94C300.276 147.194 299.568 147.149 298.706 146.804L295.363 145.467L298.271 138.196ZM300.369 142.603C300.653 142.716 300.929 142.711 301.198 142.587C301.472 142.452 301.665 142.243 301.779 141.959C301.897 141.665 301.901 141.38 301.791 141.104C301.686 140.818 301.486 140.617 301.192 140.499L299.221 139.71L298.381 141.808L300.369 142.603ZM297.99 142.786L297.094 145.025L299.129 145.839C299.423 145.957 299.718 145.953 300.012 145.826C300.311 145.69 300.521 145.469 300.643 145.164C300.765 144.859 300.765 144.554 300.643 144.249C300.525 143.934 300.319 143.717 300.025 143.599L297.99 142.786ZM310.236 145.526L304.7 148.525L304.466 149.109L303.094 148.56L306.003 141.289L307.375 141.838L305.318 146.98L310.867 143.949L311.113 143.333L312.485 143.882L309.576 151.153L308.204 150.604L310.236 145.526ZM319.985 146.883L319.474 148.16L317.235 147.264L314.837 153.258L313.465 152.709L315.862 146.716L313.639 145.826L314.15 144.548L319.985 146.883ZM321.651 147.55L323.024 148.098L322.008 150.638L323.9 151.395C324.668 151.702 325.192 152.174 325.474 152.811C325.756 153.448 325.762 154.104 325.493 154.776C325.232 155.428 324.762 155.887 324.083 156.152C323.414 156.421 322.717 156.41 321.992 156.12L318.743 154.82L321.651 147.55ZM321.572 151.726L320.556 154.265L322.276 154.953C322.675 155.113 323.037 155.123 323.361 154.985C323.689 154.835 323.926 154.577 324.074 154.209C324.225 153.83 324.231 153.479 324.093 153.155C323.969 152.825 323.712 152.582 323.323 152.426L321.572 151.726ZM332.379 160.276L336.253 150.592L332.957 149.273L333.499 147.917L341.527 151.128L340.984 152.485L337.688 151.166L333.814 160.85L332.379 160.276ZM343.456 164.707L343.611 162.812L339.021 160.975L337.826 162.455L336.264 161.83L344.419 152.285L345.696 152.796L345.018 165.332L343.456 164.707ZM339.955 159.83L343.725 161.338L344.255 154.525L339.955 159.83ZM346.545 165.943L350.962 154.903L352.35 155.458L352.532 165.978L359.92 158.487L361.308 159.042L356.891 170.082L355.503 169.527L358.727 161.468L352.27 168.233L351.166 167.792L351.176 158.392L347.933 166.498L346.545 165.943ZM359.421 171.094L363.838 160.054L365.273 160.628L360.856 171.668L359.421 171.094ZM368.325 174.949C366.569 174.247 365.393 173.148 364.796 171.653C364.209 170.162 364.252 168.575 364.925 166.893C365.598 165.21 366.661 164.032 368.115 163.357C369.578 162.686 371.188 162.702 372.944 163.405C374.395 163.985 375.44 164.818 376.079 165.903C376.729 166.992 376.928 168.157 376.675 169.398L375.098 168.767C375.207 167.884 375.039 167.085 374.593 166.37C374.148 165.655 373.431 165.099 372.442 164.704C371.138 164.182 369.942 164.186 368.853 164.713C367.763 165.241 366.954 166.167 366.424 167.492C365.894 168.817 365.841 170.046 366.266 171.18C366.69 172.313 367.555 173.141 368.858 173.662C369.847 174.058 370.749 174.15 371.565 173.94C372.381 173.73 373.054 173.267 373.584 172.552L375.161 173.183C374.488 174.256 373.54 174.962 372.319 175.303C371.107 175.648 369.776 175.53 368.325 174.949Z" fill="black"/>
</g>
<rect x="115.588" y="-5.84955" width="326.933" height="326.933" rx="39.4175" transform="rotate(21.8047 115.588 -5.84955)" stroke="white" stroke-width="9"/>
<defs>
<linearGradient id="paint0_linear_1_2109" x1="35.8764" y1="293.42" x2="24.594" y2="281.831" gradientUnits="userSpaceOnUse">
<stop stop-color="#B8160A"/>
<stop offset="1" stop-color="#B8160A" stop-opacity="0"/>
</linearGradient>
<radialGradient id="paint1_radial_1_2109" cx="0" cy="0" r="1" gradientUnits="userSpaceOnUse" gradientTransform="translate(112.142 221.765) rotate(-23.1306) scale(5.16009 3.39054)">
<stop stop-color="#A94700"/>
<stop offset="1" stop-color="#A94700" stop-opacity="0"/>
</radialGradient>
<radialGradient id="paint2_radial_1_2109" cx="0" cy="0" r="1" gradientUnits="userSpaceOnUse" gradientTransform="translate(135.088 232.875) rotate(-91.6155) scale(5.2723 3.42339)">
<stop stop-color="#A94700"/>
<stop offset="1" stop-color="#A94700" stop-opacity="0"/>
</radialGradient>
<linearGradient id="paint3_linear_1_2109" x1="136.133" y1="206.401" x2="137.773" y2="201.75" gradientUnits="userSpaceOnUse">
<stop stop-color="#CC6400"/>
<stop offset="1" stop-color="#CC6400" stop-opacity="0"/>
</linearGradient>
<linearGradient id="paint4_linear_1_2109" x1="54.3663" y1="252.176" x2="48.0765" y2="255.187" gradientUnits="userSpaceOnUse">
<stop stop-color="#C31A0C"/>
<stop offset="1" stop-color="#C31A0C" stop-opacity="0"/>
</linearGradient>
<radialGradient id="paint5_radial_1_2109" cx="0" cy="0" r="1" gradientUnits="userSpaceOnUse" gradientTransform="translate(121.42 207.81) rotate(-86.6302) scale(5.1931 7.666)">
<stop stop-color="#A64600"/>
<stop offset="1" stop-color="#A64600" stop-opacity="0"/>
</radialGradient>
<radialGradient id="paint6_radial_1_2109" cx="0" cy="0" r="1" gradientUnits="userSpaceOnUse" gradientTransform="translate(140.937 217.256) rotate(-39.0199) scale(5.1931 7.666)">
<stop stop-color="#A64600"/>
<stop offset="1" stop-color="#A64600" stop-opacity="0"/>
</radialGradient>
<linearGradient id="paint7_linear_1_2109" x1="146.342" y1="251.163" x2="142.542" y2="269.776" gradientUnits="userSpaceOnUse">
<stop stop-color="#8E050B"/>
<stop offset="1" stop-color="#8E050B" stop-opacity="0"/>
</linearGradient>
<linearGradient id="paint8_linear_1_2109" x1="86.5396" y1="233.653" x2="93.0956" y2="240.476" gradientUnits="userSpaceOnUse">
<stop stop-color="#FE6500"/>
<stop offset="1" stop-color="#FE6500" stop-opacity="0"/>
</linearGradient>
<linearGradient id="paint9_linear_1_2109" x1="136.169" y1="255.497" x2="114.173" y2="284.504" gradientUnits="userSpaceOnUse">
<stop stop-color="#FF6501" stop-opacity="0"/>
<stop offset="0.45318" stop-color="#FF6501"/>
<stop offset="1" stop-color="#FF6501" stop-opacity="0"/>
</linearGradient>
<linearGradient id="paint10_linear_1_2109" x1="126.523" y1="282.371" x2="122.863" y2="303.679" gradientUnits="userSpaceOnUse">
<stop stop-color="#A30405"/>
<stop offset="1" stop-color="#A30405" stop-opacity="0"/>
</linearGradient>
<radialGradient id="paint11_radial_1_2109" cx="0" cy="0" r="1" gradientUnits="userSpaceOnUse" gradientTransform="translate(108.186 325.444) rotate(139.008) scale(11.6622 11.4702)">
<stop stop-color="#2B0201"/>
<stop offset="1" stop-color="#2B0201" stop-opacity="0"/>
</radialGradient>
<radialGradient id="paint12_radial_1_2109" cx="0" cy="0" r="1" gradientUnits="userSpaceOnUse" gradientTransform="translate(103.963 301.452) rotate(110.403) scale(4.28594 4.72824)">
<stop stop-color="#C25108"/>
<stop offset="1" stop-color="#C25108" stop-opacity="0"/>
</radialGradient>
<linearGradient id="paint13_linear_1_2109" x1="117.64" y1="309.549" x2="125.721" y2="305.928" gradientUnits="userSpaceOnUse">
<stop stop-color="#C25108"/>
<stop offset="1" stop-color="#C25108" stop-opacity="0"/>
</linearGradient>
<linearGradient id="paint14_linear_1_2109" x1="112.113" y1="312.865" x2="94.2733" y2="307.718" gradientUnits="userSpaceOnUse">
<stop stop-color="#C25108"/>
<stop offset="1" stop-color="#C25108" stop-opacity="0"/>
</linearGradient>
<linearGradient id="paint15_linear_1_2109" x1="116.99" y1="323.834" x2="112.075" y2="322.302" gradientUnits="userSpaceOnUse">
<stop stop-color="#C35409"/>
<stop offset="1" stop-color="#C35409" stop-opacity="0"/>
</linearGradient>
<linearGradient id="paint16_linear_1_2109" x1="108.529" y1="321.822" x2="101.858" y2="321.365" gradientUnits="userSpaceOnUse">
<stop stop-color="#C35409"/>
<stop offset="1" stop-color="#C35409" stop-opacity="0"/>
</linearGradient>
<linearGradient id="paint17_linear_1_2109" x1="136.584" y1="324.645" x2="139.481" y2="327.351" gradientUnits="userSpaceOnUse">
<stop stop-color="#C11401"/>
<stop offset="1" stop-color="#C11401" stop-opacity="0"/>
</linearGradient>
<linearGradient id="paint18_linear_1_2109" x1="178.943" y1="55.5124" x2="173.09" y2="56.9996" gradientUnits="userSpaceOnUse">
<stop stop-color="#670100"/>
<stop offset="1" stop-color="#670100" stop-opacity="0"/>
</linearGradient>
<radialGradient id="paint19_radial_1_2109" cx="0" cy="0" r="1" gradientUnits="userSpaceOnUse" gradientTransform="translate(173.13 136.046) rotate(89.4785) scale(40.3564 19.1374)">
<stop stop-color="#810101"/>
<stop offset="1" stop-color="#810101" stop-opacity="0"/>
</radialGradient>
<linearGradient id="paint20_linear_1_2109" x1="113.433" y1="67.9788" x2="121.364" y2="88.5595" gradientUnits="userSpaceOnUse">
<stop stop-color="#8E0809"/>
<stop offset="1" stop-color="#8E0809" stop-opacity="0"/>
</linearGradient>
<clipPath id="clip0_1_2109">
<rect x="118.094" width="317.933" height="317.933" rx="34.9175" transform="rotate(21.8047 118.094 0)" fill="white"/>
</clipPath>
<clipPath id="clip1_1_2109">
<rect width="158.672" height="148.075" fill="white" transform="translate(118.094) rotate(21.8047)"/>
</clipPath>
</defs>
</svg>
