<svg width="729" height="192" viewBox="0 0 729 192" fill="none" xmlns="http://www.w3.org/2000/svg">
<path fill-rule="evenodd" clip-rule="evenodd" d="M694.199 30.8472C706.154 44.8989 713.997 61.7617 717.657 73.1745C718.52 75.8652 718.092 78.7982 716.495 81.1382C714.899 83.4782 712.308 84.9687 709.461 85.1851L620.295 91.966C622.275 95.351 625.044 98.8852 628.604 102.352C635.62 109.182 644.979 115.009 655.093 118.246C665.184 121.476 675.608 122.009 685.131 118.914C694.508 115.866 703.865 109.029 711.576 95.9608C714.178 91.551 719.904 90.0615 724.364 92.6339C728.825 95.2063 730.331 100.866 727.729 105.276C717.986 121.788 705.175 131.86 690.972 136.477C676.914 141.046 662.345 140 649.333 135.835C636.344 131.678 624.489 124.293 615.483 115.525C606.603 106.88 599.728 96.1189 598.184 84.9207C596.51 72.7853 596.336 54.2236 601.771 38.0772C604.515 29.9247 608.863 21.8696 615.688 15.697C622.675 9.37849 631.77 5.48575 642.969 5.10397C665.107 4.34928 682.282 16.8407 694.199 30.8472ZM615.947 73.7542C615.542 64.3976 616.345 53.3333 619.515 43.9141C621.602 37.7128 624.539 32.7495 628.311 29.3379C631.922 26.0723 636.736 23.8153 643.614 23.5808C657.63 23.103 669.805 30.8968 679.888 42.7476C686.568 50.5991 691.816 59.6718 695.491 67.7051L615.947 73.7542Z" fill="#FFDE40"/>
<path fill-rule="evenodd" clip-rule="evenodd" d="M367.665 31.0402C371.947 32.7991 376.596 35.9231 378.886 41.3705C382.232 49.3303 379.16 56.9685 375.578 62.3331C375.469 62.4966 375.358 62.6599 375.246 62.8228C378.119 62.5879 380.919 62.5654 383.569 62.8265C390.793 63.5382 399.227 66.7605 402.538 75.9488C405.377 83.828 404.66 93.2605 402.834 101.845C400.945 110.727 397.554 120.108 393.642 128.679C389.727 137.258 385.142 145.347 380.686 151.626C378.467 154.753 376.15 157.616 373.832 159.905C371.771 161.941 368.726 164.531 364.971 165.595C359.337 167.19 354.639 164.546 352.156 162.72C349.423 160.71 346.955 157.948 344.816 155.183C340.47 149.568 335.972 141.941 331.82 134.298C327.866 127.02 324.012 119.323 320.692 112.693C320.488 112.285 320.286 111.881 320.086 111.482C318.588 108.491 317.246 105.825 316.072 103.544L306.802 107.72C302.081 109.847 296.514 107.778 294.367 103.098C292.221 98.4184 294.309 92.9002 299.03 90.773L304.058 88.5077C301.707 86.6521 299.058 84.7443 296.26 82.8545C288.592 77.6765 280.304 72.9711 275.082 70.2601L270.049 67.6468V62.0149C270.049 56.0639 273.586 51.6041 276.622 48.8042C279.84 45.8369 284.007 43.3121 288.376 41.1807C297.186 36.8819 308.607 33.3258 319.988 30.9883C331.352 28.6544 343.363 27.394 353.377 28.0776C358.356 28.4175 363.352 29.2687 367.665 31.0402ZM333.035 95.5354C334.267 97.933 335.573 100.538 336.908 103.203C337.098 103.584 337.29 103.967 337.484 104.353C340.831 111.037 344.557 118.477 348.357 125.472C352.422 132.954 356.336 139.483 359.719 143.854C360.34 144.657 360.897 145.326 361.387 145.875C362.521 144.644 363.852 142.99 365.324 140.916C368.987 135.754 373.011 128.717 376.53 121.007C380.052 113.29 382.922 105.219 384.457 98.0048C386.054 90.4948 385.924 85.1898 384.851 82.2099C384.84 82.1808 384.845 82.1726 384.843 82.1663C384.84 82.158 384.826 82.1531 384.748 82.1062C384.442 81.9211 383.561 81.5332 381.712 81.351C377.891 80.9745 372.224 81.6773 365.158 83.5083C354.597 86.2445 342.767 90.9945 333.035 95.5354ZM363.614 147.946C363.614 147.949 363.579 147.931 363.505 147.881C363.576 147.918 363.613 147.943 363.614 147.946ZM322.51 79.8323C321.315 78.6545 320.065 77.5238 318.812 76.4514C315.199 73.3583 311.023 70.2985 306.834 67.47C302.488 64.535 297.993 61.7583 293.872 59.3499C294.709 58.8759 295.64 58.3852 296.67 57.8826C303.658 54.4733 313.465 51.3393 323.799 49.2169C334.152 47.0907 344.347 46.1211 352.087 46.6494C355.985 46.9155 358.753 47.5308 360.475 48.2378C360.966 48.4394 361.292 48.6132 361.5 48.7417C361.426 49.2354 361.109 50.2719 359.916 52.0591C357.813 55.2093 354.041 58.9778 348.906 63.0377C340.924 69.3475 330.931 75.3685 322.51 79.8323ZM361.819 48.9774C361.819 48.9774 361.809 48.969 361.793 48.9504C361.812 48.9678 361.819 48.9774 361.819 48.9774ZM361.518 48.4457C361.506 48.4049 361.505 48.383 361.507 48.3823C361.509 48.3816 361.515 48.402 361.518 48.4457Z" fill="#FFDE40"/>
<path fill-rule="evenodd" clip-rule="evenodd" d="M90.0136 44.8855C93.7693 43.5818 97.9311 44.8274 100.375 47.9864L199.616 176.28C202.777 180.367 202.056 186.266 198.006 189.456C193.955 192.645 188.108 191.918 184.947 187.831L102.344 81.0469V157.023C102.344 161.063 99.7817 164.65 95.9826 165.928C92.1834 167.206 88.0002 165.887 85.5974 162.655L32.3428 91.0117L18.3529 149.826C17.1537 154.867 12.1312 157.973 7.1347 156.763C2.13822 155.553 -0.94012 150.486 0.259035 145.444L18.8667 67.2169C19.708 63.68 22.4987 60.9518 26.029 60.215C29.5593 59.4782 33.1937 60.8654 35.3567 63.7753L83.7366 128.861V53.7622C83.7366 49.7548 86.2579 46.1893 90.0136 44.8855Z" fill="#FFDE40"/>
<path fill-rule="evenodd" clip-rule="evenodd" d="M228.144 56.5808C228.25 54.1541 227.398 51.6895 225.574 49.7905C222.01 46.0817 216.084 45.935 212.337 49.463C179.817 80.0863 169.146 103.713 171.461 122.562C173.788 141.498 188.762 151.254 195.103 155.177C200.826 158.718 209.348 160.499 217.787 160.917C226.552 161.35 236.663 160.389 246.24 157.281C255.814 154.174 265.359 148.746 272.16 139.894C279.09 130.874 282.527 119.128 281.165 104.745C279.01 81.9898 267.985 68.4554 254.036 61.7759C245.397 57.6391 236.156 56.3706 228.144 56.5808ZM213.537 74.6631C192.526 97.4133 189.021 111.958 190.049 120.324C191.234 129.966 198.885 135.658 205.027 139.458C206.79 140.549 211.568 142.049 218.722 142.403C225.551 142.741 233.327 141.965 240.408 139.667C247.492 137.368 253.377 133.722 257.257 128.672C261.007 123.79 263.501 116.808 262.522 106.475C260.932 89.6844 253.493 82.1075 245.882 78.463C237.533 74.4647 227.495 74.5473 220.852 76.0322C218.224 76.6197 215.604 76.0501 213.537 74.6631Z" fill="#FFDE40"/>
<path fill-rule="evenodd" clip-rule="evenodd" d="M453.295 8.52878C453.068 7.52585 452.668 6.54364 452.086 5.62372C449.334 1.27023 443.554 -0.0395348 439.177 2.69829C420.789 14.2004 408.605 24.3761 401.222 33.5898C393.788 42.8685 390.531 52.1059 392.18 61.0198C393.784 69.6928 399.609 75.6341 404.82 79.4316C410.092 83.2736 415.918 85.7861 419.528 87.2697C425.304 89.6438 434.128 90.9141 443.249 91.214C452.646 91.523 463.488 90.8366 473.734 88.628C483.82 86.454 494.244 82.6107 501.942 75.9544C510.111 68.8916 514.897 58.849 513.094 46.1996C510.311 26.6793 496.252 16.6385 482.065 12.1258C472.429 9.06082 462.072 8.24588 453.295 8.52878ZM438.098 25.754C427.097 33.4565 420.096 39.9163 415.865 45.1971C410.413 52.0016 410.269 55.8902 410.595 57.6503C410.965 59.6512 412.488 61.9318 415.887 64.4088C419.225 66.8414 423.269 68.6562 426.678 70.0574C429.32 71.143 435.453 72.3237 443.868 72.6004C452.007 72.868 461.281 72.2564 469.769 70.4267C478.417 68.5624 485.346 65.6271 489.658 61.8986C493.501 58.5765 495.384 54.6281 494.555 48.8144C493.127 38.7938 486.42 33.064 476.362 29.8646C466.013 26.5728 453.686 26.6593 445.543 27.8683C442.762 28.2812 440.085 27.4323 438.098 25.754Z" fill="#FFDE40"/>
<path fill-rule="evenodd" clip-rule="evenodd" d="M451.115 103.265C455.936 101.495 461.275 103.982 463.039 108.821L486.28 172.567C488.044 177.406 485.565 182.763 480.743 184.533C475.922 186.304 470.583 183.816 468.819 178.978L445.578 115.231C443.814 110.393 446.293 105.035 451.115 103.265Z" fill="#FFDE40"/>
<path fill-rule="evenodd" clip-rule="evenodd" d="M503.377 0.156177C508.453 -0.778237 513.326 2.57637 514.261 7.64891C517.927 27.5394 522.802 58.4022 525.509 86.4255C526.86 100.416 527.694 113.918 527.527 125.081C527.496 127.221 527.427 129.304 527.314 131.312L591.36 100.542C596.012 98.3068 601.596 100.263 603.832 104.912C606.068 109.561 604.11 115.141 599.459 117.376L518.465 156.289C514.727 158.085 510.252 157.204 507.474 154.125C504.697 151.047 504.283 146.507 506.457 142.977C506.72 142.55 507.39 140.959 507.941 137.443C508.459 134.14 508.763 129.894 508.839 124.803C508.99 114.636 508.227 101.91 506.905 88.2203C504.264 60.883 499.482 30.5743 495.879 11.0327C494.944 5.96019 498.301 1.09059 503.377 0.156177Z" fill="#FFDE40"/>
</svg>
