<svg width="171" height="156" viewBox="0 0 171 156" fill="none" xmlns="http://www.w3.org/2000/svg">
<path fill-rule="evenodd" clip-rule="evenodd" d="M157.09 60.1936C159.423 61.6628 160.258 64.6634 159.02 67.1266C154.048 77.02 146.727 92.4358 140.933 106.495C138.032 113.535 135.558 120.129 133.95 125.472C133.145 128.148 132.589 130.402 132.295 132.18C132.148 133.065 132.078 133.764 132.061 134.292C132.045 134.79 132.081 135.014 132.085 135.04C132.086 135.043 132.086 135.043 132.085 135.041C132.751 137.922 130.956 140.796 128.075 141.462C125.195 142.127 122.32 140.332 121.655 137.452C121.14 135.222 121.361 132.682 121.734 130.431C122.131 128.031 122.823 125.296 123.699 122.386C125.454 116.557 128.078 109.594 131.036 102.416C134.613 93.7337 138.745 84.5811 142.569 76.4791C141.196 76.8224 139.804 77.1237 138.42 77.3885C130.778 78.8495 122.681 79.3196 117.503 79.3116C114.547 79.3071 112.154 76.907 112.159 73.9508C112.163 70.9946 114.564 68.6018 117.52 68.6064C122.191 68.6136 129.586 68.1782 136.409 66.8737C139.822 66.2212 142.928 65.3815 145.419 64.3532C148.007 63.2843 149.402 62.2257 150.004 61.4481C151.691 59.2674 154.758 58.7245 157.09 60.1936Z" fill="#FFDE40"/>
<path fill-rule="evenodd" clip-rule="evenodd" d="M76.5466 26.0717C78.5749 28.2222 78.4758 31.6099 76.3253 33.6382C65.9996 43.3772 43.2559 70.2894 35.0048 99.2885C34.1958 102.132 31.235 103.781 28.3916 102.972C25.5483 102.163 23.8992 99.2021 24.7082 96.3588C33.7022 64.7487 57.9604 36.2438 68.98 25.8504C71.1306 23.8221 74.5182 23.9211 76.5466 26.0717Z" fill="#FFDE40"/>
<path fill-rule="evenodd" clip-rule="evenodd" d="M101.996 36.0846C104.024 38.2351 103.925 41.6228 101.774 43.6511C91.4487 53.3901 68.705 80.3024 60.4539 109.301C59.6449 112.145 56.6841 113.794 53.8407 112.985C50.9974 112.176 49.3483 109.215 50.1573 106.372C59.1513 74.7617 83.4095 46.2568 94.4291 35.8633C96.5797 33.835 99.9673 33.9341 101.996 36.0846Z" fill="#FFDE40"/>
<path fill-rule="evenodd" clip-rule="evenodd" d="M114.353 64.036C113.221 66.7668 110.09 68.0628 107.359 66.9306C94.2471 61.4947 60.3841 51.7561 30.5478 56.095C27.6224 56.5204 24.906 54.4938 24.4806 51.5684C24.0552 48.643 26.0818 45.9266 29.0072 45.5012C61.5299 40.7716 97.4659 51.2403 111.459 57.0415C114.19 58.1737 115.486 61.3052 114.353 64.036Z" fill="#FFDE40"/>
<path fill-rule="evenodd" clip-rule="evenodd" d="M104.846 81.2058C103.714 83.9366 100.582 85.2326 97.8514 84.1004C84.7397 78.6645 50.8766 68.9259 21.0404 73.2648C18.115 73.6902 15.3986 71.6636 14.9732 68.7382C14.5477 65.8128 16.5744 63.0964 19.4998 62.671C52.0224 57.9414 87.9584 68.4101 101.951 74.2113C104.682 75.3435 105.978 78.475 104.846 81.2058Z" fill="#FFDE40"/>
</svg>
