<svg width="333" height="381" viewBox="0 0 333 381" fill="none" xmlns="http://www.w3.org/2000/svg">
<path d="M221.16 325.054L225.446 326.911L227.302 322.624L321.773 104.459C326.526 93.4829 321.481 80.7319 310.505 75.9789L151.374 7.07114C140.398 2.31816 127.647 7.3631 122.894 18.3393L28.4228 236.504L26.5666 240.791L30.8532 242.647L221.16 325.054Z" fill="#FFDE40" stroke="white" stroke-width="9.34246"/>
<path d="M202.483 64.4491L196.704 76.1165L197.01 76.249L231.867 85.5298L234.914 78.4928L237.167 73.2915L237.492 68.3456L236.155 63.0433L233.42 56.7725L227.045 52.1955L219.917 50.1987L210.189 52.5262L205.53 57.412L202.483 64.4491Z" fill="#2D1E19" stroke="#2D1E19" stroke-width="0.849315"/>
<path d="M183.101 154.518L213.423 135.676L219.474 109.956L188.991 101.48L183.101 154.518Z" fill="#D9D9D9"/>
<path d="M213.709 59.5004C207.191 60.4566 201.179 69.6978 198.988 74.1988L215.671 73.4297L231.58 80.3191C233.455 75.3177 231.054 68.949 229.619 66.3898C227.031 63.6949 220.227 58.5443 213.709 59.5004Z" fill="#D37A6F" stroke="#D37A6F" stroke-width="0.849315"/>
<path d="M186.173 101.713L191.394 98.8866C190.969 99.3082 189.781 101.604 188.428 107.412C187.076 113.221 191.065 128.174 193.228 134.924L201.578 126.55C202.444 125.108 205.448 121.976 210.53 120.98C215.612 119.983 219.042 111.949 220.122 108.057L220.135 116.419L238.75 137.196C240.21 141.098 243.145 151.38 243.213 161.292C243.281 171.204 240.471 180.209 239.058 183.473L234.705 188.491C235.75 190.106 226.586 205.563 221.873 213.09L202.695 225.496C200.772 233.964 195.799 243.098 193.553 246.607L188.159 248.994C181.519 256.777 168.851 272.607 171.299 273.666C173.747 274.726 168.521 282.879 165.602 286.823L141.431 276.356C143.296 269.534 146.135 254.922 142.577 251.056C139.019 247.19 129.112 261.454 124.604 269.069C115.697 266.424 97.7819 260.361 97.3732 257.278C96.9645 254.194 99.3691 246.516 100.622 243.062C99.3887 235.842 108.323 221.084 112.944 214.608C109.565 209.657 114.972 199.015 118.099 194.313C105.807 179.907 115.634 127.847 140.562 111.392C165.491 94.9367 165.361 106.144 173.253 103.021C179.567 100.523 184.497 101.108 186.173 101.713Z" fill="black" stroke="black" stroke-width="0.849315"/>
<path d="M149.301 213.275C147.587 212.533 144.337 209.914 142.926 208.698C137.657 212.811 145.05 218.337 149.405 220.586C144.592 224.316 137.815 225.256 135.027 225.26L132.447 224.506C130.335 227.37 132.717 230.316 134.172 231.43C133.569 233.494 135.139 234.513 135.999 234.764C135.534 237.179 137.982 239.135 139.263 239.811C139.5 241.948 140.987 243.101 141.701 243.41L158.608 241.285L163.788 237.714C161.11 232.486 159.949 222.246 159.703 217.779L149.301 213.275Z" fill="#CE736E"/>
<path d="M139.263 239.811C139.5 241.948 140.987 243.101 141.701 243.41L158.608 241.285L163.788 237.714C161.11 232.486 159.949 222.246 159.703 217.779C156.95 216.587 151.014 214.017 149.301 213.275C147.587 212.533 144.337 209.914 142.926 208.698C137.657 212.811 145.05 218.337 149.405 220.586C144.592 224.316 137.815 225.256 135.027 225.26L132.447 224.506C130.335 227.37 132.717 230.316 134.172 231.43M139.263 239.811C137.982 239.135 135.534 237.179 135.999 234.764M139.263 239.811L144.168 239.392M135.999 234.764C135.139 234.513 133.569 233.494 134.172 231.43M135.999 234.764L141.515 234.61M134.172 231.43C135.529 231.654 138.68 231.929 140.434 231.235" stroke="black" stroke-width="0.849315"/>
<path d="M197.795 76.9525C198.325 75.7287 200.647 75.4017 201.741 75.3912C202.817 80.4591 207.227 88.2305 216.263 78.773L217.222 79.9149L217.989 85.6967C219.774 88.2864 224.417 92.3315 228.707 87.7946L229.971 89.0689C223.398 102.572 229.921 90.8637 221.022 105.54L217.761 111.394L210.512 118.065L203.629 120.535L203.09 124.298L199.002 128.704L197.532 123.708L195.296 112.93L189.95 102.622L191.54 98.9501L193.395 94.6667C193.051 92.9434 192.32 89.2602 192.149 88.3139C191.977 87.3677 192.134 84.4321 192.3 82.9296L196.224 75.5456C196.527 76.5245 197.265 78.1763 197.795 76.9525Z" fill="#D37A6F" stroke="#D37A6F" stroke-width="0.849315"/>
<path d="M232.539 81.4608L230.542 88.5893L229.757 87.8859C224.349 91.6481 219.747 87.7899 218.121 85.3905L217.62 78.9969L216.396 78.4669C216.6 78.5552 216.06 79.4113 212.267 82.1289C208.474 84.8465 204.71 81.4 203.303 79.3371L202.312 74.9116L198.019 75.596L203.025 71.5871L204.483 68.2215C209.418 68.9055 213.474 71.5096 214.885 72.7261C214.447 72.8996 214.873 73.5929 220.087 74.9784C225.3 76.3639 230.561 79.8773 232.539 81.4608Z" fill="black" stroke="black" stroke-width="0.849315"/>
<path d="M204.693 93.7459C206.287 92.8617 209.667 91.3217 210.434 92.2352C210.949 92.848 211.112 93.1127 211.134 93.2073C211.925 92.6128 213.809 92.8507 215.402 98.383L210.588 97.752L208.141 96.6921L204.693 93.7459Z" fill="#BC5857"/>
<path d="M204.693 93.7459C206.287 92.8617 209.667 91.3217 210.434 92.2352C211.201 93.1487 211.189 93.2887 211.087 93.2446C211.848 92.6053 213.777 92.7381 215.402 98.383M204.693 93.7459L208.141 96.6921L210.588 97.752L215.402 98.383M204.693 93.7459L208.895 94.1119L209.853 95.2538L211.954 95.4368L215.402 98.383" stroke="#914342" stroke-width="0.849315"/>
<path d="M211.631 84.5793C211.802 84.4182 211.809 84.1494 211.648 83.979C211.487 83.8086 211.218 83.801 211.048 83.9621L211.631 84.5793ZM209.494 86.015L209.202 85.7064L209.183 85.7248L209.166 85.7457L209.494 86.015ZM207.955 87.8917L207.627 87.6224L207.383 87.9188L207.653 88.1908L207.955 87.8917ZM209.22 89.1661L208.918 89.4652L209.076 89.6238L209.295 89.5839L209.22 89.1661ZM210.403 88.9516L210.478 89.3694L210.702 89.3289L210.792 89.1203L210.403 88.9516ZM210.8 88.0337L210.969 87.644L210.579 87.4753L210.41 87.865L210.8 88.0337ZM211.718 88.4312L211.991 88.7564L212.517 88.3145L211.887 88.0415L211.718 88.4312ZM211.147 88.9106L210.874 88.5854L210.573 88.8383L210.802 89.158L211.147 88.9106ZM212.279 90.4909L211.934 90.7383L212.057 90.9095L212.267 90.9154L212.279 90.4909ZM214.074 90.5415L214.062 90.9659L214.349 90.974L214.464 90.7102L214.074 90.5415ZM214.472 89.6236L214.64 89.2339L214.251 89.0651L214.082 89.4548L214.472 89.6236ZM215.083 89.8886L215.504 89.8328L215.473 89.5944L215.252 89.4989L215.083 89.8886ZM215.339 91.8158L214.918 91.8716L214.965 92.2301L215.327 92.2403L215.339 91.8158ZM217.134 91.8663L217.122 92.2908L217.409 92.2989L217.523 92.0351L217.134 91.8663ZM217.664 90.6425L218.053 90.8112L218.077 90.7567L218.085 90.6977L217.664 90.6425ZM217.979 88.2358L218.4 88.291L218.414 88.1819L218.374 88.0796L217.979 88.2358ZM211.048 83.9621L209.202 85.7064L209.786 86.3236L211.631 84.5793L211.048 83.9621ZM209.166 85.7457L207.627 87.6224L208.283 88.161L209.823 86.2843L209.166 85.7457ZM207.653 88.1908L208.918 89.4652L209.521 88.8669L208.256 87.5926L207.653 88.1908ZM209.295 89.5839L210.478 89.3694L210.327 88.5338L209.144 88.7482L209.295 89.5839ZM210.792 89.1203L211.19 88.2025L210.41 87.865L210.013 88.7829L210.792 89.1203ZM210.631 88.4234L211.549 88.8209L211.887 88.0415L210.969 87.644L210.631 88.4234ZM211.445 88.106L210.874 88.5854L211.42 89.2358L211.991 88.7564L211.445 88.106ZM210.802 89.158L211.934 90.7383L212.624 90.2436L211.492 88.6633L210.802 89.158ZM212.267 90.9154L214.062 90.9659L214.086 90.117L212.291 90.0664L212.267 90.9154ZM214.464 90.7102L214.861 89.7923L214.082 89.4548L213.684 90.3727L214.464 90.7102ZM214.303 90.0133L214.915 90.2782L215.252 89.4989L214.64 89.2339L214.303 90.0133ZM214.662 89.9443L214.918 91.8716L215.76 91.76L215.504 89.8328L214.662 89.9443ZM215.327 92.2403L217.122 92.2908L217.146 91.4418L215.351 91.3913L215.327 92.2403ZM217.523 92.0351L218.053 90.8112L217.274 90.4738L216.744 91.6976L217.523 92.0351ZM218.085 90.6977L218.4 88.291L217.558 88.1806L217.243 90.5873L218.085 90.6977ZM218.374 88.0796L217.854 86.7642L217.064 87.0767L217.584 88.392L218.374 88.0796Z" fill="black"/>
<path d="M193.262 94.9724L197.078 104.618L201.526 109.451L207.339 111.968L212.988 111.508L217.729 108.111L221.155 105.234L223.092 102.439" stroke="#914342" stroke-width="0.849315"/>
<path d="M30.6931 221.237L237.229 310.672L213.676 365.065C210.041 373.459 200.29 377.317 191.897 373.682L15.7563 297.409C7.36275 293.774 3.50487 284.023 7.1395 275.63L30.6931 221.237Z" fill="white" stroke="white" stroke-width="0.849315"/>
<path d="M96.5306 287.675L95.9771 288.954L94.7769 288.434C93.9664 289.65 92.9478 290.449 91.7211 290.831C90.4989 291.203 89.1708 291.078 87.7367 290.457C86.0325 289.719 84.9029 288.594 84.348 287.083C83.7931 285.572 83.8718 284.008 84.5842 282.391C85.2907 280.76 86.3812 279.609 87.8558 278.94C89.3453 278.264 90.9786 278.311 92.7555 279.081C94.0129 279.625 94.9357 280.401 95.5237 281.409C96.1117 282.416 96.267 283.44 95.9895 284.479L94.4307 283.804C94.5448 283.113 94.4045 282.454 94.0099 281.827C93.6256 281.204 93.023 280.714 92.2021 280.359C90.8511 279.774 89.6297 279.745 88.5378 280.272C87.4563 280.803 86.632 281.723 86.065 283.032C85.5251 284.279 85.444 285.478 85.8218 286.629C86.21 287.785 87.0328 288.634 88.2902 289.179C89.3086 289.62 90.2398 289.721 91.0838 289.482C91.9427 289.237 92.6801 288.674 93.296 287.793L90.6461 286.645L91.1996 285.367L96.5306 287.675ZM98.3181 294.965C97.4868 294.605 96.9297 294.068 96.6469 293.353C96.379 292.632 96.452 291.794 96.866 290.838L98.783 286.411L100.139 286.998L98.3639 291.098C97.7564 292.501 98.0346 293.454 99.1985 293.958C99.8843 294.255 100.488 294.257 101.01 293.965C101.546 293.666 101.951 293.2 102.226 292.566L103.927 288.638L105.283 289.226L102.171 296.412L100.815 295.824L101.382 294.515C100.987 294.887 100.518 295.115 99.9745 295.201C99.4418 295.291 98.8897 295.213 98.3181 294.965ZM107.398 298.897C106.286 298.416 105.566 297.684 105.239 296.703C104.921 295.726 105.001 294.687 105.478 293.586C105.95 292.495 106.664 291.73 107.619 291.292C108.584 290.859 109.612 290.878 110.703 291.351C111.264 291.594 111.712 291.942 112.046 292.395C112.381 292.848 112.565 293.348 112.601 293.894L113.147 292.631L114.488 293.212L111.376 300.397L110.036 299.817L110.582 298.554C110.165 298.892 109.664 299.094 109.079 299.162C108.499 299.219 107.939 299.131 107.398 298.897ZM108.112 297.762C108.87 298.091 109.569 298.103 110.206 297.799C110.859 297.489 111.34 296.976 111.65 296.259C111.965 295.531 112.01 294.829 111.786 294.152C111.575 293.468 111.091 292.962 110.333 292.634C109.605 292.319 108.917 292.311 108.269 292.611C107.626 292.9 107.142 293.418 106.818 294.166C106.494 294.915 106.447 295.622 106.677 296.289C106.906 296.956 107.384 297.447 108.112 297.762ZM113.712 301.409L116.823 294.223L118.179 294.81L117.471 296.447C117.853 295.934 118.305 295.617 118.826 295.497C119.351 295.367 119.853 295.405 120.331 295.612C120.611 295.734 120.821 295.849 120.959 295.958L120.419 297.205C120.276 297.106 120.06 296.994 119.769 296.868C119.093 296.576 118.457 296.621 117.859 297.004C117.272 297.391 116.796 298.006 116.431 298.847L115.068 301.996L113.712 301.409ZM129.282 295.194L130.638 295.781L125.913 306.692L124.573 306.112L125.12 304.849C124.702 305.187 124.201 305.389 123.616 305.457C123.036 305.514 122.476 305.426 121.936 305.192C120.824 304.711 120.104 303.979 119.776 302.998C119.458 302.021 119.538 300.982 120.015 299.881C120.488 298.79 121.201 298.025 122.156 297.587C123.121 297.154 124.149 297.173 125.24 297.646C125.802 297.889 126.249 298.237 126.584 298.69C126.918 299.143 127.103 299.643 127.138 300.189L127.462 299.44L127.446 299.434L129.282 295.194ZM122.649 304.057C123.408 304.386 124.106 304.398 124.743 304.094C125.396 303.784 125.877 303.271 126.188 302.554C126.503 301.826 126.548 301.124 126.323 300.447C126.113 299.763 125.628 299.257 124.87 298.929C124.142 298.614 123.455 298.606 122.807 298.906C122.163 299.195 121.68 299.713 121.356 300.461C121.032 301.21 120.984 301.917 121.214 302.584C121.443 303.251 121.922 303.742 122.649 304.057ZM132.269 309.445L136.994 298.533L138.413 299.148L134.268 308.718L138.913 310.73L138.333 312.07L132.269 309.445ZM147.897 311.455C147.812 311.652 147.679 311.916 147.5 312.245L141.935 309.835C141.648 310.526 141.622 311.156 141.856 311.727C142.095 312.287 142.557 312.715 143.243 313.012C144.199 313.426 144.986 313.347 145.604 312.776L146.96 313.363C146.547 313.974 145.95 314.357 145.167 314.511C144.384 314.666 143.572 314.561 142.73 314.197C141.629 313.72 140.897 313.002 140.535 312.043C140.187 311.078 140.266 310.014 140.77 308.85C141.265 307.707 141.983 306.932 142.924 306.525C143.865 306.118 144.871 306.146 145.942 306.61C146.96 307.051 147.646 307.718 147.999 308.611C148.363 309.509 148.329 310.457 147.897 311.455ZM142.387 308.791L146.658 310.641C146.933 310.007 146.962 309.427 146.745 308.901C146.539 308.38 146.108 307.978 145.454 307.694C144.809 307.415 144.209 307.377 143.652 307.58C143.105 307.788 142.684 308.191 142.387 308.791ZM151.356 316.359C151.73 316.521 152.043 316.625 152.294 316.672L151.774 317.872C151.431 317.81 151.015 317.673 150.527 317.462C150.309 317.367 150.121 317.274 149.964 317.181C149.817 317.093 149.654 316.954 149.477 316.766C149.299 316.578 149.173 316.37 149.1 316.14C149.031 315.901 149.012 315.603 149.043 315.246C149.079 314.879 149.193 314.472 149.387 314.025L150.973 310.362L149.679 309.801L150.172 308.664L151.466 309.224L152.451 306.948L153.807 307.535L152.822 309.811L154.63 310.594L154.137 311.732L152.329 310.949L150.871 314.316C150.597 314.95 150.51 315.406 150.612 315.684C150.713 315.963 150.961 316.188 151.356 316.359Z" fill="black"/>
</svg>
