<svg width="169" height="165" viewBox="0 0 169 165" fill="none" xmlns="http://www.w3.org/2000/svg">
<path fill-rule="evenodd" clip-rule="evenodd" d="M64.5614 128.436C70.5728 128.393 75.4802 133.232 75.5225 139.244L75.555 143.862C75.5972 149.873 70.7583 154.78 64.7469 154.823C58.7355 154.865 53.828 150.026 53.7858 144.015L53.7533 139.397C53.711 133.385 58.55 128.478 64.5614 128.436Z" fill="white"/>
<path fill-rule="evenodd" clip-rule="evenodd" d="M95.3553 24.0471C95.3396 24.0486 95.3365 24.0488 95.3455 24.0459C92.7796 24.8803 90.6853 27.6938 90.9097 35.3208C91.1187 42.4207 93.4387 50.6411 95.589 56.0416C96.9232 59.3927 95.2882 63.1909 91.9371 64.5251C88.5861 65.8593 84.7879 64.2243 83.4536 60.8733C80.9759 54.6502 78.123 44.86 77.8535 35.705C77.5996 27.077 79.7216 15.3912 91.3065 11.6243C95.8146 10.1584 100.539 11.4126 104.302 13.0558C108.282 14.7935 112.458 17.5262 116.538 20.7556C124.727 27.2373 133.379 36.4004 140.469 45.9737C147.475 55.4342 153.44 65.9428 155.58 75.1581C156.651 79.7699 156.934 84.7755 155.186 89.3095C153.303 94.1923 149.421 97.6063 144.131 99.2773C135.411 102.032 126.586 101.437 118.489 99.5598C110.426 97.6907 102.657 94.4436 95.9502 91.5031C94.9371 91.0589 93.9566 90.626 93.007 90.2068C87.3796 87.7222 82.8399 85.7179 79.0549 84.7004C76.9 84.1211 75.5798 84.0405 74.8451 84.1317C74.3894 84.1883 74.3413 84.2696 74.3171 84.3103C74.3141 84.3155 74.3114 84.32 74.3083 84.3237C72.055 87.0731 71.068 92.2873 71.6698 99.2815C72.2421 105.934 74.1159 112.615 75.6395 116.621C76.9218 119.992 75.2283 123.765 71.8569 125.047C68.4856 126.329 64.7132 124.636 63.4309 121.265C61.5689 116.369 59.3521 108.492 58.656 100.401C57.9893 92.6521 58.5561 82.9377 64.2059 76.0441C69.3484 69.7694 77.0618 70.639 82.446 72.0864C87.2915 73.3891 92.929 75.8849 98.4453 78.327C99.3666 78.7349 100.284 79.1413 101.195 79.5404C107.865 82.4647 114.664 85.2649 121.438 86.8354C128.178 88.3977 134.46 88.6342 140.196 86.8221C142.135 86.2097 142.701 85.3811 142.999 84.6097C143.43 83.4897 143.627 81.4298 142.856 78.1128C141.314 71.4704 136.578 62.6678 129.972 53.7474C123.449 44.9397 115.576 36.6522 108.432 30.9975C104.845 28.1587 101.653 26.1517 99.0756 25.0263C96.5716 23.933 95.4908 24.0344 95.3553 24.0471Z" fill="white"/>
</svg>
