<svg width="172" height="162" viewBox="0 0 172 162" fill="none" xmlns="http://www.w3.org/2000/svg">
<g clip-path="url(#clip0_1_2239)">
<path d="M115.923 25.3662C117.928 24.7358 120.005 26.1118 120.206 28.204L120.539 31.6698C120.708 33.4331 122.237 34.7495 124.006 34.6551L127.483 34.4695C129.582 34.3575 131.251 36.2067 130.926 38.2833L130.387 41.723C130.112 43.4731 131.266 45.1284 133.003 45.4769L136.416 46.1618C138.477 46.5753 139.634 48.7815 138.803 50.7119L137.425 53.9095C136.724 55.5363 137.43 57.4265 139.025 58.1959L142.161 59.7083C144.055 60.6213 144.626 63.046 143.341 64.7088L141.211 67.4633C140.128 68.8647 140.341 70.8711 141.695 72.0131L144.357 74.2579C145.963 75.6131 145.914 78.1038 144.256 79.3947L141.508 81.533C140.11 82.621 139.818 84.6173 140.845 86.0603L142.865 88.8964C144.084 90.6086 143.417 93.0088 141.49 93.8467L138.296 95.2345C136.672 95.9406 135.892 97.8016 136.529 99.4547L137.78 102.704C138.535 104.666 137.292 106.825 135.216 107.157L131.778 107.707C130.029 107.987 128.811 109.595 129.017 111.355L129.42 114.813C129.664 116.901 127.923 118.683 125.83 118.489L122.363 118.166C120.599 118.002 119.02 119.258 118.781 121.013L118.312 124.463C118.029 126.546 115.899 127.839 113.921 127.13L110.643 125.956C108.975 125.358 107.133 126.181 106.465 127.822L105.153 131.047C104.36 132.994 101.976 133.717 100.236 132.538L97.3534 130.586C95.8867 129.592 93.8977 129.931 92.843 131.355L90.7697 134.152C89.5181 135.84 87.0292 135.948 85.6367 134.373L83.3301 131.765C82.1565 130.438 80.1457 130.272 78.7702 131.388L76.0664 133.582C74.4342 134.906 71.9968 134.392 71.0396 132.52L69.454 129.42C68.6473 127.843 66.741 127.182 65.1311 127.921L61.9667 129.374C60.0565 130.25 57.8237 129.146 57.3619 127.095L56.597 123.698C56.2078 121.97 54.5259 120.856 52.7828 121.171L49.3566 121.791C47.2883 122.165 45.4004 120.54 45.4631 118.439L45.5669 114.959C45.6198 113.188 44.2678 111.69 42.501 111.562L39.0284 111.311C36.932 111.159 35.5076 109.115 36.0908 107.095L37.0569 103.75C37.5484 102.049 36.6114 100.262 34.932 99.6983L31.631 98.5909C29.6383 97.9224 28.7669 95.5886 29.834 93.7777L31.6016 90.778C32.5009 89.2518 32.0377 87.2881 30.5511 86.3247L27.6293 84.4312C25.8654 83.2881 25.6018 80.8109 27.0858 79.3223L29.5438 76.8564C30.7944 75.6019 30.8341 73.5846 29.6338 72.2818L27.2747 69.7212C25.8505 68.1753 26.2113 65.7104 28.0187 64.6376L31.0128 62.8605C32.5361 61.9563 33.0762 60.0123 32.2377 58.452L30.5894 55.3851C29.5944 53.5336 30.5569 51.2358 32.5744 50.6462L35.9163 49.6695C37.6166 49.1726 38.6232 47.424 38.199 45.7042L37.3653 42.3237C36.862 40.283 38.3656 38.2967 40.4664 38.2274L43.9462 38.1125C45.7167 38.0541 47.1265 36.6107 47.1434 34.8394L47.1765 31.3578C47.1965 29.256 49.1469 27.7061 51.1989 28.1614L54.598 28.9155C56.3273 29.2992 58.0518 28.2518 58.5087 26.5403L59.4066 23.1763C59.9487 21.1455 62.2232 20.1294 64.0975 21.0807L67.2023 22.6564C68.7819 23.4581 70.7127 22.8725 71.5808 21.3284L73.2871 18.2934C74.3172 16.4612 76.773 16.0426 78.3518 17.4302L80.9672 19.7285C82.2978 20.8979 84.3136 20.8108 85.5384 19.5311L87.9459 17.0158C89.3992 15.4974 91.882 15.7027 93.0661 17.4392L95.0278 20.3158C96.0257 21.7794 97.9998 22.1963 99.5044 21.2614L102.462 19.4239C104.247 18.3146 106.601 19.1309 107.316 21.1074L108.501 24.3814C109.103 26.0471 110.912 26.942 112.601 26.4106L115.923 25.3662Z" fill="white"/>
<mask id="path-2-inside-1_1_2239" fill="white">
<path d="M112.853 29.9992C114.858 29.3688 116.935 30.7447 117.136 32.837L117.377 35.3423C117.547 37.1056 119.076 38.422 120.844 38.3276L123.358 38.1935C125.457 38.0815 127.126 39.9307 126.8 42.0072L126.411 44.4938C126.136 46.2438 127.29 47.8991 129.027 48.2476L131.494 48.7427C133.555 49.1562 134.712 51.3624 133.88 53.2928L132.885 55.6043C132.184 57.2311 132.889 59.1213 134.485 59.8907L136.752 60.984C138.645 61.897 139.217 64.3217 137.932 65.9845L136.392 67.9757C135.309 69.3771 135.522 71.3834 136.876 72.5255L138.8 74.1482C140.407 75.5034 140.358 77.9941 138.699 79.285L136.713 80.8307C135.315 81.9187 135.023 83.915 136.05 85.358L137.51 87.4082C138.729 89.1203 138.062 91.5206 136.135 92.3584L133.826 93.3617C132.202 94.0678 131.422 95.9287 132.059 97.5819L132.963 99.9307C133.718 101.892 132.475 104.051 130.4 104.383L127.914 104.781C126.165 105.061 124.947 106.67 125.153 108.429L125.444 110.929C125.688 113.017 123.947 114.799 121.854 114.604L119.348 114.372C117.584 114.208 116.005 115.463 115.766 117.218L115.427 119.712C115.144 121.795 113.014 123.088 111.036 122.379L108.666 121.53C106.998 120.933 105.156 121.756 104.489 123.397L103.54 125.728C102.747 127.675 100.364 128.398 98.6232 127.219L96.5393 125.808C95.0726 124.814 93.0837 125.153 92.0289 126.576L90.5302 128.598C89.2786 130.287 86.7897 130.395 85.3972 128.82L83.7298 126.935C82.5562 125.608 80.5454 125.442 79.1699 126.558L77.2154 128.144C75.5832 129.468 73.1457 128.953 72.1885 127.082L71.0423 124.841C70.2356 123.264 68.3294 122.603 66.7195 123.342L64.432 124.392C62.5217 125.269 60.2889 124.164 59.8272 122.113L59.2742 119.658C58.8851 117.93 57.2031 116.815 55.46 117.131L52.9833 117.579C50.915 117.953 49.0271 116.327 49.0898 114.226L49.1649 111.711C49.2177 109.94 47.8657 108.442 46.099 108.314L43.5886 108.132C41.4922 107.98 40.0679 105.937 40.6511 103.917L41.3495 101.499C41.841 99.7973 40.9039 98.0105 39.2245 97.4471L36.8383 96.6465C34.8456 95.978 33.9742 93.6442 35.0413 91.8333L36.3191 89.6649C37.2184 88.1387 36.7551 86.175 35.2686 85.2116L33.1565 83.8428C31.3926 82.6998 31.129 80.2225 32.6129 78.7339L34.3898 76.9514C35.6404 75.6968 35.6801 73.6796 34.4798 72.3768L32.7744 70.5258C31.3502 68.9799 31.711 66.515 33.5185 65.4422L35.6829 64.1575C37.2062 63.2534 37.7463 61.3094 36.9077 59.749L35.7162 57.532C34.7212 55.6806 35.6837 53.3828 37.7012 52.7932L40.117 52.0872C41.8173 51.5903 42.8239 49.8417 42.3997 48.1218L41.797 45.6781C41.2937 43.6374 42.7973 41.6511 44.8981 41.5818L47.4136 41.4987C49.1841 41.4403 50.5939 39.997 50.6108 38.2256L50.6347 35.7089C50.6547 33.6071 52.6051 32.0572 54.6571 32.5124L57.1142 33.0576C58.8436 33.4413 60.5681 32.3939 61.0249 30.6824L61.674 28.2506C62.2161 26.2198 64.4906 25.2037 66.3649 26.155L68.6093 27.2941C70.1889 28.0958 72.1197 27.5101 72.9878 25.966L74.2213 23.7721C75.2513 21.9399 77.7071 21.5213 79.286 22.9088L81.1766 24.5703C82.5072 25.7396 84.5229 25.6526 85.7478 24.3729L87.4881 22.5546C88.9414 21.0362 91.4242 21.2415 92.6084 22.9781L94.0264 25.0575C95.0244 26.521 96.9985 26.938 98.5031 26.0031L100.641 24.6748C102.426 23.5654 104.78 24.3817 105.495 26.3582L106.351 28.725C106.954 30.3907 108.762 31.2855 110.452 30.7542L112.853 29.9992Z"/>
</mask>
<path d="M112.853 29.9992C114.858 29.3688 116.935 30.7447 117.136 32.837L117.377 35.3423C117.547 37.1056 119.076 38.422 120.844 38.3276L123.358 38.1935C125.457 38.0815 127.126 39.9307 126.8 42.0072L126.411 44.4938C126.136 46.2438 127.29 47.8991 129.027 48.2476L131.494 48.7427C133.555 49.1562 134.712 51.3624 133.88 53.2928L132.885 55.6043C132.184 57.2311 132.889 59.1213 134.485 59.8907L136.752 60.984C138.645 61.897 139.217 64.3217 137.932 65.9845L136.392 67.9757C135.309 69.3771 135.522 71.3834 136.876 72.5255L138.8 74.1482C140.407 75.5034 140.358 77.9941 138.699 79.285L136.713 80.8307C135.315 81.9187 135.023 83.915 136.05 85.358L137.51 87.4082C138.729 89.1203 138.062 91.5206 136.135 92.3584L133.826 93.3617C132.202 94.0678 131.422 95.9287 132.059 97.5819L132.963 99.9307C133.718 101.892 132.475 104.051 130.4 104.383L127.914 104.781C126.165 105.061 124.947 106.67 125.153 108.429L125.444 110.929C125.688 113.017 123.947 114.799 121.854 114.604L119.348 114.372C117.584 114.208 116.005 115.463 115.766 117.218L115.427 119.712C115.144 121.795 113.014 123.088 111.036 122.379L108.666 121.53C106.998 120.933 105.156 121.756 104.489 123.397L103.54 125.728C102.747 127.675 100.364 128.398 98.6232 127.219L96.5393 125.808C95.0726 124.814 93.0837 125.153 92.0289 126.576L90.5302 128.598C89.2786 130.287 86.7897 130.395 85.3972 128.82L83.7298 126.935C82.5562 125.608 80.5454 125.442 79.1699 126.558L77.2154 128.144C75.5832 129.468 73.1457 128.953 72.1885 127.082L71.0423 124.841C70.2356 123.264 68.3294 122.603 66.7195 123.342L64.432 124.392C62.5217 125.269 60.2889 124.164 59.8272 122.113L59.2742 119.658C58.8851 117.93 57.2031 116.815 55.46 117.131L52.9833 117.579C50.915 117.953 49.0271 116.327 49.0898 114.226L49.1649 111.711C49.2177 109.94 47.8657 108.442 46.099 108.314L43.5886 108.132C41.4922 107.98 40.0679 105.937 40.6511 103.917L41.3495 101.499C41.841 99.7973 40.9039 98.0105 39.2245 97.4471L36.8383 96.6465C34.8456 95.978 33.9742 93.6442 35.0413 91.8333L36.3191 89.6649C37.2184 88.1387 36.7551 86.175 35.2686 85.2116L33.1565 83.8428C31.3926 82.6998 31.129 80.2225 32.6129 78.7339L34.3898 76.9514C35.6404 75.6968 35.6801 73.6796 34.4798 72.3768L32.7744 70.5258C31.3502 68.9799 31.711 66.515 33.5185 65.4422L35.6829 64.1575C37.2062 63.2534 37.7463 61.3094 36.9077 59.749L35.7162 57.532C34.7212 55.6806 35.6837 53.3828 37.7012 52.7932L40.117 52.0872C41.8173 51.5903 42.8239 49.8417 42.3997 48.1218L41.797 45.6781C41.2937 43.6374 42.7973 41.6511 44.8981 41.5818L47.4136 41.4987C49.1841 41.4403 50.5939 39.997 50.6108 38.2256L50.6347 35.7089C50.6547 33.6071 52.6051 32.0572 54.6571 32.5124L57.1142 33.0576C58.8436 33.4413 60.5681 32.3939 61.0249 30.6824L61.674 28.2506C62.2161 26.2198 64.4906 25.2037 66.3649 26.155L68.6093 27.2941C70.1889 28.0958 72.1197 27.5101 72.9878 25.966L74.2213 23.7721C75.2513 21.9399 77.7071 21.5213 79.286 22.9088L81.1766 24.5703C82.5072 25.7396 84.5229 25.6526 85.7478 24.3729L87.4881 22.5546C88.9414 21.0362 91.4242 21.2415 92.6084 22.9781L94.0264 25.0575C95.0244 26.521 96.9985 26.938 98.5031 26.0031L100.641 24.6748C102.426 23.5654 104.78 24.3817 105.495 26.3582L106.351 28.725C106.954 30.3907 108.762 31.2855 110.452 30.7542L112.853 29.9992Z" fill="black" stroke="black" stroke-width="1.14649" mask="url(#path-2-inside-1_1_2239)"/>
<circle cx="85.6731" cy="75.6723" r="45.4276" transform="rotate(33.5272 85.6731 75.6723)" fill="#FC401D" stroke="black" stroke-width="0.573244"/>
<g clip-path="url(#clip1_1_2239)">
<circle cx="85.6731" cy="75.6726" r="28.8957" transform="rotate(33.5272 85.6731 75.6726)" fill="#FFE033" stroke="black" stroke-width="0.573244"/>
<path d="M103.186 88.981C99.8669 93.3483 95.036 96.318 89.6407 97.3074C84.2454 98.2968 78.6752 97.2346 74.0226 94.3291C69.37 91.4237 65.9709 86.8846 64.4922 81.6025C63.0134 76.3203 63.5616 70.6762 66.0293 65.7774" stroke="black" stroke-width="0.573244"/>
<ellipse cx="103.36" cy="88.2702" rx="4.48793" ry="3.55331" transform="rotate(33.5272 103.36 88.2702)" fill="#FFE033"/>
<path fill-rule="evenodd" clip-rule="evenodd" d="M99.7654 85.8081C98.9879 87.616 99.7162 89.871 101.577 91.1042C103.439 92.3374 105.799 92.129 107.161 90.7081L107.487 90.9243C106.015 92.5055 103.423 92.7482 101.384 91.3968C99.3439 90.0453 98.557 87.5641 99.4391 85.5918L99.7654 85.8081Z" fill="black"/>
<path fill-rule="evenodd" clip-rule="evenodd" d="M76.6123 74.0143C78.8119 75.4717 82.7608 73.3841 85.4326 69.3517C88.1044 65.3192 88.4872 60.8689 86.2877 59.4115C84.6236 58.3089 81.958 59.2355 79.6018 61.4984L79.3064 66.2915L77.0253 64.7801C74.7599 68.6133 74.5405 72.6416 76.6123 74.0143Z" fill="#000B1F"/>
<path fill-rule="evenodd" clip-rule="evenodd" d="M90.7912 83.4095C92.9907 84.8669 96.9397 82.7793 99.6115 78.7469C102.283 74.7144 102.666 70.2641 100.467 68.8067C98.8025 67.7042 96.1371 68.6307 93.781 70.8933L93.4855 75.6859L91.2046 74.1746C88.9388 78.008 88.7193 82.0367 90.7912 83.4095Z" fill="#000B1F"/>
</g>
<path d="M58.666 58.6118L51.6588 52.7904L53.006 51.1688L55.8389 53.5223L57.8515 51.0998L55.0185 48.7463L56.3658 47.1246L63.373 52.946L62.0257 54.5676L59.2429 52.2557L57.2303 54.6782L60.0132 56.9901L58.666 58.6118Z" fill="white"/>
<path d="M69.9685 48.1282L69.099 47.3764L66.4041 49.1523L66.752 50.2479L64.8938 51.4724L62.4564 42.1686L64.2277 41.0013L71.8267 46.9036L69.9685 48.1282ZM65.8858 47.5145L67.7984 46.2541L64.615 43.5048L65.8858 47.5145Z" fill="white"/>
<path d="M77.9118 44.963L77.0231 42.0911C76.6582 42.4674 76.1028 42.771 75.3569 43.0018C74.5529 43.2506 73.8228 43.195 73.1665 42.835C72.5076 42.4667 72.0589 41.8972 71.8203 41.1264L70.7431 37.6453L72.7572 37.0221L73.6882 40.0307C74.0191 41.0999 74.6362 41.4947 75.5396 41.2151C76.0286 41.0638 76.3667 40.8502 76.5538 40.5743L75.2188 36.2603L77.2204 35.6409L79.9135 44.3436L77.9118 44.963Z" fill="white"/>
<path d="M86.6375 38.3173L83.5317 43.3937L83.5371 44.0184L81.4289 44.0365L81.3505 34.927L83.4587 34.9089L83.5075 40.5828L86.6133 35.5064L86.608 34.8818L88.7161 34.8636L88.7946 43.9731L86.6864 43.9913L86.6375 38.3173Z" fill="white"/>
<path d="M91.3695 44.226L94.0064 35.5062L96.0244 36.1165L94.9584 39.6418L97.9729 40.5534L99.039 37.0281L101.057 37.6383L98.4201 46.3582L96.4021 45.7479L97.4493 42.2849L94.4348 41.3733L93.3875 44.8363L91.3695 44.226Z" fill="white"/>
<path d="M105.505 50.628L105.86 49.5348L103.177 47.741L102.302 48.4871L100.452 47.2502L108.08 41.3912L109.843 42.5702L107.355 51.8649L105.505 50.628ZM104.485 46.6274L106.389 47.9004L107.686 43.8992L104.485 46.6274Z" fill="white"/>
<path d="M108.096 52.7432L114.982 46.7787L118.629 50.9889L117.35 52.0966L115.084 49.48L113.52 50.8348L115.786 53.4514L114.537 54.5335L112.27 51.9169L110.755 53.2291L113.022 55.8457L111.743 56.9534L108.096 52.7432Z" fill="white"/>
<path d="M113.156 58.4425L121.5 54.7851L122.482 57.0259L117.53 61.8396L124.426 61.4599L125.387 63.653L117.044 67.3103L116.234 65.4629L121.645 63.0908L115.424 63.6154L114.797 62.1851L119.413 57.9022L113.966 60.2899L113.156 58.4425Z" fill="white"/>
<path d="M127.068 77.0699C127.08 78.0155 126.777 78.8002 126.16 79.4238C125.552 80.0473 124.77 80.3649 123.816 80.3766C122.862 80.3884 122.069 80.0901 121.436 79.4818C120.813 78.8734 120.495 78.0964 120.484 77.1508L120.462 75.381L117.937 75.412L117.912 73.3039L127.021 73.192L127.068 77.0699ZM122.197 76.8044C122.203 77.2295 122.354 77.5747 122.653 77.84C122.951 78.114 123.33 78.2481 123.79 78.2425C124.25 78.2368 124.625 78.0934 124.917 77.8122C125.209 77.5396 125.352 77.1908 125.347 76.7657L125.329 75.3212L122.18 75.3599L122.197 76.8044Z" fill="#FFDE40"/>
<path d="M117.782 80.6396L126.629 82.811L125.301 88.2204L123.658 87.8172L124.483 84.4552L122.474 83.962L121.649 87.324L120.044 86.93L120.869 83.5681L118.922 83.0904L118.097 86.4523L116.454 86.0491L117.782 80.6396Z" fill="#FFDE40"/>
<path d="M119.845 97.5579C119.301 98.4757 118.567 99.0338 117.642 99.232C116.721 99.4421 115.838 99.2971 114.995 98.797C114.144 98.2925 113.586 97.5834 113.321 96.6697C113.052 95.7634 113.189 94.8513 113.733 93.9335L113.86 93.7208L112.998 93.2096L114.073 91.3962L114.935 91.9074L115.054 91.7059C115.603 90.7805 116.342 90.215 117.271 90.0094C118.195 89.8112 119.083 89.9643 119.934 90.4688C120.777 90.9689 121.33 91.6699 121.592 92.5717C121.857 93.4854 121.715 94.4049 121.166 95.3303L121.047 95.5318L121.909 96.0429L120.833 97.8563L119.971 97.3452L119.845 97.5579ZM118.885 92.2374C118.43 91.9675 117.984 91.8597 117.549 91.914C117.116 91.9802 116.785 92.2073 116.554 92.5954L116.362 92.92L119.474 94.7654L119.666 94.4408C119.896 94.0527 119.937 93.653 119.787 93.2416C119.634 92.8377 119.333 92.503 118.885 92.2374ZM115.24 94.8118C115.01 95.1998 114.973 95.6017 115.13 96.0176C115.287 96.4334 115.589 96.7741 116.037 97.0396C116.485 97.3051 116.925 97.4048 117.358 97.3385C117.79 97.2723 118.122 97.0452 118.352 96.6572L118.538 96.3437L115.426 94.4983L115.24 94.8118Z" fill="#FFDE40"/>
<path d="M105.375 101.639L106.338 102.267L108.77 100.145L108.278 99.1064L109.954 97.643L113.621 106.534L112.023 107.929L103.699 103.103L105.375 101.639ZM109.504 101.698L107.778 103.205L111.302 105.501L109.504 101.698Z" fill="#FFDE40"/>
<path d="M100.307 109.813L95.1142 107.103L97.3915 106.075L101.874 108.635L100.155 104.827L102.077 103.96L105.825 112.262L103.904 113.13L102.345 109.678L102.132 109.775C101.871 109.893 101.721 110.141 101.683 110.52L101.329 112.993C101.257 113.53 101.128 113.94 100.942 114.224C100.76 114.516 100.479 114.748 100.1 114.919L99.3048 115.278L98.5444 113.594L98.9358 113.417C99.2046 113.296 99.3789 112.965 99.4585 112.424L99.7054 110.599C99.7159 110.433 99.7705 110.279 99.8692 110.14C99.9715 110.008 100.086 109.913 100.212 109.856L100.307 109.813Z" fill="#FFDE40"/>
<path d="M91.3612 107.695L92.4243 114.852L94.8958 114.485L95.1711 116.339L88.1426 117.383L87.8673 115.529L90.3517 115.16L89.2887 108.003L91.3612 107.695Z" fill="#FFDE40"/>
<path d="M77.9862 108.533C78.9885 107.733 80.2204 107.433 81.6818 107.632C83.1431 107.832 84.2495 108.451 85.0008 109.491C85.7509 110.539 86.035 111.729 85.8532 113.061C85.6713 114.394 85.0792 115.46 84.0769 116.26C83.0733 117.069 81.8409 117.374 80.3795 117.174C78.9181 116.975 77.8124 116.351 77.0623 115.303C76.311 114.263 76.0263 113.078 76.2081 111.745C76.3899 110.413 76.9826 109.342 77.9862 108.533ZM81.4266 109.502C80.6014 109.389 79.9191 109.576 79.3798 110.063C78.8307 110.558 78.4999 111.217 78.3873 112.043C78.2746 112.868 78.4172 113.588 78.8149 114.202C79.2028 114.825 79.8094 115.192 80.6347 115.305C81.4685 115.418 82.16 115.228 82.709 114.734C83.2483 114.247 83.57 113.59 83.674 112.764C83.7952 111.94 83.6619 111.217 83.2739 110.595C82.8762 109.98 82.2604 109.616 81.4266 109.502Z" fill="#FFDE40"/>
<path d="M67.666 113.062C66.8039 112.673 66.2204 112.068 65.9156 111.245C65.6072 110.43 65.6491 109.588 66.0414 108.718C66.4336 107.848 67.0389 107.255 67.8572 106.938C68.6719 106.63 69.5104 106.67 70.3725 107.059L71.986 107.786L73.0237 105.485L74.9456 106.351L71.2015 114.656L67.666 113.062ZM69.963 108.759C69.5755 108.584 69.1985 108.576 68.8321 108.734C68.4577 108.889 68.1761 109.176 67.9871 109.595C67.7981 110.014 67.7695 110.415 67.9014 110.798C68.0253 111.178 68.2811 111.455 68.6686 111.63L69.9855 112.223L71.28 109.352L69.963 108.759Z" fill="#FFDE40"/>
<path d="M60.5475 104.113L66.2247 102.328L66.6312 101.854L68.232 103.226L62.3039 110.143L60.703 108.771L64.3954 104.463L58.7182 106.247L58.3117 106.721L56.7109 105.35L62.6391 98.4325L64.2399 99.8044L60.5475 104.113Z" fill="#FFDE40"/>
<path d="M60.8461 96.5821L53.1297 101.424L52.0091 99.6384L55.1288 97.6808L53.4548 95.0131L50.3351 96.9707L49.2145 95.1849L56.931 90.3429L58.0516 92.1287L54.987 94.0516L56.661 96.7193L59.7255 94.7963L60.8461 96.5821Z" fill="#FFDE40"/>
<path d="M47.1483 90.2585L45.4985 85.0612L47.2847 84.4941L48.2966 87.682L55.1933 85.4927L55.8312 87.5022L47.1483 90.2585Z" fill="#FFDE40"/>
<circle cx="49.7959" cy="70.8597" r="3.07695" transform="rotate(33.5272 49.7959 70.8597)" fill="white"/>
</g>
<defs>
<clipPath id="clip0_1_2239">
<rect width="123.63" height="123.63" fill="white" transform="translate(68.2848 -10) rotate(33.5272)"/>
</clipPath>
<clipPath id="clip1_1_2239">
<rect width="58.3647" height="58.3647" fill="white" transform="translate(77.4644 35.2271) rotate(33.5272)"/>
</clipPath>
</defs>
</svg>
