<svg width="229" height="183" viewBox="0 0 229 183" fill="none" xmlns="http://www.w3.org/2000/svg">
<rect x="1.00246" y="60.6515" width="198.329" height="127.326" rx="7.85123" transform="rotate(-17.5031 1.00246 60.6515)" fill="#251E1D" stroke="white" stroke-width="4.77901"/>
<rect x="42.8099" y="92.2081" width="137.567" height="31.0636" rx="2.73086" transform="rotate(-17.5031 42.8099 92.2081)" fill="#2F2827"/>
<circle cx="75.8556" cy="98.2516" r="47.1074" transform="rotate(-17.5031 75.8556 98.2516)" fill="#1B150C"/>
<circle cx="75.8557" cy="98.2517" r="21.8469" transform="rotate(-17.5031 75.8557 98.2517)" fill="#817B7A"/>
<circle opacity="0.5" cx="75.8558" cy="98.2516" r="18.4333" transform="rotate(-4.83577 75.8558 98.2516)" stroke="black" stroke-width="2.04815" stroke-linecap="round" stroke-dasharray="10.92 10.92"/>
<circle cx="75.8557" cy="98.2518" r="12.6302" transform="rotate(-17.5031 75.8557 98.2518)" fill="#9D998F"/>
<circle cx="75.8556" cy="98.2518" r="9.55802" transform="rotate(-17.5031 75.8556 98.2518)" fill="#202020"/>
<circle cx="75.8556" cy="98.2518" r="8.53395" transform="rotate(-17.5031 75.8556 98.2518)" stroke="#9D998F" stroke-width="2.04815" stroke-dasharray="4.1 4.1"/>
<circle cx="152.035" cy="74.2279" r="22.871" transform="rotate(-17.5031 152.035 74.2279)" fill="#1C160C"/>
<circle cx="152.035" cy="74.2279" r="20.1401" transform="rotate(-17.5031 152.035 74.2279)" fill="#817B7A"/>
<circle opacity="0.5" cx="152.035" cy="74.228" r="15.7025" transform="rotate(-27.7174 152.035 74.228)" stroke="black" stroke-width="2.04815" stroke-linecap="round" stroke-dasharray="341.36 341.36"/>
<circle cx="152.035" cy="74.2279" r="9.89938" transform="rotate(-17.5031 152.035 74.2279)" fill="#202020"/>
<circle cx="152.035" cy="74.2279" r="10.9235" transform="rotate(-17.5031 152.035 74.2279)" fill="#202020" stroke="#9D998F" stroke-width="2.04815"/>
<circle cx="152.035" cy="74.2279" r="8.87531" transform="rotate(-17.5031 152.035 74.2279)" fill="#202020" stroke="#9D998F" stroke-width="2.04815" stroke-dasharray="4.1 4.1"/>
<path fill-rule="evenodd" clip-rule="evenodd" d="M9.20885 60.569C6.33208 61.4762 4.73544 64.5438 5.64266 67.4205L39.2145 173.876C40.1217 176.753 43.1892 178.35 46.066 177.443L220.237 122.516C223.114 121.609 224.71 118.542 223.803 115.665L190.231 9.20885C189.324 6.33209 186.257 4.73545 183.38 5.64266L9.20885 60.569ZM45.4143 91.3868C43.9759 91.8404 43.1776 93.3742 43.6312 94.8126L51.3312 119.229C51.7848 120.667 53.3186 121.466 54.7569 121.012L180.746 81.2804C182.184 80.8268 182.983 79.293 182.529 77.8546L174.829 53.4381C174.376 51.9997 172.842 51.2014 171.403 51.655L45.4143 91.3868Z" fill="#251E1D"/>
<path fill-rule="evenodd" clip-rule="evenodd" d="M21.0787 67.5637C19.6403 68.0173 18.842 69.5511 19.2956 70.9894L40.1368 137.077C40.5904 138.515 42.1242 139.313 43.5626 138.86L200.154 89.4774C201.592 89.0238 202.39 87.49 201.937 86.0517L181.096 19.9644C180.642 18.526 179.108 17.7277 177.67 18.1813L21.0787 67.5637ZM45.4143 91.387C43.9759 91.8406 43.1776 93.3744 43.6312 94.8128L51.3311 119.229C51.7847 120.668 53.3185 121.466 54.7569 121.012L180.746 81.2806C182.184 80.827 182.983 79.2932 182.529 77.8548L174.829 53.4383C174.376 51.9999 172.842 51.2016 171.403 51.6552L45.4143 91.387Z" fill="#ABBBAF"/>
<rect x="24.179" y="69.4493" width="159.414" height="24.2364" rx="2.73086" transform="rotate(-17.5031 24.179 69.4493)" fill="#D9D9D9"/>
<path d="M37.7754 129.589L199.575 78.5636L201.937 86.0514C202.39 87.4898 201.592 89.0235 200.154 89.4771L43.5625 138.86C42.1241 139.313 40.5903 138.515 40.1367 137.076L37.7754 129.589Z" fill="#0079E4"/>
<circle cx="201.611" cy="116.493" r="7.16852" transform="rotate(-17.5031 201.611 116.493)" fill="#80807A"/>
<circle cx="56.7403" cy="162.179" r="7.16852" transform="rotate(-17.5031 56.7403 162.179)" fill="#80807A"/>
<rect x="26.4375" y="76.6117" width="159.414" height="0.682716" transform="rotate(-17.5031 26.4375 76.6117)" fill="#ABBBAF"/>
<rect x="29.0043" y="84.7505" width="159.414" height="0.682716" transform="rotate(-17.5031 29.0043 84.7505)" fill="#ABBBAF"/>
</svg>
