<svg width="445" height="355" viewBox="0 0 445 355" fill="none" xmlns="http://www.w3.org/2000/svg">
<rect x="1.16467" y="117.284" width="386.089" height="247.868" rx="15.2841" transform="rotate(-17.5031 1.16467 117.284)" fill="#251E1D" stroke="white" stroke-width="9.30334"/>
<rect x="82.5516" y="178.716" width="267.803" height="60.4717" rx="5.31619" transform="rotate(-17.5031 82.5516 178.716)" fill="#2F2827"/>
<circle cx="146.882" cy="190.481" r="91.7043" transform="rotate(-17.5031 146.882 190.481)" fill="#1B150C"/>
<circle cx="146.883" cy="190.481" r="42.5296" transform="rotate(-17.5031 146.883 190.481)" fill="#817B7A"/>
<circle opacity="0.5" cx="146.883" cy="190.481" r="35.8843" transform="rotate(-4.83577 146.883 190.481)" stroke="black" stroke-width="3.98715" stroke-linecap="round" stroke-dasharray="21.26 21.26"/>
<circle cx="146.882" cy="190.48" r="24.5874" transform="rotate(-17.5031 146.882 190.48)" fill="#9D998F"/>
<circle cx="146.882" cy="190.481" r="18.6067" transform="rotate(-17.5031 146.882 190.481)" fill="#202020"/>
<circle cx="146.882" cy="190.481" r="16.6131" transform="rotate(-17.5031 146.882 190.481)" stroke="#9D998F" stroke-width="3.98715" stroke-dasharray="7.97 7.97"/>
<circle cx="295.182" cy="143.713" r="44.5231" transform="rotate(-17.5031 295.182 143.713)" fill="#1C160C"/>
<circle cx="295.181" cy="143.714" r="39.2069" transform="rotate(-17.5031 295.181 143.714)" fill="#817B7A"/>
<circle opacity="0.5" cx="295.181" cy="143.713" r="30.5681" transform="rotate(-27.7174 295.181 143.713)" stroke="black" stroke-width="3.98715" stroke-linecap="round" stroke-dasharray="664.52 664.52"/>
<circle cx="295.181" cy="143.713" r="19.2712" transform="rotate(-17.5031 295.181 143.713)" fill="#202020"/>
<circle cx="295.182" cy="143.714" r="21.2648" transform="rotate(-17.5031 295.182 143.714)" fill="#202020" stroke="#9D998F" stroke-width="3.98715"/>
<circle cx="295.181" cy="143.713" r="17.2776" transform="rotate(-17.5031 295.181 143.713)" fill="#202020" stroke="#9D998F" stroke-width="3.98715" stroke-dasharray="7.97 7.97"/>
<path fill-rule="evenodd" clip-rule="evenodd" d="M17.1401 117.124C11.5399 118.89 8.43169 124.861 10.1978 130.461L75.5523 337.7C77.3184 343.3 83.29 346.408 88.8902 344.642L427.95 237.717C433.551 235.951 436.659 229.979 434.893 224.379L369.538 17.1402C367.772 11.54 361.8 8.43179 356.2 10.1979L17.1401 117.124ZM87.6217 177.117C84.8216 178 83.2675 180.986 84.1505 183.786L99.1401 231.318C100.023 234.118 103.009 235.672 105.809 234.789L351.073 157.442C353.873 156.559 355.427 153.574 354.544 150.774L339.555 103.242C338.672 100.442 335.686 98.8875 332.886 99.7706L87.6217 177.117Z" fill="#251E1D"/>
<path fill-rule="evenodd" clip-rule="evenodd" d="M40.2471 130.74C37.4469 131.623 35.8928 134.609 36.7759 137.409L77.3477 266.062C78.2307 268.862 81.2165 270.416 84.0166 269.533L388.854 173.4C391.654 172.517 393.208 169.531 392.325 166.731L351.753 38.078C350.87 35.2779 347.884 33.7238 345.084 34.6068L40.2471 130.74ZM87.6219 177.117C84.8218 178 83.2677 180.986 84.1507 183.786L99.1403 231.318C100.023 234.118 103.009 235.672 105.809 234.789L351.073 157.443C353.873 156.56 355.428 153.574 354.544 150.774L339.555 103.242C338.672 100.442 335.686 98.8879 332.886 99.771L87.6219 177.117Z" fill="#ABBBAF"/>
<rect x="46.2827" y="134.411" width="310.333" height="47.1812" rx="5.31619" transform="rotate(-17.5031 46.2827 134.411)" fill="#D9D9D9"/>
<path d="M72.7512 251.485L387.729 152.154L392.325 166.73C393.208 169.53 391.654 172.516 388.854 173.399L84.017 269.532C81.2169 270.415 78.2311 268.861 77.348 266.061L72.7512 251.485Z" fill="#0079E4"/>
<circle cx="391.692" cy="225.991" r="13.955" transform="rotate(-17.5031 391.692 225.991)" fill="#80807A"/>
<circle cx="109.67" cy="314.929" r="13.955" transform="rotate(-17.5031 109.67 314.929)" fill="#80807A"/>
<rect x="50.6796" y="148.354" width="310.333" height="1.32905" transform="rotate(-17.5031 50.6796 148.354)" fill="#ABBBAF"/>
<rect x="55.6761" y="164.198" width="310.333" height="1.32905" transform="rotate(-17.5031 55.6761 164.198)" fill="#ABBBAF"/>
</svg>
