<svg width="946" height="128" viewBox="0 0 946 128" fill="none" xmlns="http://www.w3.org/2000/svg">
<path fill-rule="evenodd" clip-rule="evenodd" d="M232.008 22.4644C234.113 22.2561 236.122 23.395 237.023 25.3083L274.023 103.808C275.201 106.306 274.13 109.286 271.632 110.463C269.135 111.64 266.155 110.57 264.978 108.072L233.969 42.2824L220.353 97.1444C219.688 99.8245 216.976 101.458 214.296 100.793C211.616 100.128 209.983 97.4158 210.648 94.7357L227.648 26.2357C228.157 24.1828 229.904 22.6726 232.008 22.4644Z" fill="#FFDE40"/>
<path fill-rule="evenodd" clip-rule="evenodd" d="M263.846 63.2068C264.527 65.8829 262.91 68.6045 260.234 69.2856C249.886 71.9195 237.306 77.9064 225.582 84.5201C213.929 91.0932 203.468 98.0863 197.448 102.479C195.217 104.107 192.089 103.618 190.461 101.388C188.834 99.1569 189.322 96.029 191.553 94.4012C197.866 89.7941 208.655 82.5871 220.669 75.8102C232.611 69.0739 246.114 62.5608 257.767 59.5947C260.443 58.9135 263.165 60.5307 263.846 63.2068Z" fill="#FFDE40"/>
<path fill-rule="evenodd" clip-rule="evenodd" d="M429.492 28.3361C434.966 28.6817 440.235 29.3599 443.584 30.8949C448.222 33.0207 450.084 37.6586 450.814 41.6949C451.571 45.8748 451.397 50.7927 450.815 55.6262C449.641 65.3606 446.628 76.1251 444.226 83.0738C443.324 85.6837 440.477 87.068 437.867 86.1658C435.257 85.2637 433.873 82.4166 434.775 79.8067C437.04 73.2553 439.827 63.2198 440.886 54.4293C441.42 50.0002 441.472 46.2244 440.974 43.4762C440.451 40.5843 439.579 40.0597 439.417 39.9855C437.966 39.3205 434.46 38.6696 428.862 38.3162C423.529 37.9795 417.003 37.9425 410.078 38.1014C399.504 38.3439 388.192 39.0378 379.13 39.7572C385.674 51.3761 394.309 66.1213 402.423 78.7796C407.324 86.4269 411.966 93.2043 415.801 98.052C417.73 100.49 419.351 102.307 420.62 103.481C421.22 104.037 421.646 104.358 421.904 104.522C424.341 104.966 426.127 107.163 425.994 109.703C425.848 112.461 423.495 114.578 420.738 114.433C419.062 114.345 417.663 113.652 416.722 113.076C415.71 112.455 414.736 111.661 413.828 110.82C412.008 109.137 410.019 106.861 407.959 104.257C403.816 99.0199 398.964 91.916 394.003 84.1758C384.061 68.6639 373.403 50.1609 366.621 37.8532C365.808 36.3773 365.793 34.5911 366.581 33.1016C367.369 31.6121 368.855 30.6199 370.532 30.4622C380.364 29.5378 395.712 28.4283 409.848 28.104C416.91 27.9421 423.754 27.9738 429.492 28.3361ZM422.081 104.623C422.081 104.623 422.068 104.618 422.042 104.604C422.067 104.615 422.08 104.622 422.081 104.623Z" fill="#FFDE40"/>
<path fill-rule="evenodd" clip-rule="evenodd" d="M470.652 38.7466C478.908 33.9841 488.504 32.9858 494.867 33.4537C495.749 33.5186 496.562 33.8088 497.251 34.2638C498.228 33.6202 499.434 33.3147 500.684 33.4871C506.283 34.2594 510.787 38.2621 513.952 42.7706C517.206 47.4066 519.609 53.336 520.787 59.5021C523.086 71.5394 520.952 86.6893 508.026 94.2553C496.97 100.727 483.853 103.328 473.098 99.2387C461.753 94.9243 454.727 83.8712 455.001 66.8596C455.231 52.5969 462.064 43.7007 470.652 38.7466ZM497.249 42.6168C496.36 43.203 495.278 43.5109 494.134 43.4267C489.163 43.0613 481.709 43.913 475.649 47.4088C469.92 50.713 465.17 56.4835 465 67.0208C464.774 81.0092 470.248 87.4561 476.653 89.8917C483.648 92.552 493.531 91.1532 502.974 85.6252C510.549 81.1913 512.915 71.5911 510.964 61.3783C510.017 56.4194 508.107 51.8488 505.767 48.516C503.338 45.0558 500.968 43.621 499.317 43.3933C498.553 43.2879 497.853 43.015 497.249 42.6168Z" fill="#FFDE40"/>
<path fill-rule="evenodd" clip-rule="evenodd" d="M5.09369 17.5232C7.80933 17.0225 10.4167 18.818 10.9175 21.5336C13.0634 33.1712 16.9537 51.2039 21.6296 67.4173C23.9698 75.532 26.4757 83.0811 29.0193 89.1068C31.6742 95.3963 34.0342 99.1787 35.7427 100.634C37.8448 102.425 38.0973 105.581 36.3066 107.683C34.5159 109.785 31.3602 110.037 29.2581 108.247C25.5665 105.102 22.4557 99.2718 19.8065 92.9957C17.0459 86.4559 14.4143 78.4862 12.0212 70.1884C7.23043 53.5767 3.2707 35.2095 1.08329 23.347C0.582534 20.6314 2.37805 18.024 5.09369 17.5232Z" fill="#FFDE40"/>
<path fill-rule="evenodd" clip-rule="evenodd" d="M74.84 32.1832C75.5342 34.8559 73.9303 37.5854 71.2576 38.2796C56.9095 42.0064 43.5592 50.7964 32.5851 60.5521C21.6342 70.2871 13.3772 80.6912 9.19982 87.1543C7.70085 89.4735 4.60563 90.1384 2.28646 88.6394C-0.0327024 87.1404 -0.697601 84.0452 0.801373 81.726C5.45732 74.5225 14.3004 63.4266 25.9411 53.0783C37.5587 42.7506 52.2917 32.874 68.7436 28.6008C71.4164 27.9065 74.1458 29.5105 74.84 32.1832Z" fill="#FFDE40"/>
<path fill-rule="evenodd" clip-rule="evenodd" d="M17.5029 64.2875C17.5874 61.5274 19.8934 59.3583 22.6535 59.4428C31.228 59.7053 44.7914 61.4454 58.0015 65.8328C71.0727 70.1742 84.6984 77.4056 92.2222 89.2614C93.7018 91.5929 93.0112 94.6825 90.6797 96.1621C88.3481 97.6418 85.2585 96.9511 83.7789 94.6196C78.1027 85.6753 67.145 79.4068 54.8495 75.3231C42.693 71.2856 30.1064 69.6757 22.3475 69.4381C19.5874 69.3536 17.4184 67.0476 17.5029 64.2875Z" fill="#FFDE40"/>
<path fill-rule="evenodd" clip-rule="evenodd" d="M121.441 5.94079C124.18 5.90839 126.434 8.08455 126.499 10.8221C126.837 25.0777 126.408 47.7537 124.021 69.5961C122.827 80.5172 121.134 91.3294 118.768 100.823C116.426 110.218 113.325 118.751 109.1 124.803C107.52 127.067 104.403 127.621 102.138 126.04C99.8741 124.46 99.32 121.343 100.901 119.078C104.076 114.53 106.821 107.408 109.065 98.4048C111.284 89.4994 112.915 79.1679 114.08 68.5097C114.302 66.4765 114.507 64.4349 114.696 62.3931C114.598 62.5315 114.499 62.6688 114.4 62.805C110.993 67.4654 106.296 71.2004 100.065 71.9085C93.6723 72.6349 88.7167 69.8839 85.3306 65.4806C82.1555 61.3518 80.3258 55.7897 79.242 50.2056C77.0565 38.945 77.5032 25.3812 78.5327 16.3727C78.8463 13.6291 81.3246 11.6592 84.0681 11.9728C86.8117 12.2863 88.7816 14.7646 88.4681 17.5082C87.4976 25.9997 87.1443 38.4359 89.0588 48.3003C90.025 53.2787 91.4703 57.0603 93.2577 59.3846C94.834 61.4345 96.5285 62.246 98.9358 61.9724C101.505 61.6805 103.958 60.1447 106.326 56.904C108.727 53.6197 110.724 48.9796 112.294 43.5011C115.425 32.5703 116.5 19.5672 116.501 10.9404C116.501 8.20208 118.703 5.97318 121.441 5.94079Z" fill="#FFDE40"/>
<path fill-rule="evenodd" clip-rule="evenodd" d="M129.346 36.8282L164.785 87.2347C173.64 85.5835 180.439 82.5867 185.221 78.8232C189.725 75.2785 192.472 71.0486 193.649 66.4557C194.832 61.8433 194.518 56.5242 192.323 50.7052C190.933 47.0235 187.756 43.9526 182.641 41.5188C177.512 39.0781 170.877 37.5044 163.485 36.6439C152.032 35.3106 139.451 35.7632 129.346 36.8282ZM163.357 97.6056C175.011 95.9022 184.467 92.1418 191.405 86.6816C197.464 81.9137 201.561 75.8624 203.336 68.9397C205.106 62.0365 204.483 54.6056 201.679 47.1746C199.068 40.2563 193.454 35.5897 186.938 32.4891C180.437 29.3955 172.603 27.6379 164.641 26.7109C148.701 24.8552 131.097 26.2049 119.721 28.0011C118.016 28.2703 116.57 29.4001 115.897 30.9896C115.223 32.5791 115.417 34.4035 116.41 35.8156L153.464 88.5191C148.036 88.7843 142.051 88.6266 135.503 87.9652C132.756 87.6877 130.303 89.6899 130.026 92.4374C129.748 95.1848 131.751 97.637 134.498 97.9146C145.088 98.9843 154.656 98.8499 163.083 97.6452C163.174 97.6346 163.266 97.6214 163.357 97.6056Z" fill="#FFDE40"/>
<path fill-rule="evenodd" clip-rule="evenodd" d="M607.846 35.9473L643.285 86.3538C652.14 84.7027 658.939 81.7059 663.721 77.9424C668.225 74.3977 670.972 70.1678 672.149 65.5748C673.332 60.9625 673.018 55.6434 670.823 49.8243C669.433 46.1427 666.256 43.0717 661.141 40.638C656.012 38.1972 649.377 36.6236 641.985 35.763C630.532 34.4297 617.951 34.8823 607.846 35.9473ZM641.857 96.7248C653.511 95.0213 662.967 91.261 669.905 85.8007C675.964 81.0329 680.061 74.9816 681.836 68.0589C683.606 61.1556 682.983 53.7247 680.179 46.2938C677.568 39.3754 671.954 34.7089 665.438 31.6082C658.937 28.5146 651.103 26.757 643.141 25.8301C627.201 23.9743 609.597 25.324 598.221 27.1202C596.516 27.3895 595.07 28.5192 594.397 30.1087C593.723 31.6982 593.917 33.5226 594.91 34.9348L631.964 87.6383C626.536 87.9034 620.551 87.7457 614.003 87.0843C611.256 86.8068 608.803 88.8091 608.526 91.5565C608.248 94.304 610.251 96.7562 612.998 97.0337C623.588 98.1034 633.156 97.9691 641.583 96.7643C641.674 96.7537 641.766 96.7405 641.857 96.7248Z" fill="#FFDE40"/>
<path fill-rule="evenodd" clip-rule="evenodd" d="M532.545 37.3276C536.64 27.8748 544.19 18.8999 554.759 19.4466C568.574 20.1612 578.791 29.2218 585.726 39.0744C592.704 48.9866 596.998 60.551 598.861 68.2667C599.22 69.7565 598.877 71.3289 597.929 72.533C596.981 73.7371 595.533 74.4399 594 74.4399H539.793C542.182 81.8009 546.75 87.6796 553.862 90.7166C562.6 94.4476 576.484 94.4684 597.512 85.3525C600.045 84.2541 602.989 85.4176 604.088 87.9511C605.186 90.4847 604.023 93.429 601.489 94.5274C579.267 104.161 562.275 105.182 549.935 99.9133C537.424 94.5711 531.018 83.3514 528.777 71.6288C526.549 59.9772 528.265 47.2095 532.545 37.3276ZM537.917 64.4399H587.327C585.255 58.3663 582 51.1529 577.549 44.8304C571.409 36.1081 563.626 29.9187 554.242 29.4333C550.311 29.2299 545.424 32.755 541.721 41.3023C538.842 47.9483 537.355 56.3463 537.917 64.4399Z" fill="#FFDE40"/>
<path fill-rule="evenodd" clip-rule="evenodd" d="M691.746 36.8442C695.841 27.3914 703.391 18.4166 713.96 18.9632C727.776 19.6778 737.992 28.7384 744.928 38.591C751.905 48.5032 756.199 60.0676 758.062 67.7833C758.421 69.2731 758.078 70.8455 757.13 72.0496C756.182 73.2537 754.734 73.9565 753.201 73.9565H698.995C701.383 81.3175 705.951 87.1962 713.063 90.2332C721.801 93.9642 735.685 93.985 756.713 84.8691C759.246 83.7707 762.191 84.9342 763.289 87.4678C764.387 90.0013 763.224 92.9456 760.69 94.044C738.468 103.678 721.477 104.699 709.136 99.4299C696.625 94.0877 690.219 82.868 687.978 71.1454C685.75 59.4938 687.466 46.7261 691.746 36.8442ZM697.118 63.9565H746.528C744.457 57.8829 741.201 50.6695 736.75 44.347C730.611 35.6247 722.827 29.4353 713.443 28.9499C709.512 28.7465 704.625 32.2716 700.922 40.8189C698.044 47.4649 696.556 55.8629 697.118 63.9565Z" fill="#FFDE40"/>
<path fill-rule="evenodd" clip-rule="evenodd" d="M817.161 21.623C819.208 21.0539 821.391 21.8404 822.604 23.5842L882.104 109.084C883.682 111.351 883.123 114.467 880.856 116.044C878.59 117.622 875.474 117.063 873.896 114.796L822.553 41.0179L818.99 95.268C818.85 97.3941 817.378 99.1982 815.324 99.762C813.269 100.326 811.082 99.5256 809.877 97.7686L774.139 45.6686L763.26 79.4721C762.414 82.1007 759.597 83.5458 756.969 82.6998C754.34 81.8538 752.895 79.0371 753.741 76.4084L767.741 32.9084C768.325 31.0931 769.891 29.7681 771.778 29.4927C773.665 29.2172 775.545 30.0393 776.624 31.612L809.957 80.2072L813.511 26.1125C813.65 23.9926 815.114 22.1921 817.161 21.623Z" fill="#FFDE40"/>
<path fill-rule="evenodd" clip-rule="evenodd" d="M921.528 15.0091C908.852 10.3571 889.592 8.4778 869.208 11.3899C865.269 11.9525 862.545 12.7187 860.737 13.523C858.915 14.334 858.367 15.0282 858.233 15.2516C858.232 15.2536 858.231 15.2557 858.229 15.2578C858.172 15.353 858.069 15.5246 858.213 16.1124C858.393 16.8438 858.919 17.9615 860.059 19.4518C862.343 22.4364 866.24 25.8314 870.967 29.1996C875.623 32.5181 880.791 35.6057 885.345 38.024C887.784 39.3191 888.712 42.346 887.417 44.785C886.122 47.2239 883.095 48.1512 880.656 46.8562C875.794 44.2746 870.241 40.9621 865.163 37.3431C860.155 33.7739 855.304 29.6939 852.117 25.5285C849.152 21.6534 846.261 15.7836 849.652 10.1162C851.206 7.52085 853.736 5.69313 856.671 4.38695C859.621 3.07406 863.332 2.12772 867.794 1.49038C889.409 -1.59754 910.4 0.273166 924.973 5.62121C932.193 8.27059 938.427 11.9894 942.122 16.9558C944.018 19.5054 945.283 22.442 945.549 25.6932C945.815 28.9498 945.05 32.1813 943.425 35.2689C940.285 41.2349 934.716 45.6321 928.886 49.0739C923.01 52.5431 916.252 55.3875 910.18 57.9278L909.938 58.0291C903.773 60.6083 898.477 62.8238 894.657 65.1802C890.506 67.7402 890.001 69.317 890.001 69.9402C890.001 71.4442 890.61 73.3855 892.117 75.7541C893.606 78.0925 895.766 80.5261 898.338 82.9119C903.488 87.6887 909.754 91.7847 913.901 94.0539C916.323 95.3794 917.212 98.4178 915.887 100.84C914.561 103.263 911.523 104.152 909.101 102.827C904.414 100.262 897.43 95.7084 891.538 90.2435C888.589 87.5085 885.781 84.4234 883.681 81.1232C881.6 77.8533 880.001 74.0362 880.001 69.9402C880.001 63.5634 884.995 59.3902 889.407 56.669C893.91 53.8915 899.839 51.4126 905.597 49.0055C905.838 48.9044 906.08 48.8034 906.321 48.7026C912.499 46.1178 918.616 43.5247 923.802 40.4627C929.035 37.3732 932.716 34.1454 934.576 30.6114C935.451 28.949 935.671 27.6024 935.582 26.5074C935.492 25.407 935.061 24.2186 934.098 22.9245C932.074 20.2033 927.934 17.3597 921.528 15.0091Z" fill="#FFDE40"/>
<path d="M938 116.44C938 122.792 932.852 127.94 926.5 127.94C920.149 127.94 915 122.792 915 116.44C915 110.089 920.149 104.94 926.5 104.94C932.852 104.94 938 110.089 938 116.44Z" fill="#FFDE40"/>
</svg>
