<svg width="79" height="96" viewBox="0 0 79 96" fill="none" xmlns="http://www.w3.org/2000/svg">
<path d="M34.4495 95.8793C33.0504 95.0993 30.5039 94.6757 26.8102 94.6084C24.5894 92.5798 24.1118 89.0408 25.3775 83.9915C26.1945 81.2217 27.4667 77.1247 29.1944 71.7005C30.9873 65.6487 32.1744 59.3224 32.7557 52.7216C30.5197 51.8545 24.9431 51.5913 16.0259 51.932C8.27017 52.2879 3.502 51.3687 1.7214 49.1744C0.0345216 47.0956 0.162803 43.8312 2.10625 39.3811C2.97999 38.0975 4.05206 36.9402 5.32244 35.9093C11.6743 30.755 22.5331 29.0303 37.8988 30.7352C43.3126 14.2753 47.5786 4.78011 50.6968 2.24979C52.1982 1.03149 53.8075 0.300222 55.5246 0.0559998C58.7763 3.35501 59.5667 8.45971 57.8959 15.3701C56.8328 19.4889 55.1227 25.7607 52.7656 34.1857C57.6994 35.5451 66.0198 37.8913 77.7267 41.2245C78.8863 44.3058 78.9095 47.6388 77.7962 51.2237C76.683 54.8086 74.8451 57.7365 72.2826 60.0075L49.5053 56.3681C48.6883 59.1379 47.1515 65.2692 44.8947 74.762C43.5637 80.4389 41.7575 84.5861 39.4761 87.2035C38.6308 89.2302 36.9552 92.1222 34.4495 95.8793Z" fill="white"/>
</svg>
